<?xml version="1.0" encoding="utf-8"?>
<!-- Generator: Adobe Illustrator 27.2.0, SVG Export Plug-In . SVG Version: 6.00 Build 0)  -->
<svg version="1.1" id="Layer_1" xmlns="http://www.w3.org/2000/svg" xmlns:xlink="http://www.w3.org/1999/xlink" x="0px" y="0px"
	 viewBox="0 0 750 500" style="enable-background:new 0 0 750 500;" xml:space="preserve">
<style type="text/css">
	.st0{fill:#F8766D;}
	.st1{font-family:'ArialMT';}
	.st2{font-size:8.8px;}
	.st3{fill:#D39200;}
	.st4{fill:#93AA00;}
	.st5{fill:#00BA38;}
	.st6{fill:#00C19F;}
	.st7{fill:#00B9E3;}
	.st8{fill:#619CFF;}
	.st9{fill:#DB72FB;}
	.st10{fill:#FF61C3;}
	.st11{opacity:0.55;fill:#F8766D;enable-background:new    ;}
	.st12{opacity:0.55;fill:#93AA00;enable-background:new    ;}
	.st13{opacity:0.55;fill:#00C19F;enable-background:new    ;}
	.st14{opacity:0.55;fill:#619CFF;enable-background:new    ;}
	.st15{opacity:0.55;fill:#DB72FB;enable-background:new    ;}
	.st16{opacity:0.55;fill:#FF61C3;enable-background:new    ;}
	.st17{fill:none;}
	.st18{font-size:11px;}
	.st19{fill:none;stroke:#C49036;stroke-width:10;stroke-miterlimit:10;}
	.st20{opacity:0.55;fill:#D39200;enable-background:new    ;}
	.st21{opacity:0.55;fill:#00BA38;enable-background:new    ;}
	.st22{opacity:0.55;fill:#00B9E3;enable-background:new    ;}
	.st23{opacity:0.55;fill:none;stroke:#00C19F;stroke-miterlimit:10;enable-background:new    ;}
	.st24{fill:none;stroke:#00C19F;stroke-miterlimit:10;}
	.st25{font-size:12px;}
</style>
<g>
	<rect x="5.4" y="421.8" class="st0" width="10" height="24.5"/>
	<text transform="matrix(1 0 0 1 24.4307 437.2321)" class="st0 st1 st2">Autobio/ Bio/ Memoir</text>
</g>
<g>
	<rect x="113.9" y="421.8" class="st3" width="10" height="24.5"/>
	<text transform="matrix(1 0 0 1 132.9402 437.2119)" class="st3 st1 st2">Children&apos;s book</text>
</g>
<g>
	<rect x="201" y="421.8" class="st4" width="10" height="24.5"/>
	<text transform="matrix(1 0 0 1 220.0222 437.192)" class="st4 st1 st2">Fiction</text>
</g>
<g>
	<rect x="253.6" y="423.1" class="st5" width="10" height="24.5"/>
	<text transform="matrix(1 0 0 1 272.6778 438.472)" class="st5 st1 st2">Literature and Culture</text>
</g>
<g>
	<rect x="365.5" y="423.1" class="st6" width="10" height="24.5"/>
	<text transform="matrix(1 0 0 1 384.5638 438.4519)" class="st6 st1 st2">Non-fiction</text>
</g>
<g>
	<rect x="434.3" y="423.1" class="st7" width="10" height="24.5"/>
	<text transform="matrix(1 0 0 1 453.3723 438.5319)" class="st7 st1 st2">Poetry/ Song/ Drama</text>
</g>
<g>
	<rect x="543.2" y="425.1" class="st8" width="10" height="24.5"/>
	<text transform="matrix(1 0 0 1 562.2718 440.4569)" class="st8 st1 st2">Political</text>
</g>
<g>
	<rect x="600.3" y="425.1" class="st9" width="10" height="24.5"/>
	<text transform="matrix(1 0 0 1 619.3638 440.437)" class="st9 st1 st2">Religious text</text>
</g>
<g>
	<rect x="679.8" y="426.2" class="st10" width="10" height="24.5"/>
	<text transform="matrix(1 0 0 1 698.8998 441.5316)" class="st10 st1 st2">Unspecified</text>
</g>
<rect x="108.4" y="141.1" class="st11" width="10" height="25.6"/>
<rect x="116.1" y="141.1" class="st11" width="10" height="25.6"/>
<rect x="123.7" y="141.1" class="st11" width="10" height="25.6"/>
<rect x="131.3" y="141.1" class="st11" width="10" height="25.6"/>
<rect x="139" y="141.1" class="st11" width="10" height="25.6"/>
<rect x="146.6" y="141.1" class="st11" width="10" height="25.6"/>
<rect x="154.2" y="141.1" class="st12" width="10" height="25.6"/>
<rect x="161.9" y="141.1" class="st12" width="10" height="25.6"/>
<rect x="169.5" y="141.1" class="st12" width="10" height="25.6"/>
<rect x="177.1" y="141.1" class="st12" width="10" height="25.6"/>
<rect x="184.8" y="141.1" class="st12" width="10" height="25.6"/>
<rect x="192.4" y="141.1" class="st12" width="10" height="25.6"/>
<rect x="200" y="141.1" class="st12" width="10" height="25.6"/>
<rect x="207.7" y="141.1" class="st12" width="10" height="25.6"/>
<rect x="215.3" y="141.1" class="st12" width="10" height="25.6"/>
<rect x="222.9" y="141.1" class="st12" width="10" height="25.6"/>
<rect x="230.6" y="141.1" class="st12" width="10" height="25.6"/>
<rect x="238.2" y="141.1" class="st12" width="10" height="25.6"/>
<rect x="245.8" y="141.1" class="st12" width="10" height="25.6"/>
<rect x="253.5" y="141.1" class="st12" width="10" height="25.6"/>
<rect x="261.1" y="141.1" class="st12" width="10" height="25.6"/>
<rect x="268.7" y="141.1" class="st12" width="10" height="25.6"/>
<rect x="276.4" y="141.1" class="st12" width="10" height="25.6"/>
<rect x="284" y="141.1" class="st12" width="10" height="25.6"/>
<rect x="291.6" y="141.1" class="st12" width="10" height="25.6"/>
<rect x="299.3" y="141.1" class="st12" width="10" height="25.6"/>
<rect x="306.9" y="141.1" class="st12" width="10" height="25.6"/>
<rect x="314.5" y="141.1" class="st12" width="10" height="25.6"/>
<rect x="322.2" y="141.1" class="st12" width="10" height="25.6"/>
<rect x="329.8" y="141.1" class="st12" width="10" height="25.6"/>
<rect x="337.4" y="141.1" class="st12" width="10" height="25.6"/>
<rect x="345.1" y="141.1" class="st12" width="10" height="25.6"/>
<rect x="352.7" y="141.1" class="st12" width="10" height="25.6"/>
<rect x="360.4" y="141.1" class="st12" width="10" height="25.6"/>
<rect x="368" y="141.1" class="st12" width="10" height="25.6"/>
<rect x="375.6" y="141.1" class="st12" width="10" height="25.6"/>
<rect x="383.3" y="141.1" class="st12" width="10" height="25.6"/>
<rect x="390.9" y="141.1" class="st12" width="10" height="25.6"/>
<rect x="398.5" y="141.1" class="st12" width="10" height="25.6"/>
<rect x="406.2" y="141.1" class="st13" width="10" height="25.6"/>
<rect x="413.8" y="141.1" class="st13" width="10" height="25.6"/>
<rect x="421.4" y="141.1" class="st13" width="10" height="25.6"/>
<rect x="429.1" y="141.1" class="st13" width="10" height="25.6"/>
<rect x="436.7" y="141.1" class="st13" width="10" height="25.6"/>
<rect x="444.3" y="141.1" class="st13" width="10" height="25.6"/>
<rect x="452" y="141.1" class="st13" width="10" height="25.6"/>
<rect x="459.6" y="141.1" class="st13" width="10" height="25.6"/>
<rect x="467.2" y="141.1" class="st13" width="10" height="25.6"/>
<rect x="474.9" y="141.1" class="st13" width="10" height="25.6"/>
<rect x="482.5" y="141.1" class="st13" width="10" height="25.6"/>
<rect x="490.1" y="141.1" class="st13" width="10" height="25.6"/>
<rect x="497.8" y="141.1" class="st13" width="10" height="25.6"/>
<rect x="505.4" y="141.1" class="st13" width="10" height="25.6"/>
<rect x="513" y="141.1" class="st13" width="10" height="25.6"/>
<rect x="520.7" y="141.1" class="st13" width="10" height="25.6"/>
<rect x="528.3" y="141.1" class="st13" width="10" height="25.6"/>
<rect x="535.9" y="141.1" class="st13" width="10" height="25.6"/>
<rect x="543.6" y="141.1" class="st13" width="10" height="25.6"/>
<rect x="551.2" y="141.1" class="st14" width="10" height="25.6"/>
<rect x="558.8" y="141.1" class="st14" width="10" height="25.6"/>
<rect x="566.5" y="141.1" class="st14" width="10" height="25.6"/>
<rect x="574.1" y="141.1" class="st14" width="10" height="25.6"/>
<rect x="581.7" y="141.1" class="st14" width="10" height="25.6"/>
<rect x="589.4" y="141.1" class="st15" width="10" height="25.6"/>
<rect x="597" y="141.1" class="st15" width="10" height="25.6"/>
<rect x="604.6" y="141.1" class="st15" width="10" height="25.6"/>
<rect x="612.3" y="141.1" class="st16" width="10" height="25.6"/>
<rect x="619.9" y="141.1" class="st16" width="10" height="25.6"/>
<rect x="627.5" y="141.1" class="st16" width="10" height="25.6"/>
<rect x="635.2" y="141.1" class="st16" width="10" height="25.6"/>
<rect x="642.8" y="141.1" class="st16" width="10" height="25.6"/>
<rect x="650.4" y="141.1" class="st16" width="10" height="25.6"/>
<rect x="658.1" y="141.1" class="st16" width="10" height="25.6"/>
<rect x="665.7" y="141.1" class="st16" width="10" height="25.6"/>
<rect x="27.2" y="148.4" class="st17" width="52.6" height="13"/>
<text transform="matrix(1 0 0 1 27.1892 157.8681)" class="st1 st18">1971-1995</text>
<line class="st19" x1="102.4" y1="173.1" x2="732.4" y2="173.1"/>
<rect x="109.2" y="211.6" class="st11" width="10" height="25.6"/>
<rect x="116.9" y="211.6" class="st11" width="10" height="25.6"/>
<rect x="124.5" y="211.6" class="st11" width="10" height="25.6"/>
<rect x="132.1" y="211.6" class="st11" width="10" height="25.6"/>
<rect x="139.8" y="211.6" class="st11" width="10" height="25.6"/>
<rect x="147.4" y="211.6" class="st20" width="10" height="25.6"/>
<rect x="155" y="211.6" class="st12" width="10" height="25.6"/>
<rect x="162.7" y="211.6" class="st12" width="10" height="25.6"/>
<rect x="170.3" y="211.6" class="st12" width="10" height="25.6"/>
<rect x="177.9" y="211.6" class="st12" width="10" height="25.6"/>
<rect x="185.6" y="211.6" class="st12" width="10" height="25.6"/>
<rect x="193.2" y="211.6" class="st12" width="10" height="25.6"/>
<rect x="200.8" y="211.6" class="st12" width="10" height="25.6"/>
<rect x="208.5" y="211.6" class="st12" width="10" height="25.6"/>
<rect x="216.1" y="211.6" class="st12" width="10" height="25.6"/>
<rect x="223.7" y="211.6" class="st12" width="10" height="25.6"/>
<rect x="231.4" y="211.6" class="st12" width="10" height="25.6"/>
<rect x="239" y="211.6" class="st12" width="10" height="25.6"/>
<rect x="246.6" y="211.6" class="st12" width="10" height="25.6"/>
<rect x="254.3" y="211.6" class="st12" width="10" height="25.6"/>
<rect x="261.9" y="211.6" class="st12" width="10" height="25.6"/>
<rect x="269.5" y="211.6" class="st12" width="10" height="25.6"/>
<rect x="277.2" y="211.6" class="st12" width="10" height="25.6"/>
<rect x="284.8" y="211.6" class="st12" width="10" height="25.6"/>
<rect x="292.4" y="211.6" class="st12" width="10" height="25.6"/>
<rect x="300.1" y="211.6" class="st12" width="10" height="25.6"/>
<rect x="307.7" y="211.6" class="st12" width="10" height="25.6"/>
<rect x="315.3" y="211.6" class="st12" width="10" height="25.6"/>
<rect x="323" y="211.6" class="st12" width="10" height="25.6"/>
<rect x="330.6" y="211.6" class="st12" width="10" height="25.6"/>
<rect x="338.2" y="211.6" class="st12" width="10" height="25.6"/>
<rect x="345.9" y="211.6" class="st12" width="10" height="25.6"/>
<rect x="353.5" y="211.6" class="st12" width="10" height="25.6"/>
<rect x="361.2" y="211.6" class="st12" width="10" height="25.6"/>
<rect x="368.8" y="211.6" class="st12" width="10" height="25.6"/>
<rect x="376.4" y="211.6" class="st21" width="10" height="25.6"/>
<rect x="384.1" y="211.6" class="st13" width="10" height="25.6"/>
<rect x="391.7" y="211.6" class="st13" width="10" height="25.6"/>
<rect x="399.3" y="211.6" class="st13" width="10" height="25.6"/>
<rect x="407" y="211.6" class="st13" width="10" height="25.6"/>
<rect x="414.6" y="211.6" class="st13" width="10" height="25.6"/>
<rect x="422.2" y="211.6" class="st13" width="10" height="25.6"/>
<rect x="429.9" y="211.6" class="st13" width="10" height="25.6"/>
<rect x="437.5" y="211.6" class="st13" width="10" height="25.6"/>
<rect x="445.1" y="211.6" class="st13" width="10" height="25.6"/>
<rect x="452.8" y="211.6" class="st13" width="10" height="25.6"/>
<rect x="460.4" y="211.6" class="st13" width="10" height="25.6"/>
<rect x="468" y="211.6" class="st13" width="10" height="25.6"/>
<rect x="475.7" y="211.6" class="st13" width="10" height="25.6"/>
<rect x="483.3" y="211.6" class="st13" width="10" height="25.6"/>
<rect x="490.9" y="211.6" class="st13" width="10" height="25.6"/>
<rect x="498.6" y="211.6" class="st13" width="10" height="25.6"/>
<rect x="506.2" y="211.6" class="st13" width="10" height="25.6"/>
<rect x="513.8" y="211.6" class="st22" width="10" height="25.6"/>
<rect x="521.5" y="211.6" class="st14" width="10" height="25.6"/>
<rect x="529.1" y="211.6" class="st14" width="10" height="25.6"/>
<rect x="536.7" y="211.6" class="st14" width="10" height="25.6"/>
<rect x="544.4" y="211.6" class="st14" width="10" height="25.6"/>
<rect x="552" y="211.6" class="st14" width="10" height="25.6"/>
<rect x="559.6" y="211.6" class="st15" width="10" height="25.6"/>
<rect x="567.3" y="211.6" class="st15" width="10" height="25.6"/>
<rect x="574.9" y="211.6" class="st15" width="10" height="25.6"/>
<rect x="582.5" y="211.6" class="st15" width="10" height="25.6"/>
<rect x="590.2" y="211.6" class="st16" width="10" height="25.6"/>
<rect x="597.8" y="211.6" class="st16" width="10" height="25.6"/>
<rect x="605.4" y="211.6" class="st16" width="10" height="25.6"/>
<rect x="613.1" y="211.6" class="st16" width="10" height="25.6"/>
<rect x="620.7" y="211.6" class="st16" width="10" height="25.6"/>
<rect x="628.3" y="211.6" class="st16" width="10" height="25.6"/>
<rect x="636" y="211.6" class="st16" width="10" height="25.6"/>
<rect x="643.6" y="211.6" class="st16" width="10" height="25.6"/>
<rect x="651.2" y="211.6" class="st16" width="10" height="25.6"/>
<rect x="658.9" y="211.6" class="st16" width="10" height="25.6"/>
<rect x="666.5" y="211.6" class="st16" width="10" height="25.6"/>
<rect x="674.1" y="211.6" class="st16" width="10" height="25.6"/>
<rect x="681.8" y="211.6" class="st16" width="10" height="25.6"/>
<rect x="689.4" y="211.6" class="st16" width="10" height="25.6"/>
<rect x="697.1" y="211.6" class="st16" width="10" height="25.6"/>
<rect x="704.7" y="211.6" class="st16" width="10" height="25.6"/>
<rect x="712.3" y="211.6" class="st16" width="10" height="25.6"/>
<rect x="28" y="218.9" class="st17" width="52.6" height="13"/>
<text transform="matrix(1 0 0 1 27.9392 228.4021)" class="st1 st18">1946-1970</text>
<line class="st19" x1="103.8" y1="244.5" x2="733.8" y2="244.5"/>
<rect x="112.2" y="282" class="st11" width="10" height="25.6"/>
<rect x="119.9" y="282" class="st11" width="10" height="25.6"/>
<rect x="127.5" y="282" class="st11" width="10" height="25.6"/>
<rect x="135.1" y="282.1" class="st11" width="10" height="25.6"/>
<rect x="142.8" y="282.1" class="st20" width="10" height="25.6"/>
<rect x="150.4" y="282.1" class="st20" width="10" height="25.6"/>
<rect x="158" y="282.1" class="st12" width="10" height="25.6"/>
<rect x="165.7" y="282.1" class="st12" width="10" height="25.6"/>
<rect x="173.3" y="282.1" class="st12" width="10" height="25.6"/>
<rect x="180.9" y="282.1" class="st12" width="10" height="25.6"/>
<rect x="188.6" y="282.1" class="st12" width="10" height="25.6"/>
<rect x="196.2" y="282.1" class="st12" width="10" height="25.6"/>
<rect x="203.8" y="282.1" class="st12" width="10" height="25.6"/>
<rect x="211.5" y="282.1" class="st12" width="10" height="25.6"/>
<rect x="219.1" y="282.1" class="st12" width="10" height="25.6"/>
<rect x="226.7" y="282.1" class="st12" width="10" height="25.6"/>
<rect x="234.4" y="282.1" class="st12" width="10" height="25.6"/>
<rect x="242" y="282.1" class="st12" width="10" height="25.6"/>
<rect x="249.6" y="282.1" class="st12" width="10" height="25.6"/>
<rect x="257.3" y="282.1" class="st12" width="10" height="25.6"/>
<rect x="264.9" y="282.1" class="st12" width="10" height="25.6"/>
<rect x="272.5" y="282.1" class="st12" width="10" height="25.6"/>
<rect x="280.2" y="282.1" class="st12" width="10" height="25.6"/>
<rect x="287.8" y="282.1" class="st12" width="10" height="25.6"/>
<rect x="295.4" y="282.1" class="st12" width="10" height="25.6"/>
<rect x="303.1" y="282.1" class="st12" width="10" height="25.6"/>
<rect x="310.7" y="282.1" class="st12" width="10" height="25.6"/>
<rect x="318.3" y="282.1" class="st12" width="10" height="25.6"/>
<rect x="326" y="282.1" class="st12" width="10" height="25.6"/>
<rect x="333.6" y="282.1" class="st12" width="10" height="25.6"/>
<rect x="341.2" y="282.1" class="st12" width="10" height="25.6"/>
<rect x="348.9" y="282.1" class="st12" width="10" height="25.6"/>
<rect x="356.5" y="282.1" class="st12" width="10" height="25.6"/>
<rect x="364.2" y="282.1" class="st12" width="10" height="25.6"/>
<rect x="371.8" y="282.1" class="st12" width="10" height="25.6"/>
<rect x="379.4" y="282.1" class="st12" width="10" height="25.6"/>
<rect x="387.1" y="282.1" class="st12" width="10" height="25.6"/>
<rect x="394.7" y="282.1" class="st12" width="10" height="25.6"/>
<rect x="402.3" y="282.1" class="st12" width="10" height="25.6"/>
<rect x="410" y="282.1" class="st12" width="10" height="25.6"/>
<rect x="417.6" y="282.1" class="st12" width="10" height="25.6"/>
<rect x="425.2" y="282.1" class="st13" width="10" height="25.6"/>
<rect x="432.9" y="282.1" class="st13" width="10" height="25.6"/>
<rect x="440.5" y="282.1" class="st13" width="10" height="25.6"/>
<rect x="448.1" y="282.1" class="st13" width="10" height="25.6"/>
<rect x="455.8" y="282.1" class="st13" width="10" height="25.6"/>
<rect x="463.4" y="282.1" class="st13" width="10" height="25.6"/>
<rect x="471" y="282.1" class="st13" width="10" height="25.6"/>
<rect x="478.7" y="282.1" class="st13" width="10" height="25.6"/>
<rect x="486.3" y="282.1" class="st13" width="10" height="25.6"/>
<rect x="493.9" y="282.1" class="st13" width="10" height="25.6"/>
<rect x="501.6" y="282.1" class="st13" width="10" height="25.6"/>
<rect x="509.2" y="282.1" class="st13" width="10" height="25.6"/>
<rect x="516.8" y="282.1" class="st13" width="10" height="25.6"/>
<rect x="524.5" y="282.1" class="st13" width="10" height="25.6"/>
<rect x="532.1" y="282.1" class="st13" width="10" height="25.6"/>
<rect x="539.7" y="282.1" class="st13" width="10" height="25.6"/>
<rect x="547.4" y="282.1" class="st22" width="10" height="25.6"/>
<rect x="555" y="282.1" class="st22" width="10" height="25.6"/>
<rect x="562.6" y="282.1" class="st22" width="10" height="25.6"/>
<rect x="570.3" y="282.1" class="st22" width="10" height="25.6"/>
<rect x="577.9" y="282.1" class="st22" width="10" height="25.6"/>
<rect x="585.5" y="282.1" class="st22" width="10" height="25.6"/>
<rect x="593.2" y="282.1" class="st22" width="10" height="25.6"/>
<rect x="600.8" y="282.1" class="st14" width="10" height="25.6"/>
<rect x="608.4" y="282.1" class="st14" width="10" height="25.6"/>
<rect x="616.1" y="282.1" class="st14" width="10" height="25.6"/>
<rect x="623.7" y="282.1" class="st14" width="10" height="25.6"/>
<rect x="631.3" y="282.1" class="st14" width="10" height="25.6"/>
<rect x="639" y="282.1" class="st14" width="10" height="25.6"/>
<rect x="646.6" y="282.1" class="st14" width="10" height="25.6"/>
<rect x="654.2" y="282.1" class="st14" width="10" height="25.6"/>
<rect x="661.9" y="282.1" class="st14" width="10" height="25.6"/>
<rect x="669.5" y="282.1" class="st15" width="10" height="25.6"/>
<rect x="677.1" y="282.1" class="st15" width="10" height="25.6"/>
<rect x="684.8" y="282.1" class="st16" width="10" height="25.6"/>
<rect x="692.4" y="282.1" class="st16" width="10" height="25.6"/>
<rect x="700.1" y="282.1" class="st16" width="10" height="25.6"/>
<rect x="707.7" y="282.1" class="st16" width="10" height="25.6"/>
<rect x="715.3" y="282.1" class="st16" width="10" height="25.6"/>
<rect x="722.9" y="282.1" class="st16" width="10" height="25.6"/>
<rect x="31" y="289.4" class="st17" width="52.6" height="13"/>
<text transform="matrix(1 0 0 1 30.9392 298.8851)" class="st1 st18">1920-1945</text>
<line class="st19" x1="106.6" y1="314.4" x2="736.6" y2="314.4"/>
<rect x="108.4" y="351.9" class="st12" width="10" height="25.6"/>
<rect x="116.1" y="351.9" class="st13" width="10" height="25.6"/>
<rect x="123.7" y="351.9" class="st22" width="10" height="25.6"/>
<rect x="131.3" y="351.9" class="st22" width="10" height="25.6"/>
<rect x="139" y="351.9" class="st15" width="10" height="25.6"/>
<rect x="146.6" y="351.9" class="st15" width="10" height="25.6"/>
<rect x="154.2" y="351.9" class="st16" width="10" height="25.6"/>
<rect x="161.9" y="351.9" class="st16" width="10" height="25.6"/>
<rect x="169.5" y="351.9" class="st16" width="10" height="25.6"/>
<rect x="177.1" y="351.9" class="st16" width="10" height="25.6"/>
<text transform="matrix(1 0 0 1 6.6735 368.7479)" class="st1 st18">complex dates</text>
<line class="st19" x1="106.4" y1="383.7" x2="736.4" y2="383.7"/>
<rect x="108.4" y="68.6" class="st11" width="10" height="25.6"/>
<rect x="116.1" y="68.6" class="st11" width="10" height="25.6"/>
<rect x="123.7" y="68.6" class="st11" width="10" height="25.6"/>
<rect x="131.3" y="68.6" class="st11" width="10" height="25.6"/>
<rect x="139" y="68.6" class="st11" width="10" height="25.6"/>
<rect x="146.6" y="68.6" class="st11" width="10" height="25.6"/>
<rect x="154.2" y="68.6" class="st20" width="10" height="25.6"/>
<rect x="161.9" y="68.6" class="st12" width="10" height="25.6"/>
<rect x="169.5" y="68.6" class="st12" width="10" height="25.6"/>
<rect x="177.1" y="68.6" class="st12" width="10" height="25.6"/>
<rect x="184.8" y="68.6" class="st12" width="10" height="25.6"/>
<rect x="192.4" y="68.6" class="st12" width="10" height="25.6"/>
<rect x="200" y="68.6" class="st12" width="10" height="25.6"/>
<rect x="207.7" y="68.6" class="st12" width="10" height="25.6"/>
<rect x="215.3" y="68.6" class="st12" width="10" height="25.6"/>
<rect x="222.9" y="68.6" class="st12" width="10" height="25.6"/>
<rect x="230.6" y="68.6" class="st12" width="10" height="25.6"/>
<rect x="238.2" y="68.6" class="st12" width="10" height="25.6"/>
<rect x="245.8" y="68.6" class="st12" width="10" height="25.6"/>
<rect x="253.5" y="68.6" class="st12" width="10" height="25.6"/>
<rect x="261.1" y="68.6" class="st12" width="10" height="25.6"/>
<rect x="268.7" y="68.6" class="st12" width="10" height="25.6"/>
<rect x="276.4" y="68.6" class="st12" width="10" height="25.6"/>
<rect x="284" y="68.6" class="st12" width="10" height="25.6"/>
<rect x="291.6" y="68.6" class="st12" width="10" height="25.6"/>
<rect x="299.3" y="68.6" class="st12" width="10" height="25.6"/>
<rect x="306.9" y="68.6" class="st12" width="10" height="25.6"/>
<rect x="314.5" y="68.6" class="st12" width="10" height="25.6"/>
<rect x="322.2" y="68.6" class="st12" width="10" height="25.6"/>
<rect x="329.8" y="68.6" class="st12" width="10" height="25.6"/>
<rect x="337.4" y="68.6" class="st13" width="10" height="25.6"/>
<rect x="345.1" y="68.6" class="st13" width="10" height="25.6"/>
<rect x="345.1" y="68.6" class="st23" width="10" height="25.6"/>
<rect x="352.7" y="68.6" class="st13" width="10" height="25.6"/>
<rect x="360.4" y="68.6" class="st13" width="10" height="25.6"/>
<rect x="368" y="68.6" class="st13" width="10" height="25.6"/>
<rect x="375.6" y="68.6" class="st13" width="10" height="25.6"/>
<rect x="383.3" y="68.6" class="st13" width="10" height="25.6"/>
<rect x="390.9" y="68.6" class="st13" width="10" height="25.6"/>
<rect x="398.5" y="68.6" class="st13" width="10" height="25.6"/>
<rect x="406.2" y="68.6" class="st13" width="10" height="25.6"/>
<rect x="413.8" y="68.6" class="st13" width="10" height="25.6"/>
<rect x="421.4" y="68.6" class="st13" width="10" height="25.6"/>
<rect x="429.1" y="68.6" class="st13" width="10" height="25.6"/>
<rect x="436.7" y="68.6" class="st13" width="10" height="25.6"/>
<rect x="444.3" y="68.6" class="st13" width="10" height="25.6"/>
<rect x="452" y="68.6" class="st13" width="10" height="25.6"/>
<rect x="459.6" y="68.6" class="st13" width="10" height="25.6"/>
<rect x="467.2" y="68.6" class="st13" width="10" height="25.6"/>
<rect x="474.9" y="68.6" class="st13" width="10" height="25.6"/>
<rect x="482.5" y="68.6" class="st14" width="10" height="25.6"/>
<rect x="490.1" y="68.6" class="st14" width="10" height="25.6"/>
<rect x="497.8" y="68.6" class="st14" width="10" height="25.6"/>
<rect x="505.4" y="68.6" class="st14" width="10" height="25.6"/>
<rect x="513" y="68.6" class="st14" width="10" height="25.6"/>
<rect x="520.7" y="68.6" class="st14" width="10" height="25.6"/>
<rect x="528.3" y="68.6" class="st14" width="10" height="25.6"/>
<rect x="535.9" y="68.6" class="st14" width="10" height="25.6"/>
<rect x="543.6" y="68.6" class="st14" width="10" height="25.6"/>
<rect x="551.2" y="68.6" class="st15" width="10" height="25.6"/>
<rect x="558.8" y="68.6" class="st15" width="10" height="25.6"/>
<rect x="566.5" y="68.6" class="st15" width="10" height="25.6"/>
<rect x="574.1" y="68.6" class="st15" width="10" height="25.6"/>
<rect x="581.7" y="68.6" class="st15" width="10" height="25.6"/>
<rect x="589.4" y="68.6" class="st15" width="10" height="25.6"/>
<rect x="597" y="68.6" class="st16" width="10" height="25.6"/>
<rect x="604.6" y="68.6" class="st16" width="10" height="25.6"/>
<rect x="612.3" y="68.6" class="st16" width="10" height="25.6"/>
<rect x="619.9" y="68.6" class="st16" width="10" height="25.6"/>
<rect x="627.5" y="68.6" class="st16" width="10" height="25.6"/>
<rect x="635.2" y="68.6" class="st16" width="10" height="25.6"/>
<rect x="642.8" y="68.6" class="st16" width="10" height="25.6"/>
<rect x="650.4" y="68.6" class="st16" width="10" height="25.6"/>
<rect x="658.1" y="68.6" class="st16" width="10" height="25.6"/>
<rect x="665.7" y="68.6" class="st16" width="10" height="25.6"/>
<path class="st24" d="M164.6,62.3c3.8-3.1,11.5-8.3,24.2-12.1c53.4-16,131.4,12.2,150.5,0c8.7-5.6,1.2-17,0-17c-1.1,0-7.9,10,0,14.7
	c17.2,10.5,100-6.9,127,0c2.9,0.7,10.5,2.7,13.3,6.6c1.8,2.6,0.9,5.1,0,6.7"/>
<text transform="matrix(1 0 0 1 191.3128 21.5808)" class="st4 st1 st25">Fiction books</text>
<text transform="matrix(1 0 0 1 262.0128 21.5808)" class="st1 st25">, particularly novels, generally more likely to </text>
<text transform="matrix(1 0 0 1 191.3128 35.9807)" class="st1 st25">be banned than </text>
<text transform="matrix(1 0 0 1 277.6127 35.9807)" class="st6 st1 st25">nonfiction</text>
<line class="st19" x1="101.8" y1="101.1" x2="731.8" y2="101.1"/>
<text transform="matrix(1 0 0 1 29.1274 81.5743)" class="st1 st18">1996-2020</text>
</svg>
