<?xml version="1.0" encoding="utf-8"?>
<!-- Generator: Adobe Illustrator 27.2.0, SVG Export Plug-In . SVG Version: 6.00 Build 0)  -->
<svg version="1.1" id="Layer_1" xmlns="http://www.w3.org/2000/svg" xmlns:xlink="http://www.w3.org/1999/xlink" x="0px" y="0px"
	 viewBox="0 0 900 900" style="enable-background:new 0 0 900 900;" xml:space="preserve">
<style type="text/css">
	.st0{fill:none;}
	.st1{opacity:0.55;fill:#C49A2C;enable-background:new    ;}
	.st2{opacity:0.55;fill:#C49A2C;stroke:#C49A2C;stroke-miterlimit:10;enable-background:new    ;}
	.st3{font-family:'ArialMT';}
	.st4{font-size:11px;}
</style>
<rect x="-129.4" y="302.1" class="st0" width="900" height="900"/>
<rect x="-129.4" y="302.1" class="st0" width="900" height="900"/>
<g>
	<rect x="112.9" y="785.4" class="st1" width="1.6" height="25.6"/>
</g>
<g>
	<rect x="120.6" y="785.4" class="st1" width="1.6" height="25.6"/>
</g>
<g>
	<rect x="128.2" y="785.4" class="st1" width="1.6" height="25.6"/>
</g>
<g>
	<rect x="135.8" y="785.4" class="st1" width="1.6" height="25.6"/>
</g>
<g>
	<rect x="143.5" y="785.4" class="st1" width="1.6" height="25.6"/>
</g>
<g>
	<rect x="151.1" y="785.4" class="st1" width="1.6" height="25.6"/>
</g>
<g>
	<rect x="158.7" y="785.4" class="st1" width="1.6" height="25.6"/>
</g>
<g>
	<rect x="166.4" y="785.4" class="st1" width="1.6" height="25.6"/>
</g>
<g>
	<rect x="174" y="785.4" class="st1" width="1.6" height="25.6"/>
</g>
<g>
	<rect x="181.6" y="785.4" class="st1" width="1.6" height="25.6"/>
</g>
<g>
	<rect x="112.9" y="615.7" class="st1" width="1.6" height="25.6"/>
</g>
<g>
	<rect x="120.6" y="615.7" class="st1" width="1.6" height="25.6"/>
</g>
<g>
	<rect x="128.2" y="615.7" class="st1" width="1.6" height="25.6"/>
</g>
<g>
	<rect x="135.8" y="615.8" class="st1" width="1.6" height="25.6"/>
</g>
<g>
	<rect x="143.5" y="615.8" class="st1" width="1.6" height="25.6"/>
</g>
<g>
	<rect x="151.1" y="615.8" class="st1" width="1.6" height="25.6"/>
</g>
<g>
	<rect x="158.7" y="615.8" class="st1" width="1.6" height="25.6"/>
</g>
<g>
	<rect x="166.4" y="615.8" class="st1" width="1.6" height="25.6"/>
</g>
<g>
	<rect x="174" y="615.8" class="st1" width="1.6" height="25.6"/>
</g>
<g>
	<rect x="181.6" y="615.8" class="st1" width="1.6" height="25.6"/>
</g>
<g>
	<rect x="189.3" y="615.8" class="st1" width="1.6" height="25.6"/>
</g>
<g>
	<rect x="196.9" y="615.8" class="st1" width="1.6" height="25.6"/>
</g>
<g>
	<rect x="204.5" y="615.8" class="st1" width="1.6" height="25.6"/>
</g>
<g>
	<rect x="212.2" y="615.8" class="st1" width="1.6" height="25.6"/>
</g>
<g>
	<rect x="219.8" y="615.8" class="st1" width="1.6" height="25.6"/>
</g>
<g>
	<rect x="227.4" y="615.8" class="st1" width="1.6" height="25.6"/>
</g>
<g>
	<rect x="235.1" y="615.8" class="st1" width="1.6" height="25.6"/>
</g>
<g>
	<rect x="242.7" y="615.8" class="st1" width="1.6" height="25.6"/>
</g>
<g>
	<rect x="250.3" y="615.8" class="st1" width="1.6" height="25.6"/>
</g>
<g>
	<rect x="258" y="615.8" class="st1" width="1.6" height="25.6"/>
</g>
<g>
	<rect x="265.6" y="615.8" class="st1" width="1.6" height="25.6"/>
</g>
<g>
	<rect x="273.2" y="615.8" class="st1" width="1.6" height="25.6"/>
</g>
<g>
	<rect x="280.9" y="615.8" class="st1" width="1.6" height="25.6"/>
</g>
<g>
	<rect x="288.5" y="615.8" class="st1" width="1.6" height="25.6"/>
</g>
<g>
	<rect x="296.1" y="615.8" class="st1" width="1.6" height="25.6"/>
</g>
<g>
	<rect x="303.8" y="615.8" class="st1" width="1.6" height="25.6"/>
</g>
<g>
	<rect x="311.4" y="615.8" class="st1" width="1.6" height="25.6"/>
</g>
<g>
	<rect x="319" y="615.8" class="st1" width="1.6" height="25.6"/>
</g>
<g>
	<rect x="326.7" y="615.8" class="st1" width="1.6" height="25.6"/>
</g>
<g>
	<rect x="334.3" y="615.8" class="st1" width="1.6" height="25.6"/>
</g>
<g>
	<rect x="341.9" y="615.8" class="st1" width="1.6" height="25.6"/>
</g>
<g>
	<rect x="349.6" y="615.8" class="st1" width="1.6" height="25.6"/>
</g>
<g>
	<rect x="357.2" y="615.8" class="st1" width="1.6" height="25.6"/>
</g>
<g>
	<rect x="364.9" y="615.8" class="st1" width="1.6" height="25.6"/>
</g>
<g>
	<rect x="372.5" y="615.8" class="st1" width="1.6" height="25.6"/>
</g>
<g>
	<rect x="380.1" y="615.8" class="st1" width="1.6" height="25.6"/>
</g>
<g>
	<rect x="387.8" y="615.8" class="st1" width="1.6" height="25.6"/>
</g>
<g>
	<rect x="395.4" y="615.8" class="st1" width="1.6" height="25.6"/>
</g>
<g>
	<rect x="403" y="615.8" class="st1" width="1.6" height="25.6"/>
</g>
<g>
	<rect x="410.7" y="615.8" class="st1" width="1.6" height="25.6"/>
</g>
<g>
	<rect x="418.3" y="615.8" class="st1" width="1.6" height="25.6"/>
</g>
<g>
	<rect x="425.9" y="615.8" class="st1" width="1.6" height="25.6"/>
</g>
<g>
	<rect x="433.6" y="615.8" class="st1" width="1.6" height="25.6"/>
</g>
<g>
	<rect x="441.2" y="615.8" class="st1" width="1.6" height="25.6"/>
</g>
<g>
	<rect x="448.8" y="615.8" class="st1" width="1.6" height="25.6"/>
</g>
<g>
	<rect x="456.5" y="615.8" class="st1" width="1.6" height="25.6"/>
</g>
<g>
	<rect x="464.1" y="615.8" class="st1" width="1.6" height="25.6"/>
</g>
<g>
	<rect x="471.7" y="615.8" class="st1" width="1.6" height="25.6"/>
</g>
<g>
	<rect x="479.4" y="615.8" class="st1" width="1.6" height="25.6"/>
</g>
<g>
	<rect x="487" y="615.8" class="st1" width="1.6" height="25.6"/>
</g>
<g>
	<rect x="494.6" y="615.8" class="st1" width="1.6" height="25.6"/>
</g>
<g>
	<rect x="502.3" y="615.8" class="st1" width="1.6" height="25.6"/>
</g>
<g>
	<rect x="509.9" y="615.8" class="st1" width="1.6" height="25.6"/>
</g>
<g>
	<rect x="517.5" y="615.8" class="st1" width="1.6" height="25.6"/>
</g>
<g>
	<rect x="525.2" y="615.8" class="st1" width="1.6" height="25.6"/>
</g>
<g>
	<rect x="532.8" y="615.8" class="st1" width="1.6" height="25.6"/>
</g>
<g>
	<rect x="540.4" y="615.8" class="st1" width="1.6" height="25.6"/>
</g>
<g>
	<rect x="548.1" y="615.8" class="st1" width="1.6" height="25.6"/>
</g>
<g>
	<rect x="555.7" y="615.8" class="st1" width="1.6" height="25.6"/>
</g>
<g>
	<rect x="563.3" y="615.8" class="st1" width="1.6" height="25.6"/>
</g>
<g>
	<rect x="571" y="615.8" class="st1" width="1.6" height="25.6"/>
</g>
<g>
	<rect x="578.6" y="615.8" class="st1" width="1.6" height="25.6"/>
</g>
<g>
	<rect x="586.2" y="615.8" class="st1" width="1.6" height="25.6"/>
</g>
<g>
	<rect x="593.9" y="615.8" class="st1" width="1.6" height="25.6"/>
</g>
<g>
	<rect x="601.5" y="615.8" class="st1" width="1.6" height="25.6"/>
</g>
<g>
	<rect x="609.1" y="615.8" class="st1" width="1.6" height="25.6"/>
</g>
<g>
	<rect x="616.8" y="615.8" class="st1" width="1.6" height="25.6"/>
</g>
<g>
	<rect x="624.4" y="615.8" class="st1" width="1.6" height="25.6"/>
</g>
<g>
	<rect x="632" y="615.8" class="st1" width="1.6" height="25.6"/>
</g>
<g>
	<rect x="639.7" y="615.8" class="st1" width="1.6" height="25.6"/>
</g>
<g>
	<rect x="647.3" y="615.8" class="st1" width="1.6" height="25.6"/>
</g>
<g>
	<rect x="654.9" y="615.8" class="st1" width="1.6" height="25.6"/>
</g>
<g>
	<rect x="662.6" y="615.8" class="st1" width="1.6" height="25.6"/>
</g>
<g>
	<rect x="670.2" y="615.8" class="st1" width="1.6" height="25.6"/>
</g>
<g>
	<rect x="677.8" y="615.8" class="st1" width="1.6" height="25.6"/>
</g>
<g>
	<rect x="685.5" y="615.8" class="st1" width="1.6" height="25.6"/>
</g>
<g>
	<rect x="693.1" y="615.8" class="st1" width="1.6" height="25.6"/>
</g>
<g>
	<rect x="700.8" y="615.8" class="st1" width="1.6" height="25.6"/>
</g>
<g>
	<rect x="708.4" y="615.8" class="st1" width="1.6" height="25.6"/>
</g>
<g>
	<rect x="716" y="615.8" class="st1" width="1.6" height="25.6"/>
</g>
<g>
	<rect x="723.6" y="615.8" class="st1" width="1.6" height="25.6"/>
</g>
<g>
	<rect x="112.9" y="446.1" class="st1" width="1.6" height="25.6"/>
</g>
<g>
	<rect x="120.6" y="446.1" class="st1" width="1.6" height="25.6"/>
</g>
<g>
	<rect x="128.2" y="446.1" class="st1" width="1.6" height="25.6"/>
</g>
<g>
	<rect x="135.8" y="446.1" class="st1" width="1.6" height="25.6"/>
</g>
<g>
	<rect x="143.5" y="446.1" class="st1" width="1.6" height="25.6"/>
</g>
<g>
	<rect x="151.1" y="446.1" class="st1" width="1.6" height="25.6"/>
</g>
<g>
	<rect x="158.7" y="446.1" class="st1" width="1.6" height="25.6"/>
</g>
<g>
	<rect x="166.4" y="446.1" class="st1" width="1.6" height="25.6"/>
</g>
<g>
	<rect x="174" y="446.1" class="st1" width="1.6" height="25.6"/>
</g>
<g>
	<rect x="181.6" y="446.1" class="st1" width="1.6" height="25.6"/>
</g>
<g>
	<rect x="189.3" y="446.1" class="st1" width="1.6" height="25.6"/>
</g>
<g>
	<rect x="196.9" y="446.1" class="st1" width="1.6" height="25.6"/>
</g>
<g>
	<rect x="204.5" y="446.1" class="st1" width="1.6" height="25.6"/>
</g>
<g>
	<rect x="212.2" y="446.1" class="st1" width="1.6" height="25.6"/>
</g>
<g>
	<rect x="219.8" y="446.1" class="st1" width="1.6" height="25.6"/>
</g>
<g>
	<rect x="227.4" y="446.1" class="st1" width="1.6" height="25.6"/>
</g>
<g>
	<rect x="235.1" y="446.1" class="st1" width="1.6" height="25.6"/>
</g>
<g>
	<rect x="242.7" y="446.1" class="st1" width="1.6" height="25.6"/>
</g>
<g>
	<rect x="250.3" y="446.1" class="st1" width="1.6" height="25.6"/>
</g>
<g>
	<rect x="258" y="446.1" class="st1" width="1.6" height="25.6"/>
</g>
<g>
	<rect x="265.6" y="446.1" class="st1" width="1.6" height="25.6"/>
</g>
<g>
	<rect x="273.2" y="446.1" class="st1" width="1.6" height="25.6"/>
</g>
<g>
	<rect x="280.9" y="446.1" class="st1" width="1.6" height="25.6"/>
</g>
<g>
	<rect x="288.5" y="446.1" class="st1" width="1.6" height="25.6"/>
</g>
<g>
	<rect x="296.1" y="446.1" class="st1" width="1.6" height="25.6"/>
</g>
<g>
	<rect x="303.8" y="446.1" class="st1" width="1.6" height="25.6"/>
</g>
<g>
	<rect x="311.4" y="446.1" class="st1" width="1.6" height="25.6"/>
</g>
<g>
	<rect x="319" y="446.1" class="st1" width="1.6" height="25.6"/>
</g>
<g>
	<rect x="326.7" y="446.1" class="st1" width="1.6" height="25.6"/>
</g>
<g>
	<rect x="334.3" y="446.1" class="st1" width="1.6" height="25.6"/>
</g>
<g>
	<rect x="341.9" y="446.1" class="st1" width="1.6" height="25.6"/>
</g>
<g>
	<rect x="349.6" y="446.1" class="st1" width="1.6" height="25.6"/>
</g>
<g>
	<rect x="357.2" y="446.1" class="st1" width="1.6" height="25.6"/>
</g>
<g>
	<rect x="364.9" y="446.1" class="st1" width="1.6" height="25.6"/>
</g>
<g>
	<rect x="372.5" y="446.1" class="st1" width="1.6" height="25.6"/>
</g>
<g>
	<rect x="380.1" y="446.1" class="st1" width="1.6" height="25.6"/>
</g>
<g>
	<rect x="387.8" y="446.1" class="st1" width="1.6" height="25.6"/>
</g>
<g>
	<rect x="395.4" y="446.1" class="st1" width="1.6" height="25.6"/>
</g>
<g>
	<rect x="403" y="446.1" class="st1" width="1.6" height="25.6"/>
</g>
<g>
	<rect x="410.7" y="446.1" class="st1" width="1.6" height="25.6"/>
</g>
<g>
	<rect x="418.3" y="446.1" class="st1" width="1.6" height="25.6"/>
</g>
<g>
	<rect x="425.9" y="446.1" class="st1" width="1.6" height="25.6"/>
</g>
<g>
	<rect x="433.6" y="446.1" class="st1" width="1.6" height="25.6"/>
</g>
<g>
	<rect x="441.2" y="446.1" class="st1" width="1.6" height="25.6"/>
</g>
<g>
	<rect x="448.8" y="446.1" class="st1" width="1.6" height="25.6"/>
</g>
<g>
	<rect x="456.5" y="446.1" class="st1" width="1.6" height="25.6"/>
</g>
<g>
	<rect x="464.1" y="446.1" class="st1" width="1.6" height="25.6"/>
</g>
<g>
	<rect x="471.7" y="446.1" class="st1" width="1.6" height="25.6"/>
</g>
<g>
	<rect x="479.4" y="446.1" class="st1" width="1.6" height="25.6"/>
</g>
<g>
	<rect x="487" y="446.1" class="st1" width="1.6" height="25.6"/>
</g>
<g>
	<rect x="494.6" y="446.1" class="st1" width="1.6" height="25.6"/>
</g>
<g>
	<rect x="502.3" y="446.1" class="st1" width="1.6" height="25.6"/>
</g>
<g>
	<rect x="509.9" y="446.1" class="st1" width="1.6" height="25.6"/>
</g>
<g>
	<rect x="517.5" y="446.1" class="st1" width="1.6" height="25.6"/>
</g>
<g>
	<rect x="525.2" y="446.1" class="st1" width="1.6" height="25.6"/>
</g>
<g>
	<rect x="532.8" y="446.1" class="st1" width="1.6" height="25.6"/>
</g>
<g>
	<rect x="540.4" y="446.1" class="st1" width="1.6" height="25.6"/>
</g>
<g>
	<rect x="548.1" y="446.1" class="st1" width="1.6" height="25.6"/>
</g>
<g>
	<rect x="555.7" y="446.1" class="st1" width="1.6" height="25.6"/>
</g>
<g>
	<rect x="563.3" y="446.1" class="st1" width="1.6" height="25.6"/>
</g>
<g>
	<rect x="571" y="446.1" class="st1" width="1.6" height="25.6"/>
</g>
<g>
	<rect x="578.6" y="446.1" class="st1" width="1.6" height="25.6"/>
</g>
<g>
	<rect x="586.2" y="446.1" class="st1" width="1.6" height="25.6"/>
</g>
<g>
	<rect x="593.9" y="446.1" class="st1" width="1.6" height="25.6"/>
</g>
<g>
	<rect x="601.5" y="446.1" class="st1" width="1.6" height="25.6"/>
</g>
<g>
	<rect x="609.1" y="446.1" class="st1" width="1.6" height="25.6"/>
</g>
<g>
	<rect x="616.8" y="446.1" class="st1" width="1.6" height="25.6"/>
</g>
<g>
	<rect x="624.4" y="446.1" class="st1" width="1.6" height="25.6"/>
</g>
<g>
	<rect x="632" y="446.1" class="st1" width="1.6" height="25.6"/>
</g>
<g>
	<rect x="639.7" y="446.1" class="st1" width="1.6" height="25.6"/>
</g>
<g>
	<rect x="647.3" y="446.1" class="st1" width="1.6" height="25.6"/>
</g>
<g>
	<rect x="654.9" y="446.1" class="st1" width="1.6" height="25.6"/>
</g>
<g>
	<rect x="662.6" y="446.1" class="st1" width="1.6" height="25.6"/>
</g>
<g>
	<rect x="670.2" y="446.1" class="st1" width="1.6" height="25.6"/>
</g>
<g>
	<rect x="677.8" y="446.1" class="st1" width="1.6" height="25.6"/>
</g>
<g>
	<rect x="685.5" y="446.1" class="st1" width="1.6" height="25.6"/>
</g>
<g>
	<rect x="693.1" y="446.1" class="st1" width="1.6" height="25.6"/>
</g>
<g>
	<rect x="700.8" y="446.1" class="st1" width="1.6" height="25.6"/>
</g>
<g>
	<rect x="708.4" y="446.1" class="st1" width="1.6" height="25.6"/>
</g>
<g>
	<rect x="716" y="446.1" class="st1" width="1.6" height="25.6"/>
</g>
<g>
	<rect x="112.9" y="276.5" class="st1" width="1.6" height="25.6"/>
</g>
<g>
	<rect x="120.6" y="276.5" class="st1" width="1.6" height="25.6"/>
</g>
<g>
	<rect x="128.2" y="276.5" class="st1" width="1.6" height="25.6"/>
</g>
<g>
	<rect x="135.8" y="276.5" class="st1" width="1.6" height="25.6"/>
</g>
<g>
	<rect x="143.5" y="276.5" class="st1" width="1.6" height="25.6"/>
</g>
<g>
	<rect x="151.1" y="276.5" class="st1" width="1.6" height="25.6"/>
</g>
<g>
	<rect x="158.7" y="276.5" class="st1" width="1.6" height="25.6"/>
</g>
<g>
	<rect x="166.4" y="276.5" class="st1" width="1.6" height="25.6"/>
</g>
<g>
	<rect x="174" y="276.5" class="st1" width="1.6" height="25.6"/>
</g>
<g>
	<rect x="181.6" y="276.5" class="st1" width="1.6" height="25.6"/>
</g>
<g>
	<rect x="189.3" y="276.5" class="st1" width="1.6" height="25.6"/>
</g>
<g>
	<rect x="196.9" y="276.5" class="st1" width="1.6" height="25.6"/>
</g>
<g>
	<rect x="204.5" y="276.5" class="st1" width="1.6" height="25.6"/>
</g>
<g>
	<rect x="212.2" y="276.5" class="st1" width="1.6" height="25.6"/>
</g>
<g>
	<rect x="219.8" y="276.5" class="st1" width="1.6" height="25.6"/>
</g>
<g>
	<rect x="227.4" y="276.5" class="st1" width="1.6" height="25.6"/>
</g>
<g>
	<rect x="235.1" y="276.5" class="st1" width="1.6" height="25.6"/>
</g>
<g>
	<rect x="242.7" y="276.5" class="st1" width="1.6" height="25.6"/>
</g>
<g>
	<rect x="250.3" y="276.5" class="st1" width="1.6" height="25.6"/>
</g>
<g>
	<rect x="258" y="276.5" class="st1" width="1.6" height="25.6"/>
</g>
<g>
	<rect x="265.6" y="276.5" class="st1" width="1.6" height="25.6"/>
</g>
<g>
	<rect x="273.2" y="276.5" class="st1" width="1.6" height="25.6"/>
</g>
<g>
	<rect x="280.9" y="276.5" class="st1" width="1.6" height="25.6"/>
</g>
<g>
	<rect x="288.5" y="276.5" class="st1" width="1.6" height="25.6"/>
</g>
<g>
	<rect x="296.1" y="276.5" class="st1" width="1.6" height="25.6"/>
</g>
<g>
	<rect x="303.8" y="276.5" class="st1" width="1.6" height="25.6"/>
</g>
<g>
	<rect x="311.4" y="276.5" class="st1" width="1.6" height="25.6"/>
</g>
<g>
	<rect x="319" y="276.5" class="st1" width="1.6" height="25.6"/>
</g>
<g>
	<rect x="326.7" y="276.5" class="st1" width="1.6" height="25.6"/>
</g>
<g>
	<rect x="334.3" y="276.5" class="st1" width="1.6" height="25.6"/>
</g>
<g>
	<rect x="341.9" y="276.5" class="st1" width="1.6" height="25.6"/>
</g>
<g>
	<rect x="349.6" y="276.5" class="st1" width="1.6" height="25.6"/>
</g>
<g>
	<rect x="357.2" y="276.5" class="st1" width="1.6" height="25.6"/>
</g>
<g>
	<rect x="364.9" y="276.5" class="st1" width="1.6" height="25.6"/>
</g>
<g>
	<rect x="372.5" y="276.5" class="st1" width="1.6" height="25.6"/>
</g>
<g>
	<rect x="380.1" y="276.5" class="st1" width="1.6" height="25.6"/>
</g>
<g>
	<rect x="387.8" y="276.5" class="st1" width="1.6" height="25.6"/>
</g>
<g>
	<rect x="395.4" y="276.5" class="st1" width="1.6" height="25.6"/>
</g>
<g>
	<rect x="403" y="276.5" class="st1" width="1.6" height="25.6"/>
</g>
<g>
	<rect x="410.7" y="276.5" class="st1" width="1.6" height="25.6"/>
</g>
<g>
	<rect x="418.3" y="276.5" class="st1" width="1.6" height="25.6"/>
</g>
<g>
	<rect x="425.9" y="276.5" class="st1" width="1.6" height="25.6"/>
</g>
<g>
	<rect x="433.6" y="276.5" class="st1" width="1.6" height="25.6"/>
</g>
<g>
	<rect x="441.2" y="276.5" class="st1" width="1.6" height="25.6"/>
</g>
<g>
	<rect x="448.8" y="276.5" class="st1" width="1.6" height="25.6"/>
</g>
<g>
	<rect x="456.5" y="276.5" class="st1" width="1.6" height="25.6"/>
</g>
<g>
	<rect x="464.1" y="276.5" class="st1" width="1.6" height="25.6"/>
</g>
<g>
	<rect x="471.7" y="276.5" class="st1" width="1.6" height="25.6"/>
</g>
<g>
	<rect x="479.4" y="276.5" class="st1" width="1.6" height="25.6"/>
</g>
<g>
	<rect x="487" y="276.5" class="st1" width="1.6" height="25.6"/>
</g>
<g>
	<rect x="494.6" y="276.5" class="st1" width="1.6" height="25.6"/>
</g>
<g>
	<rect x="502.3" y="276.5" class="st1" width="1.6" height="25.6"/>
</g>
<g>
	<rect x="509.9" y="276.5" class="st1" width="1.6" height="25.6"/>
</g>
<g>
	<rect x="517.5" y="276.5" class="st1" width="1.6" height="25.6"/>
</g>
<g>
	<rect x="525.2" y="276.5" class="st1" width="1.6" height="25.6"/>
</g>
<g>
	<rect x="532.8" y="276.5" class="st1" width="1.6" height="25.6"/>
</g>
<g>
	<rect x="540.4" y="276.5" class="st1" width="1.6" height="25.6"/>
</g>
<g>
	<rect x="548.1" y="276.5" class="st1" width="1.6" height="25.6"/>
</g>
<g>
	<rect x="555.7" y="276.5" class="st1" width="1.6" height="25.6"/>
</g>
<g>
	<rect x="563.3" y="276.5" class="st1" width="1.6" height="25.6"/>
</g>
<g>
	<rect x="571" y="276.5" class="st1" width="1.6" height="25.6"/>
</g>
<g>
	<rect x="578.6" y="276.5" class="st1" width="1.6" height="25.6"/>
</g>
<g>
	<rect x="586.2" y="276.5" class="st1" width="1.6" height="25.6"/>
</g>
<g>
	<rect x="593.9" y="276.5" class="st1" width="1.6" height="25.6"/>
</g>
<g>
	<rect x="601.5" y="276.5" class="st1" width="1.6" height="25.6"/>
</g>
<g>
	<rect x="609.1" y="276.5" class="st1" width="1.6" height="25.6"/>
</g>
<g>
	<rect x="616.8" y="276.5" class="st1" width="1.6" height="25.6"/>
</g>
<g>
	<rect x="624.4" y="276.5" class="st1" width="1.6" height="25.6"/>
</g>
<g>
	<rect x="632" y="276.5" class="st1" width="1.6" height="25.6"/>
</g>
<g>
	<rect x="639.7" y="276.5" class="st1" width="1.6" height="25.6"/>
</g>
<g>
	<rect x="647.3" y="276.5" class="st1" width="1.6" height="25.6"/>
</g>
<g>
	<rect x="654.9" y="276.5" class="st1" width="1.6" height="25.6"/>
</g>
<g>
	<rect x="662.6" y="276.5" class="st1" width="1.6" height="25.6"/>
</g>
<g>
	<rect x="670.2" y="276.5" class="st1" width="1.6" height="25.6"/>
</g>
<g>
	<rect x="112.9" y="210.8" class="st1" width="1.6" height="25.6"/>
</g>
<g>
	<rect x="120.6" y="210.8" class="st1" width="1.6" height="25.6"/>
</g>
<g>
	<rect x="128.2" y="210.8" class="st1" width="1.6" height="25.6"/>
</g>
<g>
	<rect x="135.8" y="210.8" class="st1" width="1.6" height="25.6"/>
</g>
<g>
	<rect x="143.5" y="210.8" class="st1" width="1.6" height="25.6"/>
</g>
<g>
	<rect x="151.1" y="210.8" class="st1" width="1.6" height="25.6"/>
</g>
<g>
	<rect x="158.7" y="210.8" class="st1" width="1.6" height="25.6"/>
</g>
<g>
	<rect x="166.4" y="210.8" class="st1" width="1.6" height="25.6"/>
</g>
<g>
	<rect x="174" y="210.8" class="st1" width="1.6" height="25.6"/>
</g>
<g>
	<rect x="181.6" y="210.8" class="st1" width="1.6" height="25.6"/>
</g>
<g>
	<rect x="189.3" y="210.8" class="st1" width="1.6" height="25.6"/>
</g>
<g>
	<rect x="196.9" y="210.8" class="st1" width="1.6" height="25.6"/>
</g>
<g>
	<rect x="204.5" y="210.8" class="st1" width="1.6" height="25.6"/>
</g>
<g>
	<rect x="212.2" y="210.8" class="st1" width="1.6" height="25.6"/>
</g>
<g>
	<rect x="219.8" y="210.8" class="st1" width="1.6" height="25.6"/>
</g>
<g>
	<rect x="227.4" y="210.8" class="st1" width="1.6" height="25.6"/>
</g>
<g>
	<rect x="235.1" y="210.8" class="st1" width="1.6" height="25.6"/>
</g>
<g>
	<rect x="242.7" y="210.8" class="st1" width="1.6" height="25.6"/>
</g>
<g>
	<rect x="250.3" y="210.8" class="st1" width="1.6" height="25.6"/>
</g>
<g>
	<rect x="258" y="210.8" class="st1" width="1.6" height="25.6"/>
</g>
<g>
	<rect x="265.6" y="210.8" class="st1" width="1.6" height="25.6"/>
</g>
<g>
	<rect x="273.2" y="210.8" class="st1" width="1.6" height="25.6"/>
</g>
<g>
	<rect x="280.9" y="210.8" class="st1" width="1.6" height="25.6"/>
</g>
<g>
	<rect x="288.5" y="210.8" class="st1" width="1.6" height="25.6"/>
</g>
<g>
	<rect x="296.1" y="210.8" class="st1" width="1.6" height="25.6"/>
</g>
<g>
	<rect x="303.8" y="210.8" class="st1" width="1.6" height="25.6"/>
</g>
<g>
	<rect x="311.4" y="210.8" class="st1" width="1.6" height="25.6"/>
</g>
<g>
	<rect x="319" y="210.8" class="st1" width="1.6" height="25.6"/>
</g>
<g>
	<rect x="326.7" y="210.8" class="st1" width="1.6" height="25.6"/>
</g>
<g>
	<rect x="334.3" y="210.8" class="st1" width="1.6" height="25.6"/>
</g>
<g>
	<rect x="341.9" y="210.8" class="st1" width="1.6" height="25.6"/>
</g>
<g>
	<rect x="349.6" y="210.8" class="st2" width="1.6" height="25.6"/>
	<rect x="349.6" y="210.8" class="st2" width="1.6" height="25.6"/>
</g>
<g>
	<rect x="357.2" y="210.8" class="st1" width="1.6" height="25.6"/>
</g>
<g>
	<rect x="364.9" y="210.8" class="st1" width="1.6" height="25.6"/>
</g>
<g>
	<rect x="372.5" y="210.8" class="st1" width="1.6" height="25.6"/>
</g>
<g>
	<rect x="380.1" y="210.8" class="st1" width="1.6" height="25.6"/>
</g>
<g>
	<rect x="387.8" y="210.8" class="st1" width="1.6" height="25.6"/>
</g>
<g>
	<rect x="395.4" y="210.8" class="st1" width="1.6" height="25.6"/>
</g>
<g>
	<rect x="403" y="210.8" class="st1" width="1.6" height="25.6"/>
</g>
<g>
	<rect x="410.7" y="210.8" class="st1" width="1.6" height="25.6"/>
</g>
<g>
	<rect x="418.3" y="210.8" class="st1" width="1.6" height="25.6"/>
</g>
<g>
	<rect x="425.9" y="210.8" class="st1" width="1.6" height="25.6"/>
</g>
<g>
	<rect x="433.6" y="210.8" class="st1" width="1.6" height="25.6"/>
</g>
<g>
	<rect x="441.2" y="210.8" class="st1" width="1.6" height="25.6"/>
</g>
<g>
	<rect x="448.8" y="210.8" class="st1" width="1.6" height="25.6"/>
</g>
<g>
	<rect x="456.5" y="210.8" class="st1" width="1.6" height="25.6"/>
</g>
<g>
	<rect x="464.1" y="210.8" class="st1" width="1.6" height="25.6"/>
</g>
<g>
	<rect x="471.7" y="210.8" class="st1" width="1.6" height="25.6"/>
</g>
<g>
	<rect x="479.4" y="210.8" class="st1" width="1.6" height="25.6"/>
</g>
<g>
	<rect x="487" y="210.8" class="st1" width="1.6" height="25.6"/>
</g>
<g>
	<rect x="494.6" y="210.8" class="st1" width="1.6" height="25.6"/>
</g>
<g>
	<rect x="502.3" y="210.8" class="st1" width="1.6" height="25.6"/>
</g>
<g>
	<rect x="509.9" y="210.8" class="st1" width="1.6" height="25.6"/>
</g>
<g>
	<rect x="517.5" y="210.8" class="st1" width="1.6" height="25.6"/>
</g>
<g>
	<rect x="525.2" y="210.8" class="st1" width="1.6" height="25.6"/>
</g>
<g>
	<rect x="532.8" y="210.8" class="st1" width="1.6" height="25.6"/>
</g>
<g>
	<rect x="540.4" y="210.8" class="st1" width="1.6" height="25.6"/>
</g>
<g>
	<rect x="548.1" y="210.8" class="st1" width="1.6" height="25.6"/>
</g>
<g>
	<rect x="555.7" y="210.8" class="st1" width="1.6" height="25.6"/>
</g>
<g>
	<rect x="563.3" y="210.8" class="st1" width="1.6" height="25.6"/>
</g>
<g>
	<rect x="571" y="210.8" class="st1" width="1.6" height="25.6"/>
</g>
<g>
	<rect x="578.6" y="210.8" class="st1" width="1.6" height="25.6"/>
</g>
<g>
	<rect x="586.2" y="210.8" class="st1" width="1.6" height="25.6"/>
</g>
<g>
	<rect x="593.9" y="210.8" class="st1" width="1.6" height="25.6"/>
</g>
<g>
	<rect x="601.5" y="210.8" class="st1" width="1.6" height="25.6"/>
</g>
<g>
	<rect x="609.1" y="210.8" class="st1" width="1.6" height="25.6"/>
</g>
<g>
	<rect x="616.8" y="210.8" class="st1" width="1.6" height="25.6"/>
</g>
<g>
	<rect x="624.4" y="210.8" class="st1" width="1.6" height="25.6"/>
</g>
<g>
	<rect x="632" y="210.8" class="st1" width="1.6" height="25.6"/>
</g>
<g>
	<rect x="639.7" y="210.8" class="st1" width="1.6" height="25.6"/>
</g>
<g>
	<rect x="647.3" y="210.8" class="st1" width="1.6" height="25.6"/>
</g>
<g>
	<rect x="654.9" y="210.8" class="st1" width="1.6" height="25.6"/>
</g>
<g>
	<rect x="662.6" y="210.8" class="st1" width="1.6" height="25.6"/>
</g>
<g>
	<rect x="670.2" y="210.8" class="st1" width="1.6" height="25.6"/>
</g>
<rect x="-129.4" y="302.1" class="st0" width="900" height="900"/>
<text transform="matrix(1 0 0 1 1.550293e-02 802.16)" class="st3 st4">_complex_dates</text>
<rect x="27.5" y="623.1" class="st0" width="52.6" height="13"/>
<text transform="matrix(1 0 0 1 27.5156 632.5195)" class="st3 st4">1920-1945</text>
<rect x="27.5" y="453.4" class="st0" width="52.6" height="13"/>
<text transform="matrix(1 0 0 1 27.5156 462.8701)" class="st3 st4">1946-1970</text>
<rect x="27.5" y="283.8" class="st0" width="52.6" height="13"/>
<text transform="matrix(1 0 0 1 27.5156 293.2305)" class="st3 st4">1971-1995</text>
<rect x="27.5" y="218.2" class="st0" width="52.6" height="13"/>
<text transform="matrix(1 0 0 1 27.5156 227.5898)" class="st3 st4">1996-2020</text>
</svg>
