<?xml version="1.0" encoding="utf-8"?>
<!-- Generator: Adobe Illustrator 27.2.0, SVG Export Plug-In . SVG Version: 6.00 Build 0)  -->
<svg version="1.1" id="Layer_1" xmlns="http://www.w3.org/2000/svg" xmlns:xlink="http://www.w3.org/1999/xlink" x="0px" y="0px"
	 viewBox="0 0 350 96" style="enable-background:new 0 0 350 96;" xml:space="preserve">
<style type="text/css">
	.st0{fill:#F9DCAB;}
	.st1{fill:#F8766D;}
	.st2{font-family:'ArialMT';}
	.st3{font-size:8.0156px;}
	.st4{fill:#D39200;}
	.st5{fill:#93AA00;}
	.st6{fill:#00BA38;}
	.st7{fill:#00C19F;}
	.st8{fill:#00B9E3;}
	.st9{fill:#619CFF;}
	.st10{fill:#DB72FB;}
	.st11{fill:#FF61C3;}
</style>
<rect x="-5" y="-8" class="st0" width="359" height="108"/>
<rect x="4.7" y="12.8" class="st1" width="22.3" height="9.2"/>
<g>
	<text transform="matrix(1.0063 0 0 1 40.4321 14.713)" class="st1 st2 st3">Autobio/ Bio/</text>
	<text transform="matrix(1.0063 0 0 1 40.4321 24.3131)" class="st1 st2 st3">Memoir</text>
</g>
<rect x="260.2" y="43.6" class="st4" width="22.3" height="9.2"/>
<g>
	<text transform="matrix(1.0063 0 0 1 295.9078 45.5552)" class="st4 st2 st3">Children&apos;s</text>
	<text transform="matrix(1.0063 0 0 1 295.9078 55.1558)" class="st4 st2 st3">Book</text>
</g>
<rect x="187.3" y="12.8" class="st5" width="22.3" height="9.2"/>
<text transform="matrix(1.0063 0 0 1 223.0112 19.5129)" class="st5 st2 st3">Fiction</text>
<rect x="260.2" y="12.8" class="st6" width="22.3" height="9.2"/>
<g>
	<text transform="matrix(1.0063 0 0 1 295.9078 14.713)" class="st6 st2 st3">Literature and</text>
	<text transform="matrix(1.0063 0 0 1 295.9078 24.3131)" class="st6 st2 st3">Culture </text>
</g>
<rect x="98.4" y="12.8" class="st7" width="22.3" height="9.2"/>
<text transform="matrix(1.0063 0 0 1 135.3175 19.513)" class="st7 st2 st3">Non-fiction</text>
<rect x="4.7" y="78.9" class="st8" width="22.3" height="9.2"/>
<g>
	<text transform="matrix(1.0063 0 0 1 40.4199 80.6113)" class="st8 st2 st3">Poetry/ Song/</text>
	<text transform="matrix(1.0063 0 0 1 40.4199 90.2109)" class="st8 st2 st3">Drama</text>
</g>
<rect x="187.3" y="43.6" class="st9" width="22.3" height="9.2"/>
<text transform="matrix(1.0063 0 0 1 220.4239 50.3557)" class="st9 st2 st3">Political</text>
<rect x="4.7" y="43.6" class="st10" width="22.3" height="9.2"/>
<g>
	<text transform="matrix(1.0063 0 0 1 40.4199 45.555)" class="st10 st2 st3">Religious-</text>
	<text transform="matrix(1.0063 0 0 1 40.4199 55.1555)" class="st10 st2 st3">related</text>
</g>
<rect x="98.4" y="43.6" class="st11" width="22.3" height="9.2"/>
<text transform="matrix(1.0063 0 0 1 134.9292 50.3555)" class="st11 st2 st3">Unspecified</text>
</svg>
