<?xml version="1.0" encoding="utf-8"?>
<!-- Generator: Adobe Illustrator 27.2.0, SVG Export Plug-In . SVG Version: 6.00 Build 0)  -->
<svg version="1.1" id="Layer_1" xmlns="http://www.w3.org/2000/svg" xmlns:xlink="http://www.w3.org/1999/xlink" x="0px" y="0px"
	 viewBox="0 0 750 72" style="enable-background:new 0 0 750 72;" xml:space="preserve">
<style type="text/css">
	.st0{fill:#F9DCAB;}
	.st1{fill:#F8766D;}
	.st2{font-family:'ArialMT';}
	.st3{font-size:8.8px;}
	.st4{fill:#D39200;}
	.st5{fill:#93AA00;}
	.st6{fill:#00BA38;}
	.st7{fill:#00C19F;}
	.st8{fill:#00B9E3;}
	.st9{fill:#619CFF;}
	.st10{fill:#DB72FB;}
	.st11{fill:#FF61C3;}
	.st12{fill:none;}
</style>
<rect x="-7.5" y="-2.5" class="st0" width="765" height="81.5"/>
<g>
	<rect x="98" y="0.8" class="st1" width="10" height="24.5"/>
	<text transform="matrix(1 0 0 1 116.412 16.22)" class="st1 st2 st3">Autobio/ Bio/</text>
	<text transform="matrix(1 0 0 1 116.412 26.82)" class="st1 st2 st3">Memoir</text>
</g>
<g>
	<rect x="242.1" y="0.8" class="st4" width="10" height="24.5"/>
	<text transform="matrix(1 0 0 1 260.5175 16.2102)" class="st4 st2 st3">Children&apos;s</text>
	<text transform="matrix(1 0 0 1 260.5175 26.8102)" class="st4 st2 st3">book</text>
</g>
<g>
	<rect x="364.8" y="3" class="st5" width="10" height="24.5"/>
	<text transform="matrix(1 0 0 1 384.1764 18.3334)" class="st5 st2 st3">Fiction</text>
</g>
<g>
	<rect x="454" y="0.9" class="st6" width="10" height="24.5"/>
	<text transform="matrix(1 0 0 1 472.3905 16.1903)" class="st6 st2 st3">Literature and </text>
	<text transform="matrix(1 0 0 1 472.3905 26.7903)" class="st6 st2 st3">Culture</text>
</g>
<g>
	<rect x="601.4" y="3" class="st7" width="10" height="24.5"/>
	<text transform="matrix(1 0 0 1 619.8155 18.2933)" class="st7 st2 st3">Non-fiction</text>
</g>
<g>
	<rect x="187.3" y="42.9" class="st8" width="10" height="24.5"/>
	<text transform="matrix(1 0 0 1 205.6745 58.2744)" class="st8 st2 st3">Poetry/ Song/</text>
	<text transform="matrix(1 0 0 1 205.6745 68.8744)" class="st8 st2 st3">Drama</text>
</g>
<g>
	<rect x="289.6" y="45" class="st9" width="10" height="24.5"/>
	<text transform="matrix(1 0 0 1 308.0294 60.4077)" class="st9 st2 st3">Political</text>
</g>
<g>
	<rect x="400.1" y="45" class="st10" width="10" height="24.5"/>
	<text transform="matrix(1 0 0 1 418.4577 60.3878)" class="st10 st2 st3">Religious</text>
	<text transform="matrix(1 0 0 1 418.4577 70.9878)" class="st10 st2 st3">related</text>
</g>
<g>
	<rect x="486.4" y="45" class="st11" width="10" height="24.5"/>
	<text transform="matrix(1 0 0 1 504.7527 60.3678)" class="st11 st2 st3">Unspecified</text>
</g>
<g id="ai2html-settings">
	<rect x="-450" y="-189" class="st12" width="400" height="418"/>
	<text transform="matrix(1 0 0 1 -450 -178.3501)" class="st2" style="font-size:15px;">ai2html-settings</text>
	<text transform="matrix(1 0 0 1 -450 -159.3501)" class="st2" style="font-size:15px;">settings_version: 0.115.5</text>
	<text transform="matrix(1 0 0 1 -450 -140.3501)" class="st2" style="font-size:15px;">image_format: auto</text>
	<text transform="matrix(1 0 0 1 -450 -121.3501)" class="st2" style="font-size:15px;">responsiveness: fixed</text>
	<text transform="matrix(1 0 0 1 -450 -102.3501)" class="st2" style="font-size:15px;">output: one-file</text>
	<text transform="matrix(1 0 0 1 -450 -83.3501)" class="st2" style="font-size:15px;">html_output_path: /ai2html-output/</text>
	<text transform="matrix(1 0 0 1 -450 -64.3501)" class="st2" style="font-size:15px;">html_output_extension: .html</text>
	<text transform="matrix(1 0 0 1 -450 -45.3501)" class="st2" style="font-size:15px;">image_output_path: </text>
	<text transform="matrix(1 0 0 1 -450 -26.3501)" class="st2" style="font-size:15px;">local_preview_template: </text>
	<text transform="matrix(1 0 0 1 -450 -7.3501)" class="st2" style="font-size:15px;">png_number_of_colors: 128</text>
	<text transform="matrix(1 0 0 1 -450 11.6499)" class="st2" style="font-size:15px;">jpg_quality: 60</text>
	<text transform="matrix(1 0 0 1 -450 30.6499)" class="st2" style="font-size:15px;">headline: </text>
	<text transform="matrix(1 0 0 1 -450 49.6499)" class="st2" style="font-size:15px;">leadin: </text>
	<text transform="matrix(1 0 0 1 -450 68.6499)" class="st2" style="font-size:15px;">notes: </text>
	<text transform="matrix(1 0 0 1 -450 87.6499)" class="st2" style="font-size:15px;">sources: </text>
	<text transform="matrix(1 0 0 1 -450 106.6499)" class="st2" style="font-size:15px;">credit: </text>
</g>
</svg>
