<?xml version="1.0" encoding="utf-8"?>
<!-- Generator: Adobe Illustrator 27.2.0, SVG Export Plug-In . SVG Version: 6.00 Build 0)  -->
<svg version="1.1" id="Layer_1" xmlns="http://www.w3.org/2000/svg" xmlns:xlink="http://www.w3.org/1999/xlink" x="0px" y="0px"
	 viewBox="0 0 750 300" style="enable-background:new 0 0 750 300;" xml:space="preserve">
<style type="text/css">
	.st0{fill:#F9DCAB;stroke:#000000;stroke-miterlimit:10;}
	.st1{opacity:0.55;fill:#C49A2C;enable-background:new    ;}
	.st2{fill:none;stroke:#C49036;stroke-width:10;stroke-miterlimit:10;}
	.st3{fill:none;}
	.st4{font-family:'Arial-BoldMT';}
	.st5{font-size:12px;}
</style>
<rect x="-9.5" y="-37" class="st0" width="769" height="374"/>
<rect x="108.7" y="89.2" class="st1" width="10" height="25.6"/>
<rect x="116.4" y="89.2" class="st1" width="10" height="25.6"/>
<rect x="124" y="89.2" class="st1" width="10" height="25.6"/>
<rect x="131.6" y="89.2" class="st1" width="10" height="25.6"/>
<rect x="139.3" y="89.2" class="st1" width="10" height="25.6"/>
<rect x="146.9" y="89.2" class="st1" width="10" height="25.6"/>
<rect x="154.5" y="89.2" class="st1" width="10" height="25.6"/>
<rect x="162.2" y="89.2" class="st1" width="10" height="25.6"/>
<rect x="169.8" y="89.2" class="st1" width="10" height="25.6"/>
<rect x="177.4" y="89.2" class="st1" width="10" height="25.6"/>
<rect x="185.1" y="89.2" class="st1" width="10" height="25.6"/>
<rect x="192.7" y="89.2" class="st1" width="10" height="25.6"/>
<rect x="200.3" y="89.2" class="st1" width="10" height="25.6"/>
<rect x="208" y="89.2" class="st1" width="10" height="25.6"/>
<rect x="215.6" y="89.2" class="st1" width="10" height="25.6"/>
<rect x="223.2" y="89.2" class="st1" width="10" height="25.6"/>
<rect x="230.9" y="89.2" class="st1" width="10" height="25.6"/>
<rect x="238.5" y="89.2" class="st1" width="10" height="25.6"/>
<rect x="246.1" y="89.2" class="st1" width="10" height="25.6"/>
<rect x="253.8" y="89.2" class="st1" width="10" height="25.6"/>
<rect x="261.4" y="89.2" class="st1" width="10" height="25.6"/>
<rect x="269" y="89.2" class="st1" width="10" height="25.6"/>
<rect x="276.7" y="89.2" class="st1" width="10" height="25.6"/>
<rect x="284.3" y="89.2" class="st1" width="10" height="25.6"/>
<rect x="291.9" y="89.2" class="st1" width="10" height="25.6"/>
<rect x="299.6" y="89.2" class="st1" width="10" height="25.6"/>
<rect x="307.2" y="89.2" class="st1" width="10" height="25.6"/>
<rect x="314.8" y="89.2" class="st1" width="10" height="25.6"/>
<rect x="322.5" y="89.2" class="st1" width="10" height="25.6"/>
<rect x="330.1" y="89.2" class="st1" width="10" height="25.6"/>
<rect x="337.7" y="89.2" class="st1" width="10" height="25.6"/>
<rect x="345.4" y="89.2" class="st1" width="10" height="25.6"/>
<rect x="353" y="89.2" class="st1" width="10" height="25.6"/>
<rect x="360.7" y="89.2" class="st1" width="10" height="25.6"/>
<rect x="368.3" y="89.2" class="st1" width="10" height="25.6"/>
<rect x="375.9" y="89.2" class="st1" width="10" height="25.6"/>
<rect x="383.6" y="89.2" class="st1" width="10" height="25.6"/>
<rect x="391.2" y="89.2" class="st1" width="10" height="25.6"/>
<rect x="398.8" y="89.2" class="st1" width="10" height="25.6"/>
<rect x="406.5" y="89.2" class="st1" width="10" height="25.6"/>
<rect x="414.1" y="89.2" class="st1" width="10" height="25.6"/>
<rect x="421.7" y="89.2" class="st1" width="10" height="25.6"/>
<rect x="429.4" y="89.2" class="st1" width="10" height="25.6"/>
<rect x="437" y="89.2" class="st1" width="10" height="25.6"/>
<rect x="444.6" y="89.2" class="st1" width="10" height="25.6"/>
<rect x="452.3" y="89.2" class="st1" width="10" height="25.6"/>
<rect x="459.9" y="89.2" class="st1" width="10" height="25.6"/>
<rect x="467.5" y="89.2" class="st1" width="10" height="25.6"/>
<rect x="475.2" y="89.2" class="st1" width="10" height="25.6"/>
<rect x="482.8" y="89.2" class="st1" width="10" height="25.6"/>
<rect x="490.4" y="89.2" class="st1" width="10" height="25.6"/>
<rect x="498.1" y="89.2" class="st1" width="10" height="25.6"/>
<rect x="505.7" y="89.2" class="st1" width="10" height="25.6"/>
<rect x="513.3" y="89.2" class="st1" width="10" height="25.6"/>
<rect x="521" y="89.2" class="st1" width="10" height="25.6"/>
<rect x="528.6" y="89.2" class="st1" width="10" height="25.6"/>
<rect x="536.2" y="89.2" class="st1" width="10" height="25.6"/>
<rect x="543.9" y="89.2" class="st1" width="10" height="25.6"/>
<rect x="551.5" y="89.2" class="st1" width="10" height="25.6"/>
<rect x="559.1" y="89.2" class="st1" width="10" height="25.6"/>
<rect x="566.8" y="89.2" class="st1" width="10" height="25.6"/>
<rect x="574.4" y="89.2" class="st1" width="10" height="25.6"/>
<rect x="582" y="89.2" class="st1" width="10" height="25.6"/>
<rect x="589.7" y="89.2" class="st1" width="10" height="25.6"/>
<rect x="597.3" y="89.2" class="st1" width="10" height="25.6"/>
<rect x="604.9" y="89.2" class="st1" width="10" height="25.6"/>
<rect x="612.6" y="89.2" class="st1" width="10" height="25.6"/>
<rect x="620.2" y="89.2" class="st1" width="10" height="25.6"/>
<rect x="627.8" y="89.2" class="st1" width="10" height="25.6"/>
<rect x="635.5" y="89.2" class="st1" width="10" height="25.6"/>
<rect x="643.1" y="89.2" class="st1" width="10" height="25.6"/>
<rect x="650.7" y="89.2" class="st1" width="10" height="25.6"/>
<rect x="658.4" y="89.2" class="st1" width="10" height="25.6"/>
<rect x="666" y="89.2" class="st1" width="10" height="25.6"/>
<line class="st2" x1="102.6" y1="121.2" x2="732.6" y2="121.2"/>
<rect x="108.7" y="143.6" class="st1" width="10" height="25.6"/>
<rect x="116.4" y="143.6" class="st1" width="10" height="25.6"/>
<rect x="124" y="143.6" class="st1" width="10" height="25.6"/>
<rect x="131.6" y="143.6" class="st1" width="10" height="25.6"/>
<rect x="139.3" y="143.6" class="st1" width="10" height="25.6"/>
<rect x="146.9" y="143.6" class="st1" width="10" height="25.6"/>
<rect x="154.5" y="143.6" class="st1" width="10" height="25.6"/>
<rect x="162.2" y="143.6" class="st1" width="10" height="25.6"/>
<rect x="169.8" y="143.6" class="st1" width="10" height="25.6"/>
<rect x="177.4" y="143.6" class="st1" width="10" height="25.6"/>
<rect x="185.1" y="143.6" class="st1" width="10" height="25.6"/>
<rect x="192.7" y="143.6" class="st1" width="10" height="25.6"/>
<rect x="200.3" y="143.6" class="st1" width="10" height="25.6"/>
<rect x="208" y="143.6" class="st1" width="10" height="25.6"/>
<rect x="215.6" y="143.6" class="st1" width="10" height="25.6"/>
<rect x="223.2" y="143.6" class="st1" width="10" height="25.6"/>
<rect x="230.9" y="143.6" class="st1" width="10" height="25.6"/>
<rect x="238.5" y="143.6" class="st1" width="10" height="25.6"/>
<rect x="246.1" y="143.6" class="st1" width="10" height="25.6"/>
<rect x="253.8" y="143.6" class="st1" width="10" height="25.6"/>
<rect x="261.4" y="143.6" class="st1" width="10" height="25.6"/>
<rect x="269" y="143.6" class="st1" width="10" height="25.6"/>
<rect x="276.7" y="143.6" class="st1" width="10" height="25.6"/>
<rect x="284.3" y="143.6" class="st1" width="10" height="25.6"/>
<rect x="291.9" y="143.6" class="st1" width="10" height="25.6"/>
<rect x="299.6" y="143.6" class="st1" width="10" height="25.6"/>
<rect x="307.2" y="143.6" class="st1" width="10" height="25.6"/>
<rect x="314.8" y="143.6" class="st1" width="10" height="25.6"/>
<rect x="322.5" y="143.6" class="st1" width="10" height="25.6"/>
<rect x="330.1" y="143.6" class="st1" width="10" height="25.6"/>
<rect x="337.7" y="143.6" class="st1" width="10" height="25.6"/>
<rect x="345.4" y="143.6" class="st1" width="10" height="25.6"/>
<rect x="353" y="143.6" class="st1" width="10" height="25.6"/>
<rect x="360.7" y="143.6" class="st1" width="10" height="25.6"/>
<rect x="368.3" y="143.6" class="st1" width="10" height="25.6"/>
<rect x="375.9" y="143.6" class="st1" width="10" height="25.6"/>
<rect x="383.6" y="143.6" class="st1" width="10" height="25.6"/>
<rect x="391.2" y="143.6" class="st1" width="10" height="25.6"/>
<rect x="398.8" y="143.6" class="st1" width="10" height="25.6"/>
<rect x="406.5" y="143.6" class="st1" width="10" height="25.6"/>
<rect x="414.1" y="143.6" class="st1" width="10" height="25.6"/>
<rect x="421.7" y="143.6" class="st1" width="10" height="25.6"/>
<rect x="429.4" y="143.6" class="st1" width="10" height="25.6"/>
<rect x="437" y="143.6" class="st1" width="10" height="25.6"/>
<rect x="444.6" y="143.6" class="st1" width="10" height="25.6"/>
<rect x="452.3" y="143.6" class="st1" width="10" height="25.6"/>
<rect x="459.9" y="143.6" class="st1" width="10" height="25.6"/>
<rect x="467.5" y="143.6" class="st1" width="10" height="25.6"/>
<rect x="475.2" y="143.6" class="st1" width="10" height="25.6"/>
<rect x="482.8" y="143.6" class="st1" width="10" height="25.6"/>
<rect x="490.4" y="143.6" class="st1" width="10" height="25.6"/>
<rect x="498.1" y="143.6" class="st1" width="10" height="25.6"/>
<rect x="505.7" y="143.6" class="st1" width="10" height="25.6"/>
<rect x="513.3" y="143.6" class="st1" width="10" height="25.6"/>
<rect x="521" y="143.6" class="st1" width="10" height="25.6"/>
<rect x="528.6" y="143.6" class="st1" width="10" height="25.6"/>
<rect x="536.2" y="143.6" class="st1" width="10" height="25.6"/>
<rect x="543.9" y="143.6" class="st1" width="10" height="25.6"/>
<rect x="551.5" y="143.6" class="st1" width="10" height="25.6"/>
<rect x="559.1" y="143.6" class="st1" width="10" height="25.6"/>
<rect x="566.8" y="143.6" class="st1" width="10" height="25.6"/>
<rect x="574.4" y="143.6" class="st1" width="10" height="25.6"/>
<rect x="582" y="143.6" class="st1" width="10" height="25.6"/>
<rect x="589.7" y="143.6" class="st1" width="10" height="25.6"/>
<rect x="597.3" y="143.6" class="st1" width="10" height="25.6"/>
<rect x="604.9" y="143.6" class="st1" width="10" height="25.6"/>
<rect x="612.6" y="143.6" class="st1" width="10" height="25.6"/>
<rect x="620.2" y="143.6" class="st1" width="10" height="25.6"/>
<rect x="627.8" y="143.6" class="st1" width="10" height="25.6"/>
<rect x="635.5" y="143.6" class="st1" width="10" height="25.6"/>
<rect x="643.1" y="143.6" class="st1" width="10" height="25.6"/>
<rect x="650.7" y="143.6" class="st1" width="10" height="25.6"/>
<rect x="658.4" y="143.6" class="st1" width="10" height="25.6"/>
<rect x="666" y="143.6" class="st1" width="10" height="25.6"/>
<rect x="673.6" y="143.6" class="st1" width="10" height="25.6"/>
<rect x="681.3" y="143.6" class="st1" width="10" height="25.6"/>
<rect x="688.9" y="143.6" class="st1" width="10" height="25.6"/>
<rect x="696.6" y="143.6" class="st1" width="10" height="25.6"/>
<rect x="704.2" y="143.6" class="st1" width="10" height="25.6"/>
<rect x="711.8" y="143.6" class="st1" width="10" height="25.6"/>
<line class="st2" x1="102.6" y1="175.5" x2="732.6" y2="175.5"/>
<rect x="108.7" y="195.8" class="st1" width="10" height="25.6"/>
<rect x="116.4" y="195.8" class="st1" width="10" height="25.6"/>
<rect x="124" y="195.8" class="st1" width="10" height="25.6"/>
<rect x="131.6" y="195.9" class="st1" width="10" height="25.6"/>
<rect x="139.3" y="195.9" class="st1" width="10" height="25.6"/>
<rect x="146.9" y="195.9" class="st1" width="10" height="25.6"/>
<rect x="154.5" y="195.9" class="st1" width="10" height="25.6"/>
<rect x="162.2" y="195.9" class="st1" width="10" height="25.6"/>
<rect x="169.8" y="195.9" class="st1" width="10" height="25.6"/>
<rect x="177.4" y="195.9" class="st1" width="10" height="25.6"/>
<rect x="185.1" y="195.9" class="st1" width="10" height="25.6"/>
<rect x="192.7" y="195.9" class="st1" width="10" height="25.6"/>
<rect x="200.3" y="195.9" class="st1" width="10" height="25.6"/>
<rect x="208" y="195.9" class="st1" width="10" height="25.6"/>
<rect x="215.6" y="195.9" class="st1" width="10" height="25.6"/>
<rect x="223.2" y="195.9" class="st1" width="10" height="25.6"/>
<rect x="230.9" y="195.9" class="st1" width="10" height="25.6"/>
<rect x="238.5" y="195.9" class="st1" width="10" height="25.6"/>
<rect x="246.1" y="195.9" class="st1" width="10" height="25.6"/>
<rect x="253.8" y="195.9" class="st1" width="10" height="25.6"/>
<rect x="261.4" y="195.9" class="st1" width="10" height="25.6"/>
<rect x="269" y="195.9" class="st1" width="10" height="25.6"/>
<rect x="276.7" y="195.9" class="st1" width="10" height="25.6"/>
<rect x="284.3" y="195.9" class="st1" width="10" height="25.6"/>
<rect x="291.9" y="195.9" class="st1" width="10" height="25.6"/>
<rect x="299.6" y="195.9" class="st1" width="10" height="25.6"/>
<rect x="307.2" y="195.9" class="st1" width="10" height="25.6"/>
<rect x="314.8" y="195.9" class="st1" width="10" height="25.6"/>
<rect x="322.5" y="195.9" class="st1" width="10" height="25.6"/>
<rect x="330.1" y="195.9" class="st1" width="10" height="25.6"/>
<rect x="337.7" y="195.9" class="st1" width="10" height="25.6"/>
<rect x="345.4" y="195.9" class="st1" width="10" height="25.6"/>
<rect x="353" y="195.9" class="st1" width="10" height="25.6"/>
<rect x="360.7" y="195.9" class="st1" width="10" height="25.6"/>
<rect x="368.3" y="195.9" class="st1" width="10" height="25.6"/>
<rect x="375.9" y="195.9" class="st1" width="10" height="25.6"/>
<rect x="383.6" y="195.9" class="st1" width="10" height="25.6"/>
<rect x="391.2" y="195.9" class="st1" width="10" height="25.6"/>
<rect x="398.8" y="195.9" class="st1" width="10" height="25.6"/>
<rect x="406.5" y="195.9" class="st1" width="10" height="25.6"/>
<rect x="414.1" y="195.9" class="st1" width="10" height="25.6"/>
<rect x="421.7" y="195.9" class="st1" width="10" height="25.6"/>
<rect x="429.4" y="195.9" class="st1" width="10" height="25.6"/>
<rect x="437" y="195.9" class="st1" width="10" height="25.6"/>
<rect x="444.6" y="195.9" class="st1" width="10" height="25.6"/>
<rect x="452.3" y="195.9" class="st1" width="10" height="25.6"/>
<rect x="459.9" y="195.9" class="st1" width="10" height="25.6"/>
<rect x="467.5" y="195.9" class="st1" width="10" height="25.6"/>
<rect x="475.2" y="195.9" class="st1" width="10" height="25.6"/>
<rect x="482.8" y="195.9" class="st1" width="10" height="25.6"/>
<rect x="490.4" y="195.9" class="st1" width="10" height="25.6"/>
<rect x="498.1" y="195.9" class="st1" width="10" height="25.6"/>
<rect x="505.7" y="195.9" class="st1" width="10" height="25.6"/>
<rect x="513.3" y="195.9" class="st1" width="10" height="25.6"/>
<rect x="521" y="195.9" class="st1" width="10" height="25.6"/>
<rect x="528.6" y="195.9" class="st1" width="10" height="25.6"/>
<rect x="536.2" y="195.9" class="st1" width="10" height="25.6"/>
<rect x="543.9" y="195.9" class="st1" width="10" height="25.6"/>
<rect x="551.5" y="195.9" class="st1" width="10" height="25.6"/>
<rect x="559.1" y="195.9" class="st1" width="10" height="25.6"/>
<rect x="566.8" y="195.9" class="st1" width="10" height="25.6"/>
<rect x="574.4" y="195.9" class="st1" width="10" height="25.6"/>
<rect x="582" y="195.9" class="st1" width="10" height="25.6"/>
<rect x="589.7" y="195.9" class="st1" width="10" height="25.6"/>
<rect x="597.3" y="195.9" class="st1" width="10" height="25.6"/>
<rect x="604.9" y="195.9" class="st1" width="10" height="25.6"/>
<rect x="612.6" y="195.9" class="st1" width="10" height="25.6"/>
<rect x="620.2" y="195.9" class="st1" width="10" height="25.6"/>
<rect x="627.8" y="195.9" class="st1" width="10" height="25.6"/>
<rect x="635.5" y="195.9" class="st1" width="10" height="25.6"/>
<rect x="643.1" y="195.9" class="st1" width="10" height="25.6"/>
<rect x="650.7" y="195.9" class="st1" width="10" height="25.6"/>
<rect x="658.4" y="195.9" class="st1" width="10" height="25.6"/>
<rect x="666" y="195.9" class="st1" width="10" height="25.6"/>
<rect x="673.6" y="195.9" class="st1" width="10" height="25.6"/>
<rect x="681.3" y="195.9" class="st1" width="10" height="25.6"/>
<rect x="688.9" y="195.9" class="st1" width="10" height="25.6"/>
<rect x="696.6" y="195.9" class="st1" width="10" height="25.6"/>
<rect x="704.2" y="195.9" class="st1" width="10" height="25.6"/>
<rect x="711.8" y="195.9" class="st1" width="10" height="25.6"/>
<rect x="719.4" y="195.9" class="st1" width="10" height="25.6"/>
<line class="st2" x1="102.6" y1="228.2" x2="732.6" y2="228.2"/>
<rect x="108.7" y="34.3" class="st1" width="10" height="25.6"/>
<rect x="116.4" y="34.3" class="st1" width="10" height="25.6"/>
<rect x="124" y="34.3" class="st1" width="10" height="25.6"/>
<rect x="131.6" y="34.3" class="st1" width="10" height="25.6"/>
<rect x="139.3" y="34.3" class="st1" width="10" height="25.6"/>
<rect x="146.9" y="34.3" class="st1" width="10" height="25.6"/>
<rect x="154.5" y="34.3" class="st1" width="10" height="25.6"/>
<rect x="162.2" y="34.3" class="st1" width="10" height="25.6"/>
<rect x="169.8" y="34.3" class="st1" width="10" height="25.6"/>
<rect x="177.4" y="34.3" class="st1" width="10" height="25.6"/>
<rect x="185.1" y="34.3" class="st1" width="10" height="25.6"/>
<rect x="192.7" y="34.3" class="st1" width="10" height="25.6"/>
<rect x="200.3" y="34.3" class="st1" width="10" height="25.6"/>
<rect x="208" y="34.3" class="st1" width="10" height="25.6"/>
<rect x="215.6" y="34.3" class="st1" width="10" height="25.6"/>
<rect x="223.2" y="34.3" class="st1" width="10" height="25.6"/>
<rect x="230.9" y="34.3" class="st1" width="10" height="25.6"/>
<rect x="238.5" y="34.3" class="st1" width="10" height="25.6"/>
<rect x="246.1" y="34.3" class="st1" width="10" height="25.6"/>
<rect x="253.8" y="34.3" class="st1" width="10" height="25.6"/>
<rect x="261.4" y="34.3" class="st1" width="10" height="25.6"/>
<rect x="269" y="34.3" class="st1" width="10" height="25.6"/>
<rect x="276.7" y="34.3" class="st1" width="10" height="25.6"/>
<rect x="284.3" y="34.3" class="st1" width="10" height="25.6"/>
<rect x="291.9" y="34.3" class="st1" width="10" height="25.6"/>
<rect x="299.6" y="34.3" class="st1" width="10" height="25.6"/>
<rect x="307.2" y="34.3" class="st1" width="10" height="25.6"/>
<rect x="314.8" y="34.3" class="st1" width="10" height="25.6"/>
<rect x="322.5" y="34.3" class="st1" width="10" height="25.6"/>
<rect x="330.1" y="34.3" class="st1" width="10" height="25.6"/>
<rect x="337.7" y="34.3" class="st1" width="10" height="25.6"/>
<rect x="345.4" y="34.3" class="st1" width="10" height="25.6"/>
<rect x="353" y="34.3" class="st1" width="10" height="25.6"/>
<rect x="360.7" y="34.3" class="st1" width="10" height="25.6"/>
<rect x="368.3" y="34.3" class="st1" width="10" height="25.6"/>
<rect x="375.9" y="34.3" class="st1" width="10" height="25.6"/>
<rect x="383.6" y="34.3" class="st1" width="10" height="25.6"/>
<rect x="391.2" y="34.3" class="st1" width="10" height="25.6"/>
<rect x="398.8" y="34.3" class="st1" width="10" height="25.6"/>
<rect x="406.5" y="34.3" class="st1" width="10" height="25.6"/>
<rect x="414.1" y="34.3" class="st1" width="10" height="25.6"/>
<rect x="421.7" y="34.3" class="st1" width="10" height="25.6"/>
<rect x="429.4" y="34.3" class="st1" width="10" height="25.6"/>
<rect x="437" y="34.3" class="st1" width="10" height="25.6"/>
<rect x="444.6" y="34.3" class="st1" width="10" height="25.6"/>
<rect x="452.3" y="34.3" class="st1" width="10" height="25.6"/>
<rect x="459.9" y="34.3" class="st1" width="10" height="25.6"/>
<rect x="467.5" y="34.3" class="st1" width="10" height="25.6"/>
<rect x="475.2" y="34.3" class="st1" width="10" height="25.6"/>
<rect x="482.8" y="34.3" class="st1" width="10" height="25.6"/>
<rect x="490.4" y="34.3" class="st1" width="10" height="25.6"/>
<rect x="498.1" y="34.3" class="st1" width="10" height="25.6"/>
<rect x="505.7" y="34.3" class="st1" width="10" height="25.6"/>
<rect x="513.3" y="34.3" class="st1" width="10" height="25.6"/>
<rect x="521" y="34.3" class="st1" width="10" height="25.6"/>
<rect x="528.6" y="34.3" class="st1" width="10" height="25.6"/>
<rect x="536.2" y="34.3" class="st1" width="10" height="25.6"/>
<rect x="543.9" y="34.3" class="st1" width="10" height="25.6"/>
<rect x="551.5" y="34.3" class="st1" width="10" height="25.6"/>
<rect x="559.1" y="34.3" class="st1" width="10" height="25.6"/>
<rect x="566.8" y="34.3" class="st1" width="10" height="25.6"/>
<rect x="574.4" y="34.3" class="st1" width="10" height="25.6"/>
<rect x="582" y="34.3" class="st1" width="10" height="25.6"/>
<rect x="589.7" y="34.3" class="st1" width="10" height="25.6"/>
<rect x="597.3" y="34.3" class="st1" width="10" height="25.6"/>
<rect x="604.9" y="34.3" class="st1" width="10" height="25.6"/>
<rect x="612.6" y="34.3" class="st1" width="10" height="25.6"/>
<rect x="620.2" y="34.3" class="st1" width="10" height="25.6"/>
<rect x="627.8" y="34.3" class="st1" width="10" height="25.6"/>
<rect x="635.5" y="34.3" class="st1" width="10" height="25.6"/>
<rect x="643.1" y="34.3" class="st1" width="10" height="25.6"/>
<rect x="650.7" y="34.3" class="st1" width="10" height="25.6"/>
<rect x="658.4" y="34.3" class="st1" width="10" height="25.6"/>
<rect x="666" y="34.3" class="st1" width="10" height="25.6"/>
<line class="st2" x1="102.6" y1="66.8" x2="732.6" y2="66.8"/>
<rect x="24.7" y="40.9" class="st3" width="52.6" height="13"/>
<text transform="matrix(0.766 0.6428 -0.6428 0.766 30.3234 -7.1167)" class="st4 st5">1996-2020</text>
<rect x="23.5" y="92.9" class="st3" width="52.6" height="13"/>
<text transform="matrix(0.766 0.6428 -0.6428 0.766 30.3234 51.6433)" class="st4 st5">1971-1995</text>
<text transform="matrix(0.766 0.6428 -0.6428 0.766 30.3234 103.0156)" class="st4 st5">1946-1970</text>
<rect x="23.4" y="203.1" class="st3" width="52.6" height="13"/>
<text transform="matrix(0.766 0.6428 -0.6428 0.766 30.3234 154.6416)" class="st4 st5">1920-1945</text>
<line class="st2" x1="21.2" y1="-2.1" x2="104.9" y2="68.1"/>
<line class="st2" x1="21.2" y1="52.3" x2="104.9" y2="122.5"/>
<line class="st2" x1="21.2" y1="105.9" x2="104.9" y2="176.1"/>
<line class="st2" x1="21.2" y1="159.5" x2="104.9" y2="229.7"/>
<rect x="-450" y="-30" class="st3" width="400" height="418"/>
<text transform="matrix(1 0 0 1 -450 -64.3501)" style="font-family:'ArialMT'; font-size:15px;">ai2html-settings</text>
<text transform="matrix(1 0 0 1 -450 -45.3501)" style="font-family:'ArialMT'; font-size:15px;">settings_version: 0.115.5</text>
<text transform="matrix(1 0 0 1 -450 -26.3501)" style="font-family:'ArialMT'; font-size:15px;">image_format: auto</text>
<text transform="matrix(1 0 0 1 -450 -7.3501)" style="font-family:'ArialMT'; font-size:15px;">responsiveness: fixed</text>
<text transform="matrix(1 0 0 1 -450 11.6499)" style="font-family:'ArialMT'; font-size:15px;">output: one-file</text>
<text transform="matrix(1 0 0 1 -450 30.6499)" style="font-family:'ArialMT'; font-size:15px;">html_output_path: /ai2html-output/</text>
<text transform="matrix(1 0 0 1 -450 49.6499)" style="font-family:'ArialMT'; font-size:15px;">html_output_extension: .html</text>
<text transform="matrix(1 0 0 1 -450 68.6499)" style="font-family:'ArialMT'; font-size:15px;">image_output_path: </text>
<text transform="matrix(1 0 0 1 -450 87.6499)" style="font-family:'ArialMT'; font-size:15px;">local_preview_template: </text>
<text transform="matrix(1 0 0 1 -450 106.6499)" style="font-family:'ArialMT'; font-size:15px;">png_number_of_colors: 128</text>
<text transform="matrix(1 0 0 1 -450 125.6499)" style="font-family:'ArialMT'; font-size:15px;">jpg_quality: 60</text>
<text transform="matrix(1 0 0 1 -450 144.6499)" style="font-family:'ArialMT'; font-size:15px;">headline: </text>
<text transform="matrix(1 0 0 1 -450 163.6499)" style="font-family:'ArialMT'; font-size:15px;">leadin: </text>
<text transform="matrix(1 0 0 1 -450 182.6499)" style="font-family:'ArialMT'; font-size:15px;">notes: </text>
<text transform="matrix(1 0 0 1 -450 201.6499)" style="font-family:'ArialMT'; font-size:15px;">sources: </text>
<text transform="matrix(1 0 0 1 -450 220.6499)" style="font-family:'ArialMT'; font-size:15px;">credit: </text>
<g id="ai2html-settings">
	<rect x="-450" y="-30" class="st3" width="400" height="418"/>
	<text transform="matrix(1 0 0 1 -450 -19.3501)" style="font-family:'ArialMT'; font-size:15px;">ai2html-settings</text>
	<text transform="matrix(1 0 0 1 -450 -0.3501)" style="font-family:'ArialMT'; font-size:15px;">settings_version: 0.115.5</text>
	<text transform="matrix(1 0 0 1 -450 18.6499)" style="font-family:'ArialMT'; font-size:15px;">image_format: auto</text>
	<text transform="matrix(1 0 0 1 -450 37.6499)" style="font-family:'ArialMT'; font-size:15px;">responsiveness: fixed</text>
	<text transform="matrix(1 0 0 1 -450 56.6499)" style="font-family:'ArialMT'; font-size:15px;">output: one-file</text>
	<text transform="matrix(1 0 0 1 -450 75.6499)" style="font-family:'ArialMT'; font-size:15px;">html_output_path: /ai2html-output/</text>
	<text transform="matrix(1 0 0 1 -450 94.6499)" style="font-family:'ArialMT'; font-size:15px;">html_output_extension: .html</text>
	<text transform="matrix(1 0 0 1 -450 113.6499)" style="font-family:'ArialMT'; font-size:15px;">image_output_path: </text>
	<text transform="matrix(1 0 0 1 -450 132.6499)" style="font-family:'ArialMT'; font-size:15px;">local_preview_template: </text>
	<text transform="matrix(1 0 0 1 -450 151.6499)" style="font-family:'ArialMT'; font-size:15px;">png_number_of_colors: 128</text>
	<text transform="matrix(1 0 0 1 -450 170.6499)" style="font-family:'ArialMT'; font-size:15px;">jpg_quality: 60</text>
	<text transform="matrix(1 0 0 1 -450 189.6499)" style="font-family:'ArialMT'; font-size:15px;">headline: </text>
	<text transform="matrix(1 0 0 1 -450 208.6499)" style="font-family:'ArialMT'; font-size:15px;">leadin: </text>
	<text transform="matrix(1 0 0 1 -450 227.6499)" style="font-family:'ArialMT'; font-size:15px;">notes: </text>
	<text transform="matrix(1 0 0 1 -450 246.6499)" style="font-family:'ArialMT'; font-size:15px;">sources: </text>
	<text transform="matrix(1 0 0 1 -450 265.6499)" style="font-family:'ArialMT'; font-size:15px;">credit: </text>
</g>
</svg>
