<?xml version="1.0" encoding="utf-8"?>
<!-- Generator: Adobe Illustrator 27.2.0, SVG Export Plug-In . SVG Version: 6.00 Build 0)  -->
<svg version="1.1" id="Layer_1" xmlns="http://www.w3.org/2000/svg" xmlns:xlink="http://www.w3.org/1999/xlink" x="0px" y="0px"
	 viewBox="0 0 750 400" style="enable-background:new 0 0 750 400;" xml:space="preserve">
<style type="text/css">
	.st0{opacity:0.55;fill:#C49A2C;enable-background:new    ;}
	.st1{opacity:0.55;fill:#C49A2C;stroke:#C49A2C;stroke-miterlimit:10;enable-background:new    ;}
	.st2{fill:none;}
	.st3{font-family:'ArialMT';}
	.st4{font-size:11px;}
	.st5{fill:none;stroke:#C49036;stroke-width:10;stroke-miterlimit:10;}
</style>
<rect x="98" y="58.1" class="st0" width="10" height="25.6"/>
<rect x="105.7" y="58.1" class="st0" width="10" height="25.6"/>
<rect x="113.3" y="58.1" class="st0" width="10" height="25.6"/>
<rect x="120.9" y="58.1" class="st0" width="10" height="25.6"/>
<rect x="128.6" y="58.1" class="st0" width="10" height="25.6"/>
<rect x="136.2" y="58.1" class="st0" width="10" height="25.6"/>
<rect x="143.8" y="58.1" class="st0" width="10" height="25.6"/>
<rect x="151.5" y="58.1" class="st0" width="10" height="25.6"/>
<rect x="159.1" y="58.1" class="st0" width="10" height="25.6"/>
<rect x="166.7" y="58.1" class="st0" width="10" height="25.6"/>
<rect x="174.4" y="58.1" class="st0" width="10" height="25.6"/>
<rect x="182" y="58.1" class="st0" width="10" height="25.6"/>
<rect x="189.6" y="58.1" class="st0" width="10" height="25.6"/>
<rect x="197.3" y="58.1" class="st0" width="10" height="25.6"/>
<rect x="204.9" y="58.1" class="st0" width="10" height="25.6"/>
<rect x="212.5" y="58.1" class="st0" width="10" height="25.6"/>
<rect x="220.2" y="58.1" class="st0" width="10" height="25.6"/>
<rect x="227.8" y="58.1" class="st0" width="10" height="25.6"/>
<rect x="235.4" y="58.1" class="st0" width="10" height="25.6"/>
<rect x="243.1" y="58.1" class="st0" width="10" height="25.6"/>
<rect x="250.7" y="58.1" class="st0" width="10" height="25.6"/>
<rect x="258.3" y="58.1" class="st0" width="10" height="25.6"/>
<rect x="266" y="58.1" class="st0" width="10" height="25.6"/>
<rect x="273.6" y="58.1" class="st0" width="10" height="25.6"/>
<rect x="281.2" y="58.1" class="st0" width="10" height="25.6"/>
<rect x="288.9" y="58.1" class="st0" width="10" height="25.6"/>
<rect x="296.5" y="58.1" class="st0" width="10" height="25.6"/>
<rect x="304.1" y="58.1" class="st0" width="10" height="25.6"/>
<rect x="311.8" y="58.1" class="st0" width="10" height="25.6"/>
<rect x="319.4" y="58.1" class="st0" width="10" height="25.6"/>
<rect x="327" y="58.1" class="st0" width="10" height="25.6"/>
<rect x="334.7" y="58.1" class="st1" width="10" height="25.6"/>
<rect x="342.3" y="58.1" class="st0" width="10" height="25.6"/>
<rect x="350" y="58.1" class="st0" width="10" height="25.6"/>
<rect x="357.6" y="58.1" class="st0" width="10" height="25.6"/>
<rect x="365.2" y="58.1" class="st0" width="10" height="25.6"/>
<rect x="372.9" y="58.1" class="st0" width="10" height="25.6"/>
<rect x="380.5" y="58.1" class="st0" width="10" height="25.6"/>
<rect x="388.1" y="58.1" class="st0" width="10" height="25.6"/>
<rect x="395.8" y="58.1" class="st0" width="10" height="25.6"/>
<rect x="403.4" y="58.1" class="st0" width="10" height="25.6"/>
<rect x="411" y="58.1" class="st0" width="10" height="25.6"/>
<rect x="418.7" y="58.1" class="st0" width="10" height="25.6"/>
<rect x="426.3" y="58.1" class="st0" width="10" height="25.6"/>
<rect x="433.9" y="58.1" class="st0" width="10" height="25.6"/>
<rect x="441.6" y="58.1" class="st0" width="10" height="25.6"/>
<rect x="449.2" y="58.1" class="st0" width="10" height="25.6"/>
<rect x="456.8" y="58.1" class="st0" width="10" height="25.6"/>
<rect x="464.5" y="58.1" class="st0" width="10" height="25.6"/>
<rect x="472.1" y="58.1" class="st0" width="10" height="25.6"/>
<rect x="479.7" y="58.1" class="st0" width="10" height="25.6"/>
<rect x="487.4" y="58.1" class="st0" width="10" height="25.6"/>
<rect x="495" y="58.1" class="st0" width="10" height="25.6"/>
<rect x="502.6" y="58.1" class="st0" width="10" height="25.6"/>
<rect x="510.3" y="58.1" class="st0" width="10" height="25.6"/>
<rect x="517.9" y="58.1" class="st0" width="10" height="25.6"/>
<rect x="525.5" y="58.1" class="st0" width="10" height="25.6"/>
<rect x="533.2" y="58.1" class="st0" width="10" height="25.6"/>
<rect x="540.8" y="58.1" class="st0" width="10" height="25.6"/>
<rect x="548.4" y="58.1" class="st0" width="10" height="25.6"/>
<rect x="556.1" y="58.1" class="st0" width="10" height="25.6"/>
<rect x="563.7" y="58.1" class="st0" width="10" height="25.6"/>
<rect x="571.3" y="58.1" class="st0" width="10" height="25.6"/>
<rect x="579" y="58.1" class="st0" width="10" height="25.6"/>
<rect x="586.6" y="58.1" class="st0" width="10" height="25.6"/>
<rect x="594.2" y="58.1" class="st0" width="10" height="25.6"/>
<rect x="601.9" y="58.1" class="st0" width="10" height="25.6"/>
<rect x="609.5" y="58.1" class="st0" width="10" height="25.6"/>
<rect x="617.1" y="58.1" class="st0" width="10" height="25.6"/>
<rect x="624.8" y="58.1" class="st0" width="10" height="25.6"/>
<rect x="632.4" y="58.1" class="st0" width="10" height="25.6"/>
<rect x="640" y="58.1" class="st0" width="10" height="25.6"/>
<rect x="647.7" y="58.1" class="st0" width="10" height="25.6"/>
<rect x="655.3" y="58.1" class="st0" width="10" height="25.6"/>
<rect x="14.7" y="65.5" class="st2" width="52.6" height="13"/>
<text transform="matrix(0.766 0.6428 -0.6428 0.766 47.2941 36.4677)" class="st3 st4">1996-2020</text>
<line class="st5" x1="92" y1="91" x2="722" y2="91"/>
<rect x="98" y="110.2" class="st0" width="10" height="25.6"/>
<rect x="105.7" y="110.2" class="st0" width="10" height="25.6"/>
<rect x="113.3" y="110.2" class="st0" width="10" height="25.6"/>
<rect x="120.9" y="110.2" class="st0" width="10" height="25.6"/>
<rect x="128.6" y="110.2" class="st0" width="10" height="25.6"/>
<rect x="136.2" y="110.2" class="st0" width="10" height="25.6"/>
<rect x="143.8" y="110.2" class="st0" width="10" height="25.6"/>
<rect x="151.5" y="110.2" class="st0" width="10" height="25.6"/>
<rect x="159.1" y="110.2" class="st0" width="10" height="25.6"/>
<rect x="166.7" y="110.2" class="st0" width="10" height="25.6"/>
<rect x="174.4" y="110.2" class="st0" width="10" height="25.6"/>
<rect x="182" y="110.2" class="st0" width="10" height="25.6"/>
<rect x="189.6" y="110.2" class="st0" width="10" height="25.6"/>
<rect x="197.3" y="110.2" class="st0" width="10" height="25.6"/>
<rect x="204.9" y="110.2" class="st0" width="10" height="25.6"/>
<rect x="212.5" y="110.2" class="st0" width="10" height="25.6"/>
<rect x="220.2" y="110.2" class="st0" width="10" height="25.6"/>
<rect x="227.8" y="110.2" class="st0" width="10" height="25.6"/>
<rect x="235.4" y="110.2" class="st0" width="10" height="25.6"/>
<rect x="243.1" y="110.2" class="st0" width="10" height="25.6"/>
<rect x="250.7" y="110.2" class="st0" width="10" height="25.6"/>
<rect x="258.3" y="110.2" class="st0" width="10" height="25.6"/>
<rect x="266" y="110.2" class="st0" width="10" height="25.6"/>
<rect x="273.6" y="110.2" class="st0" width="10" height="25.6"/>
<rect x="281.2" y="110.2" class="st0" width="10" height="25.6"/>
<rect x="288.9" y="110.2" class="st0" width="10" height="25.6"/>
<rect x="296.5" y="110.2" class="st0" width="10" height="25.6"/>
<rect x="304.1" y="110.2" class="st0" width="10" height="25.6"/>
<rect x="311.8" y="110.2" class="st0" width="10" height="25.6"/>
<rect x="319.4" y="110.2" class="st0" width="10" height="25.6"/>
<rect x="327" y="110.2" class="st0" width="10" height="25.6"/>
<rect x="334.7" y="110.2" class="st0" width="10" height="25.6"/>
<rect x="342.3" y="110.2" class="st0" width="10" height="25.6"/>
<rect x="350" y="110.2" class="st0" width="10" height="25.6"/>
<rect x="357.6" y="110.2" class="st0" width="10" height="25.6"/>
<rect x="365.2" y="110.2" class="st0" width="10" height="25.6"/>
<rect x="372.9" y="110.2" class="st0" width="10" height="25.6"/>
<rect x="380.5" y="110.2" class="st0" width="10" height="25.6"/>
<rect x="388.1" y="110.2" class="st0" width="10" height="25.6"/>
<rect x="395.8" y="110.2" class="st0" width="10" height="25.6"/>
<rect x="403.4" y="110.2" class="st0" width="10" height="25.6"/>
<rect x="411" y="110.2" class="st0" width="10" height="25.6"/>
<rect x="418.7" y="110.2" class="st0" width="10" height="25.6"/>
<rect x="426.3" y="110.2" class="st0" width="10" height="25.6"/>
<rect x="433.9" y="110.2" class="st0" width="10" height="25.6"/>
<rect x="441.6" y="110.2" class="st0" width="10" height="25.6"/>
<rect x="449.2" y="110.2" class="st0" width="10" height="25.6"/>
<rect x="456.8" y="110.2" class="st0" width="10" height="25.6"/>
<rect x="464.5" y="110.2" class="st0" width="10" height="25.6"/>
<rect x="472.1" y="110.2" class="st0" width="10" height="25.6"/>
<rect x="479.7" y="110.2" class="st0" width="10" height="25.6"/>
<rect x="487.4" y="110.2" class="st0" width="10" height="25.6"/>
<rect x="495" y="110.2" class="st0" width="10" height="25.6"/>
<rect x="502.6" y="110.2" class="st0" width="10" height="25.6"/>
<rect x="510.3" y="110.2" class="st0" width="10" height="25.6"/>
<rect x="517.9" y="110.2" class="st0" width="10" height="25.6"/>
<rect x="525.5" y="110.2" class="st0" width="10" height="25.6"/>
<rect x="533.2" y="110.2" class="st0" width="10" height="25.6"/>
<rect x="540.8" y="110.2" class="st0" width="10" height="25.6"/>
<rect x="548.4" y="110.2" class="st0" width="10" height="25.6"/>
<rect x="556.1" y="110.2" class="st0" width="10" height="25.6"/>
<rect x="563.7" y="110.2" class="st0" width="10" height="25.6"/>
<rect x="571.3" y="110.2" class="st0" width="10" height="25.6"/>
<rect x="579" y="110.2" class="st0" width="10" height="25.6"/>
<rect x="586.6" y="110.2" class="st0" width="10" height="25.6"/>
<rect x="594.2" y="110.2" class="st0" width="10" height="25.6"/>
<rect x="601.9" y="110.2" class="st0" width="10" height="25.6"/>
<rect x="609.5" y="110.2" class="st0" width="10" height="25.6"/>
<rect x="617.1" y="110.2" class="st0" width="10" height="25.6"/>
<rect x="624.8" y="110.2" class="st0" width="10" height="25.6"/>
<rect x="632.4" y="110.2" class="st0" width="10" height="25.6"/>
<rect x="640" y="110.2" class="st0" width="10" height="25.6"/>
<rect x="647.7" y="110.2" class="st0" width="10" height="25.6"/>
<rect x="655.3" y="110.2" class="st0" width="10" height="25.6"/>
<rect x="13.5" y="117.5" class="st2" width="52.6" height="13"/>
<text transform="matrix(0.766 0.6428 -0.6428 0.766 47.2941 95.2277)" class="st3 st4">1971-1995</text>
<line class="st5" x1="92" y1="144.6" x2="722" y2="144.6"/>
<rect x="98" y="163.8" class="st0" width="10" height="25.6"/>
<rect x="105.7" y="163.8" class="st0" width="10" height="25.6"/>
<rect x="113.3" y="163.8" class="st0" width="10" height="25.6"/>
<rect x="120.9" y="163.8" class="st0" width="10" height="25.6"/>
<rect x="128.6" y="163.8" class="st0" width="10" height="25.6"/>
<rect x="136.2" y="163.8" class="st0" width="10" height="25.6"/>
<rect x="143.8" y="163.8" class="st0" width="10" height="25.6"/>
<rect x="151.5" y="163.8" class="st0" width="10" height="25.6"/>
<rect x="159.1" y="163.8" class="st0" width="10" height="25.6"/>
<rect x="166.7" y="163.8" class="st0" width="10" height="25.6"/>
<rect x="174.4" y="163.8" class="st0" width="10" height="25.6"/>
<rect x="182" y="163.8" class="st0" width="10" height="25.6"/>
<rect x="189.6" y="163.8" class="st0" width="10" height="25.6"/>
<rect x="197.3" y="163.8" class="st0" width="10" height="25.6"/>
<rect x="204.9" y="163.8" class="st0" width="10" height="25.6"/>
<rect x="212.5" y="163.8" class="st0" width="10" height="25.6"/>
<rect x="220.2" y="163.8" class="st0" width="10" height="25.6"/>
<rect x="227.8" y="163.8" class="st0" width="10" height="25.6"/>
<rect x="235.4" y="163.8" class="st0" width="10" height="25.6"/>
<rect x="243.1" y="163.8" class="st0" width="10" height="25.6"/>
<rect x="250.7" y="163.8" class="st0" width="10" height="25.6"/>
<rect x="258.3" y="163.8" class="st0" width="10" height="25.6"/>
<rect x="266" y="163.8" class="st0" width="10" height="25.6"/>
<rect x="273.6" y="163.8" class="st0" width="10" height="25.6"/>
<rect x="281.2" y="163.8" class="st0" width="10" height="25.6"/>
<rect x="288.9" y="163.8" class="st0" width="10" height="25.6"/>
<rect x="296.5" y="163.8" class="st0" width="10" height="25.6"/>
<rect x="304.1" y="163.8" class="st0" width="10" height="25.6"/>
<rect x="311.8" y="163.8" class="st0" width="10" height="25.6"/>
<rect x="319.4" y="163.8" class="st0" width="10" height="25.6"/>
<rect x="327" y="163.8" class="st0" width="10" height="25.6"/>
<rect x="334.7" y="163.8" class="st0" width="10" height="25.6"/>
<rect x="342.3" y="163.8" class="st0" width="10" height="25.6"/>
<rect x="350" y="163.8" class="st0" width="10" height="25.6"/>
<rect x="357.6" y="163.8" class="st0" width="10" height="25.6"/>
<rect x="365.2" y="163.8" class="st0" width="10" height="25.6"/>
<rect x="372.9" y="163.8" class="st0" width="10" height="25.6"/>
<rect x="380.5" y="163.8" class="st0" width="10" height="25.6"/>
<rect x="388.1" y="163.8" class="st0" width="10" height="25.6"/>
<rect x="395.8" y="163.8" class="st0" width="10" height="25.6"/>
<rect x="403.4" y="163.8" class="st0" width="10" height="25.6"/>
<rect x="411" y="163.8" class="st0" width="10" height="25.6"/>
<rect x="418.7" y="163.8" class="st0" width="10" height="25.6"/>
<rect x="426.3" y="163.8" class="st0" width="10" height="25.6"/>
<rect x="433.9" y="163.8" class="st0" width="10" height="25.6"/>
<rect x="441.6" y="163.8" class="st0" width="10" height="25.6"/>
<rect x="449.2" y="163.8" class="st0" width="10" height="25.6"/>
<rect x="456.8" y="163.8" class="st0" width="10" height="25.6"/>
<rect x="464.5" y="163.8" class="st0" width="10" height="25.6"/>
<rect x="472.1" y="163.8" class="st0" width="10" height="25.6"/>
<rect x="479.7" y="163.8" class="st0" width="10" height="25.6"/>
<rect x="487.4" y="163.8" class="st0" width="10" height="25.6"/>
<rect x="495" y="163.8" class="st0" width="10" height="25.6"/>
<rect x="502.6" y="163.8" class="st0" width="10" height="25.6"/>
<rect x="510.3" y="163.8" class="st0" width="10" height="25.6"/>
<rect x="517.9" y="163.8" class="st0" width="10" height="25.6"/>
<rect x="525.5" y="163.8" class="st0" width="10" height="25.6"/>
<rect x="533.2" y="163.8" class="st0" width="10" height="25.6"/>
<rect x="540.8" y="163.8" class="st0" width="10" height="25.6"/>
<rect x="548.4" y="163.8" class="st0" width="10" height="25.6"/>
<rect x="556.1" y="163.8" class="st0" width="10" height="25.6"/>
<rect x="563.7" y="163.8" class="st0" width="10" height="25.6"/>
<rect x="571.3" y="163.8" class="st0" width="10" height="25.6"/>
<rect x="579" y="163.8" class="st0" width="10" height="25.6"/>
<rect x="586.6" y="163.8" class="st0" width="10" height="25.6"/>
<rect x="594.2" y="163.8" class="st0" width="10" height="25.6"/>
<rect x="601.9" y="163.8" class="st0" width="10" height="25.6"/>
<rect x="609.5" y="163.8" class="st0" width="10" height="25.6"/>
<rect x="617.1" y="163.8" class="st0" width="10" height="25.6"/>
<rect x="624.8" y="163.8" class="st0" width="10" height="25.6"/>
<rect x="632.4" y="163.8" class="st0" width="10" height="25.6"/>
<rect x="640" y="163.8" class="st0" width="10" height="25.6"/>
<rect x="647.7" y="163.8" class="st0" width="10" height="25.6"/>
<rect x="655.3" y="163.8" class="st0" width="10" height="25.6"/>
<rect x="662.9" y="163.8" class="st0" width="10" height="25.6"/>
<rect x="670.6" y="163.8" class="st0" width="10" height="25.6"/>
<rect x="678.2" y="163.8" class="st0" width="10" height="25.6"/>
<rect x="685.9" y="163.8" class="st0" width="10" height="25.6"/>
<rect x="693.5" y="163.8" class="st0" width="10" height="25.6"/>
<rect x="701.1" y="163.8" class="st0" width="10" height="25.6"/>
<rect x="110.2" y="173.7" transform="matrix(0.6428 -0.766 0.766 0.6428 -111.5568 160.8617)" class="st2" width="13" height="52.6"/>
<text transform="matrix(0.766 0.6428 -0.6428 0.766 47.2941 146.6002)" class="st3 st4">1946-1970</text>
<line class="st5" x1="92" y1="201" x2="722" y2="201"/>
<rect x="98" y="220.3" class="st0" width="10" height="25.6"/>
<rect x="105.7" y="220.3" class="st0" width="10" height="25.6"/>
<rect x="113.3" y="220.3" class="st0" width="10" height="25.6"/>
<rect x="120.9" y="220.4" class="st0" width="10" height="25.6"/>
<rect x="128.6" y="220.4" class="st0" width="10" height="25.6"/>
<rect x="136.2" y="220.4" class="st0" width="10" height="25.6"/>
<rect x="143.8" y="220.4" class="st0" width="10" height="25.6"/>
<rect x="151.5" y="220.4" class="st0" width="10" height="25.6"/>
<rect x="159.1" y="220.4" class="st0" width="10" height="25.6"/>
<rect x="166.7" y="220.4" class="st0" width="10" height="25.6"/>
<rect x="174.4" y="220.4" class="st0" width="10" height="25.6"/>
<rect x="182" y="220.4" class="st0" width="10" height="25.6"/>
<rect x="189.6" y="220.4" class="st0" width="10" height="25.6"/>
<rect x="197.3" y="220.4" class="st0" width="10" height="25.6"/>
<rect x="204.9" y="220.4" class="st0" width="10" height="25.6"/>
<rect x="212.5" y="220.4" class="st0" width="10" height="25.6"/>
<rect x="220.2" y="220.4" class="st0" width="10" height="25.6"/>
<rect x="227.8" y="220.4" class="st0" width="10" height="25.6"/>
<rect x="235.4" y="220.4" class="st0" width="10" height="25.6"/>
<rect x="243.1" y="220.4" class="st0" width="10" height="25.6"/>
<rect x="250.7" y="220.4" class="st0" width="10" height="25.6"/>
<rect x="258.3" y="220.4" class="st0" width="10" height="25.6"/>
<rect x="266" y="220.4" class="st0" width="10" height="25.6"/>
<rect x="273.6" y="220.4" class="st0" width="10" height="25.6"/>
<rect x="281.2" y="220.4" class="st0" width="10" height="25.6"/>
<rect x="288.9" y="220.4" class="st0" width="10" height="25.6"/>
<rect x="296.5" y="220.4" class="st0" width="10" height="25.6"/>
<rect x="304.1" y="220.4" class="st0" width="10" height="25.6"/>
<rect x="311.8" y="220.4" class="st0" width="10" height="25.6"/>
<rect x="319.4" y="220.4" class="st0" width="10" height="25.6"/>
<rect x="327" y="220.4" class="st0" width="10" height="25.6"/>
<rect x="334.7" y="220.4" class="st0" width="10" height="25.6"/>
<rect x="342.3" y="220.4" class="st0" width="10" height="25.6"/>
<rect x="350" y="220.4" class="st0" width="10" height="25.6"/>
<rect x="357.6" y="220.4" class="st0" width="10" height="25.6"/>
<rect x="365.2" y="220.4" class="st0" width="10" height="25.6"/>
<rect x="372.9" y="220.4" class="st0" width="10" height="25.6"/>
<rect x="380.5" y="220.4" class="st0" width="10" height="25.6"/>
<rect x="388.1" y="220.4" class="st0" width="10" height="25.6"/>
<rect x="395.8" y="220.4" class="st0" width="10" height="25.6"/>
<rect x="403.4" y="220.4" class="st0" width="10" height="25.6"/>
<rect x="411" y="220.4" class="st0" width="10" height="25.6"/>
<rect x="418.7" y="220.4" class="st0" width="10" height="25.6"/>
<rect x="426.3" y="220.4" class="st0" width="10" height="25.6"/>
<rect x="433.9" y="220.4" class="st0" width="10" height="25.6"/>
<rect x="441.6" y="220.4" class="st0" width="10" height="25.6"/>
<rect x="449.2" y="220.4" class="st0" width="10" height="25.6"/>
<rect x="456.8" y="220.4" class="st0" width="10" height="25.6"/>
<rect x="464.5" y="220.4" class="st0" width="10" height="25.6"/>
<rect x="472.1" y="220.4" class="st0" width="10" height="25.6"/>
<rect x="479.7" y="220.4" class="st0" width="10" height="25.6"/>
<rect x="487.4" y="220.4" class="st0" width="10" height="25.6"/>
<rect x="495" y="220.4" class="st0" width="10" height="25.6"/>
<rect x="502.6" y="220.4" class="st0" width="10" height="25.6"/>
<rect x="510.3" y="220.4" class="st0" width="10" height="25.6"/>
<rect x="517.9" y="220.4" class="st0" width="10" height="25.6"/>
<rect x="525.5" y="220.4" class="st0" width="10" height="25.6"/>
<rect x="533.2" y="220.4" class="st0" width="10" height="25.6"/>
<rect x="540.8" y="220.4" class="st0" width="10" height="25.6"/>
<rect x="548.4" y="220.4" class="st0" width="10" height="25.6"/>
<rect x="556.1" y="220.4" class="st0" width="10" height="25.6"/>
<rect x="563.7" y="220.4" class="st0" width="10" height="25.6"/>
<rect x="571.3" y="220.4" class="st0" width="10" height="25.6"/>
<rect x="579" y="220.4" class="st0" width="10" height="25.6"/>
<rect x="586.6" y="220.4" class="st0" width="10" height="25.6"/>
<rect x="594.2" y="220.4" class="st0" width="10" height="25.6"/>
<rect x="601.9" y="220.4" class="st0" width="10" height="25.6"/>
<rect x="609.5" y="220.4" class="st0" width="10" height="25.6"/>
<rect x="617.1" y="220.4" class="st0" width="10" height="25.6"/>
<rect x="624.8" y="220.4" class="st0" width="10" height="25.6"/>
<rect x="632.4" y="220.4" class="st0" width="10" height="25.6"/>
<rect x="640" y="220.4" class="st0" width="10" height="25.6"/>
<rect x="647.7" y="220.4" class="st0" width="10" height="25.6"/>
<rect x="655.3" y="220.4" class="st0" width="10" height="25.6"/>
<rect x="662.9" y="220.4" class="st0" width="10" height="25.6"/>
<rect x="670.6" y="220.4" class="st0" width="10" height="25.6"/>
<rect x="678.2" y="220.4" class="st0" width="10" height="25.6"/>
<rect x="685.9" y="220.4" class="st0" width="10" height="25.6"/>
<rect x="693.5" y="220.4" class="st0" width="10" height="25.6"/>
<rect x="701.1" y="220.4" class="st0" width="10" height="25.6"/>
<rect x="708.7" y="220.4" class="st0" width="10" height="25.6"/>
<rect x="13.4" y="227.7" class="st2" width="52.6" height="13"/>
<text transform="matrix(0.766 0.6428 -0.6428 0.766 47.2941 198.226)" class="st3 st4">1920-1945</text>
<line class="st5" x1="92" y1="254.7" x2="722" y2="254.7"/>
<rect x="98" y="273.9" class="st0" width="10" height="25.6"/>
<rect x="105.7" y="273.9" class="st0" width="10" height="25.6"/>
<rect x="113.3" y="273.9" class="st0" width="10" height="25.6"/>
<rect x="120.9" y="273.9" class="st0" width="10" height="25.6"/>
<rect x="128.6" y="273.9" class="st0" width="10" height="25.6"/>
<rect x="136.2" y="273.9" class="st0" width="10" height="25.6"/>
<rect x="143.8" y="273.9" class="st0" width="10" height="25.6"/>
<rect x="151.5" y="273.9" class="st0" width="10" height="25.6"/>
<rect x="159.1" y="273.9" class="st0" width="10" height="25.6"/>
<rect x="166.7" y="273.9" class="st0" width="10" height="25.6"/>
<text transform="matrix(0.766 0.6428 -0.6428 0.766 33.2595 242.7006)" class="st3 st4">complex dates</text>
<line class="st5" x1="92" y1="308.1" x2="722" y2="308.1"/>
<line class="st5" x1="39.1" y1="45.2" x2="94.9" y2="92"/>
<line class="st5" x1="39.1" y1="99.6" x2="94.9" y2="146.4"/>
<line class="st5" x1="39.1" y1="153.2" x2="94.9" y2="200"/>
<line class="st5" x1="39.1" y1="206.8" x2="94.9" y2="253.6"/>
<line class="st5" x1="39.1" y1="263.3" x2="94.9" y2="310.1"/>
</svg>
