<?xml version="1.0" encoding="utf-8"?>
<!-- Generator: Adobe Illustrator 27.2.0, SVG Export Plug-In . SVG Version: 6.00 Build 0)  -->
<svg version="1.1" id="Layer_1" xmlns="http://www.w3.org/2000/svg" xmlns:xlink="http://www.w3.org/1999/xlink" x="0px" y="0px"
	 viewBox="0 0 750 275" style="enable-background:new 0 0 750 275;" xml:space="preserve">
<style type="text/css">
	.st0{fill:#F9DCAB;}
	.st1{opacity:0.55;fill:#F8766D;enable-background:new    ;}
	.st2{opacity:0.55;fill:#93AA00;enable-background:new    ;}
	.st3{opacity:0.55;fill:#00C19F;enable-background:new    ;}
	.st4{opacity:0.55;fill:#619CFF;enable-background:new    ;}
	.st5{opacity:0.55;fill:#DB72FB;enable-background:new    ;}
	.st6{opacity:0.55;fill:#FF61C3;enable-background:new    ;}
	.st7{fill:none;stroke:#C49036;stroke-width:10;stroke-miterlimit:10;}
	.st8{opacity:0.55;fill:#D39200;enable-background:new    ;}
	.st9{opacity:0.55;fill:#00BA38;enable-background:new    ;}
	.st10{opacity:0.55;fill:#00B9E3;enable-background:new    ;}
	.st11{fill:none;stroke:#00C19F;stroke-miterlimit:10;}
	.st12{opacity:0.55;fill:none;stroke:#00C19F;stroke-miterlimit:10;enable-background:new    ;}
	.st13{fill:none;}
	.st14{font-family:'Arial-BoldMT';}
	.st15{font-size:12px;}
</style>
<rect x="-6.3" y="-3.5" class="st0" width="765" height="285"/>
<g>
	<rect x="105.7" y="112.7" class="st1" width="10" height="25.6"/>
	<rect x="113.4" y="112.7" class="st1" width="10" height="25.6"/>
	<rect x="121" y="112.7" class="st1" width="10" height="25.6"/>
	<rect x="128.6" y="112.7" class="st1" width="10" height="25.6"/>
	<rect x="136.3" y="112.7" class="st1" width="10" height="25.6"/>
	<rect x="143.9" y="112.7" class="st1" width="10" height="25.6"/>
	<rect x="151.5" y="112.7" class="st2" width="10" height="25.6"/>
	<rect x="159.2" y="112.7" class="st2" width="10" height="25.6"/>
	<rect x="166.8" y="112.7" class="st2" width="10" height="25.6"/>
	<rect x="174.4" y="112.7" class="st2" width="10" height="25.6"/>
	<rect x="182.1" y="112.7" class="st2" width="10" height="25.6"/>
	<rect x="189.7" y="112.7" class="st2" width="10" height="25.6"/>
	<rect x="197.3" y="112.7" class="st2" width="10" height="25.6"/>
	<rect x="205" y="112.7" class="st2" width="10" height="25.6"/>
	<rect x="212.6" y="112.7" class="st2" width="10" height="25.6"/>
	<rect x="220.2" y="112.7" class="st2" width="10" height="25.6"/>
	<rect x="227.9" y="112.7" class="st2" width="10" height="25.6"/>
	<rect x="235.5" y="112.7" class="st2" width="10" height="25.6"/>
	<rect x="243.1" y="112.7" class="st2" width="10" height="25.6"/>
	<rect x="250.8" y="112.7" class="st2" width="10" height="25.6"/>
	<rect x="258.4" y="112.7" class="st2" width="10" height="25.6"/>
	<rect x="266" y="112.7" class="st2" width="10" height="25.6"/>
	<rect x="273.7" y="112.7" class="st2" width="10" height="25.6"/>
	<rect x="281.3" y="112.7" class="st2" width="10" height="25.6"/>
	<rect x="288.9" y="112.7" class="st2" width="10" height="25.6"/>
	<rect x="296.6" y="112.7" class="st2" width="10" height="25.6"/>
	<rect x="304.2" y="112.7" class="st2" width="10" height="25.6"/>
	<rect x="311.8" y="112.7" class="st2" width="10" height="25.6"/>
	<rect x="319.5" y="112.7" class="st2" width="10" height="25.6"/>
	<rect x="327.1" y="112.7" class="st2" width="10" height="25.6"/>
	<rect x="334.7" y="112.7" class="st2" width="10" height="25.6"/>
	<rect x="342.4" y="112.7" class="st2" width="10" height="25.6"/>
	<rect x="350" y="112.7" class="st2" width="10" height="25.6"/>
	<rect x="357.7" y="112.7" class="st2" width="10" height="25.6"/>
	<rect x="365.3" y="112.7" class="st2" width="10" height="25.6"/>
	<rect x="372.9" y="112.7" class="st2" width="10" height="25.6"/>
	<rect x="380.6" y="112.7" class="st2" width="10" height="25.6"/>
	<rect x="388.2" y="112.7" class="st2" width="10" height="25.6"/>
	<rect x="395.8" y="112.7" class="st2" width="10" height="25.6"/>
	<rect x="403.5" y="112.7" class="st3" width="10" height="25.6"/>
	<rect x="411.1" y="112.7" class="st3" width="10" height="25.6"/>
	<rect x="418.7" y="112.7" class="st3" width="10" height="25.6"/>
	<rect x="426.4" y="112.7" class="st3" width="10" height="25.6"/>
	<rect x="434" y="112.7" class="st3" width="10" height="25.6"/>
	<rect x="441.6" y="112.7" class="st3" width="10" height="25.6"/>
	<rect x="449.3" y="112.7" class="st3" width="10" height="25.6"/>
	<rect x="456.9" y="112.7" class="st3" width="10" height="25.6"/>
	<rect x="464.5" y="112.7" class="st3" width="10" height="25.6"/>
	<rect x="472.2" y="112.7" class="st3" width="10" height="25.6"/>
	<rect x="479.8" y="112.7" class="st3" width="10" height="25.6"/>
	<rect x="487.4" y="112.7" class="st3" width="10" height="25.6"/>
	<rect x="495.1" y="112.7" class="st3" width="10" height="25.6"/>
	<rect x="502.7" y="112.7" class="st3" width="10" height="25.6"/>
	<rect x="510.3" y="112.7" class="st3" width="10" height="25.6"/>
	<rect x="518" y="112.7" class="st3" width="10" height="25.6"/>
	<rect x="525.6" y="112.7" class="st3" width="10" height="25.6"/>
	<rect x="533.2" y="112.7" class="st3" width="10" height="25.6"/>
	<rect x="540.9" y="112.7" class="st3" width="10" height="25.6"/>
	<rect x="548.5" y="112.7" class="st4" width="10" height="25.6"/>
	<rect x="556.1" y="112.7" class="st4" width="10" height="25.6"/>
	<rect x="563.8" y="112.7" class="st4" width="10" height="25.6"/>
	<rect x="571.4" y="112.7" class="st4" width="10" height="25.6"/>
	<rect x="579" y="112.7" class="st4" width="10" height="25.6"/>
	<rect x="586.7" y="112.7" class="st5" width="10" height="25.6"/>
	<rect x="594.3" y="112.7" class="st5" width="10" height="25.6"/>
	<rect x="601.9" y="112.7" class="st5" width="10" height="25.6"/>
	<rect x="609.6" y="112.7" class="st6" width="10" height="25.6"/>
	<rect x="617.2" y="112.7" class="st6" width="10" height="25.6"/>
	<rect x="624.8" y="112.7" class="st6" width="10" height="25.6"/>
	<rect x="632.5" y="112.7" class="st6" width="10" height="25.6"/>
	<rect x="640.1" y="112.7" class="st6" width="10" height="25.6"/>
	<rect x="647.7" y="112.7" class="st6" width="10" height="25.6"/>
	<rect x="655.4" y="112.7" class="st6" width="10" height="25.6"/>
	<rect x="663" y="112.7" class="st6" width="10" height="25.6"/>
</g>
<line class="st7" x1="99.6" y1="144.7" x2="729.6" y2="144.7"/>
<g>
	<rect x="105.7" y="167.1" class="st1" width="10" height="25.6"/>
	<rect x="113.4" y="167.1" class="st1" width="10" height="25.6"/>
	<rect x="121" y="167.1" class="st1" width="10" height="25.6"/>
	<rect x="128.6" y="167.1" class="st1" width="10" height="25.6"/>
	<rect x="136.3" y="167.1" class="st1" width="10" height="25.6"/>
	<rect x="143.9" y="167.1" class="st8" width="10" height="25.6"/>
	<rect x="151.5" y="167.1" class="st2" width="10" height="25.6"/>
	<rect x="159.2" y="167.1" class="st2" width="10" height="25.6"/>
	<rect x="166.8" y="167.1" class="st2" width="10" height="25.6"/>
	<rect x="174.4" y="167.1" class="st2" width="10" height="25.6"/>
	<rect x="182.1" y="167.1" class="st2" width="10" height="25.6"/>
	<rect x="189.7" y="167.1" class="st2" width="10" height="25.6"/>
	<rect x="197.3" y="167.1" class="st2" width="10" height="25.6"/>
	<rect x="205" y="167.1" class="st2" width="10" height="25.6"/>
	<rect x="212.6" y="167.1" class="st2" width="10" height="25.6"/>
	<rect x="220.2" y="167.1" class="st2" width="10" height="25.6"/>
	<rect x="227.9" y="167.1" class="st2" width="10" height="25.6"/>
	<rect x="235.5" y="167.1" class="st2" width="10" height="25.6"/>
	<rect x="243.1" y="167.1" class="st2" width="10" height="25.6"/>
	<rect x="250.8" y="167.1" class="st2" width="10" height="25.6"/>
	<rect x="258.4" y="167.1" class="st2" width="10" height="25.6"/>
	<rect x="266" y="167.1" class="st2" width="10" height="25.6"/>
	<rect x="273.7" y="167.1" class="st2" width="10" height="25.6"/>
	<rect x="281.3" y="167.1" class="st2" width="10" height="25.6"/>
	<rect x="288.9" y="167.1" class="st2" width="10" height="25.6"/>
	<rect x="296.6" y="167.1" class="st2" width="10" height="25.6"/>
	<rect x="304.2" y="167.1" class="st2" width="10" height="25.6"/>
	<rect x="311.8" y="167.1" class="st2" width="10" height="25.6"/>
	<rect x="319.5" y="167.1" class="st2" width="10" height="25.6"/>
	<rect x="327.1" y="167.1" class="st2" width="10" height="25.6"/>
	<rect x="334.7" y="167.1" class="st2" width="10" height="25.6"/>
	<rect x="342.4" y="167.1" class="st2" width="10" height="25.6"/>
	<rect x="350" y="167.1" class="st2" width="10" height="25.6"/>
	<rect x="357.7" y="167.1" class="st2" width="10" height="25.6"/>
	<rect x="365.3" y="167.1" class="st2" width="10" height="25.6"/>
	<rect x="372.9" y="167.1" class="st9" width="10" height="25.6"/>
	<rect x="380.6" y="167.1" class="st3" width="10" height="25.6"/>
	<rect x="388.2" y="167.1" class="st3" width="10" height="25.6"/>
	<rect x="395.8" y="167.1" class="st3" width="10" height="25.6"/>
	<rect x="403.5" y="167.1" class="st3" width="10" height="25.6"/>
	<rect x="411.1" y="167.1" class="st3" width="10" height="25.6"/>
	<rect x="418.7" y="167.1" class="st3" width="10" height="25.6"/>
	<rect x="426.4" y="167.1" class="st3" width="10" height="25.6"/>
	<rect x="434" y="167.1" class="st3" width="10" height="25.6"/>
	<rect x="441.6" y="167.1" class="st3" width="10" height="25.6"/>
	<rect x="449.3" y="167.1" class="st3" width="10" height="25.6"/>
	<rect x="456.9" y="167.1" class="st3" width="10" height="25.6"/>
	<rect x="464.5" y="167.1" class="st3" width="10" height="25.6"/>
	<rect x="472.2" y="167.1" class="st3" width="10" height="25.6"/>
	<rect x="479.8" y="167.1" class="st3" width="10" height="25.6"/>
	<rect x="487.4" y="167.1" class="st3" width="10" height="25.6"/>
	<rect x="495.1" y="167.1" class="st3" width="10" height="25.6"/>
	<rect x="502.7" y="167.1" class="st3" width="10" height="25.6"/>
	<rect x="510.3" y="167.1" class="st10" width="10" height="25.6"/>
	<rect x="518" y="167.1" class="st4" width="10" height="25.6"/>
	<rect x="525.6" y="167.1" class="st4" width="10" height="25.6"/>
	<rect x="533.2" y="167.1" class="st4" width="10" height="25.6"/>
	<rect x="540.9" y="167.1" class="st4" width="10" height="25.6"/>
	<rect x="548.5" y="167.1" class="st4" width="10" height="25.6"/>
	<rect x="556.1" y="167.1" class="st5" width="10" height="25.6"/>
	<rect x="563.8" y="167.1" class="st5" width="10" height="25.6"/>
	<rect x="571.4" y="167.1" class="st5" width="10" height="25.6"/>
	<rect x="579" y="167.1" class="st5" width="10" height="25.6"/>
	<rect x="586.7" y="167.1" class="st6" width="10" height="25.6"/>
	<rect x="594.3" y="167.1" class="st6" width="10" height="25.6"/>
	<rect x="601.9" y="167.1" class="st6" width="10" height="25.6"/>
	<rect x="609.6" y="167.1" class="st6" width="10" height="25.6"/>
	<rect x="617.2" y="167.1" class="st6" width="10" height="25.6"/>
	<rect x="624.8" y="167.1" class="st6" width="10" height="25.6"/>
	<rect x="632.5" y="167.1" class="st6" width="10" height="25.6"/>
	<rect x="640.1" y="167.1" class="st6" width="10" height="25.6"/>
	<rect x="647.7" y="167.1" class="st6" width="10" height="25.6"/>
	<rect x="655.4" y="167.1" class="st6" width="10" height="25.6"/>
	<rect x="663" y="167.1" class="st6" width="10" height="25.6"/>
	<rect x="670.6" y="167.1" class="st6" width="10" height="25.6"/>
	<rect x="678.3" y="167.1" class="st6" width="10" height="25.6"/>
	<rect x="685.9" y="167.1" class="st6" width="10" height="25.6"/>
	<rect x="693.6" y="167.1" class="st6" width="10" height="25.6"/>
	<rect x="701.2" y="167.1" class="st6" width="10" height="25.6"/>
	<rect x="708.8" y="167.1" class="st6" width="10" height="25.6"/>
</g>
<line class="st7" x1="99.6" y1="199" x2="729.6" y2="199"/>
<g>
	<rect x="105.7" y="219.3" class="st1" width="10" height="25.6"/>
	<rect x="113.4" y="219.3" class="st1" width="10" height="25.6"/>
	<rect x="121" y="219.3" class="st1" width="10" height="25.6"/>
	<rect x="128.6" y="219.4" class="st1" width="10" height="25.6"/>
	<rect x="136.3" y="219.4" class="st8" width="10" height="25.6"/>
	<rect x="143.9" y="219.4" class="st8" width="10" height="25.6"/>
	<rect x="151.5" y="219.4" class="st2" width="10" height="25.6"/>
	<rect x="159.2" y="219.4" class="st2" width="10" height="25.6"/>
	<rect x="166.8" y="219.4" class="st2" width="10" height="25.6"/>
	<rect x="174.4" y="219.4" class="st2" width="10" height="25.6"/>
	<rect x="182.1" y="219.4" class="st2" width="10" height="25.6"/>
	<rect x="189.7" y="219.4" class="st2" width="10" height="25.6"/>
	<rect x="197.3" y="219.4" class="st2" width="10" height="25.6"/>
	<rect x="205" y="219.4" class="st2" width="10" height="25.6"/>
	<rect x="212.6" y="219.4" class="st2" width="10" height="25.6"/>
	<rect x="220.2" y="219.4" class="st2" width="10" height="25.6"/>
	<rect x="227.9" y="219.4" class="st2" width="10" height="25.6"/>
	<rect x="235.5" y="219.4" class="st2" width="10" height="25.6"/>
	<rect x="243.1" y="219.4" class="st2" width="10" height="25.6"/>
	<rect x="250.8" y="219.4" class="st2" width="10" height="25.6"/>
	<rect x="258.4" y="219.4" class="st2" width="10" height="25.6"/>
	<rect x="266" y="219.4" class="st2" width="10" height="25.6"/>
	<rect x="273.7" y="219.4" class="st2" width="10" height="25.6"/>
	<rect x="281.3" y="219.4" class="st2" width="10" height="25.6"/>
	<rect x="288.9" y="219.4" class="st2" width="10" height="25.6"/>
	<rect x="296.6" y="219.4" class="st2" width="10" height="25.6"/>
	<rect x="304.2" y="219.4" class="st2" width="10" height="25.6"/>
	<rect x="311.8" y="219.4" class="st2" width="10" height="25.6"/>
	<rect x="319.5" y="219.4" class="st2" width="10" height="25.6"/>
	<rect x="327.1" y="219.4" class="st2" width="10" height="25.6"/>
	<rect x="334.7" y="219.4" class="st2" width="10" height="25.6"/>
	<rect x="342.4" y="219.4" class="st2" width="10" height="25.6"/>
	<rect x="350" y="219.4" class="st2" width="10" height="25.6"/>
	<rect x="357.7" y="219.4" class="st2" width="10" height="25.6"/>
	<rect x="365.3" y="219.4" class="st2" width="10" height="25.6"/>
	<rect x="372.9" y="219.4" class="st2" width="10" height="25.6"/>
	<rect x="380.6" y="219.4" class="st2" width="10" height="25.6"/>
	<rect x="388.2" y="219.4" class="st2" width="10" height="25.6"/>
	<rect x="395.8" y="219.4" class="st2" width="10" height="25.6"/>
	<rect x="403.5" y="219.4" class="st2" width="10" height="25.6"/>
	<rect x="411.1" y="219.4" class="st2" width="10" height="25.6"/>
	<rect x="418.7" y="219.4" class="st3" width="10" height="25.6"/>
	<rect x="426.4" y="219.4" class="st3" width="10" height="25.6"/>
	<rect x="434" y="219.4" class="st3" width="10" height="25.6"/>
	<rect x="441.6" y="219.4" class="st3" width="10" height="25.6"/>
	<rect x="449.3" y="219.4" class="st3" width="10" height="25.6"/>
	<rect x="456.9" y="219.4" class="st3" width="10" height="25.6"/>
	<rect x="464.5" y="219.4" class="st3" width="10" height="25.6"/>
	<rect x="472.2" y="219.4" class="st3" width="10" height="25.6"/>
	<rect x="479.8" y="219.4" class="st3" width="10" height="25.6"/>
	<rect x="487.4" y="219.4" class="st3" width="10" height="25.6"/>
	<rect x="495.1" y="219.4" class="st3" width="10" height="25.6"/>
	<rect x="502.7" y="219.4" class="st3" width="10" height="25.6"/>
	<rect x="510.3" y="219.4" class="st3" width="10" height="25.6"/>
	<rect x="518" y="219.4" class="st3" width="10" height="25.6"/>
	<rect x="525.6" y="219.4" class="st3" width="10" height="25.6"/>
	<rect x="533.2" y="219.4" class="st3" width="10" height="25.6"/>
	<rect x="540.9" y="219.4" class="st10" width="10" height="25.6"/>
	<rect x="548.5" y="219.4" class="st10" width="10" height="25.6"/>
	<rect x="556.1" y="219.4" class="st10" width="10" height="25.6"/>
	<rect x="563.8" y="219.4" class="st10" width="10" height="25.6"/>
	<rect x="571.4" y="219.4" class="st10" width="10" height="25.6"/>
	<rect x="579" y="219.4" class="st10" width="10" height="25.6"/>
	<rect x="586.7" y="219.4" class="st10" width="10" height="25.6"/>
	<rect x="594.3" y="219.4" class="st4" width="10" height="25.6"/>
	<rect x="601.9" y="219.4" class="st4" width="10" height="25.6"/>
	<rect x="609.6" y="219.4" class="st4" width="10" height="25.6"/>
	<rect x="617.2" y="219.4" class="st4" width="10" height="25.6"/>
	<rect x="624.8" y="219.4" class="st4" width="10" height="25.6"/>
	<rect x="632.5" y="219.4" class="st4" width="10" height="25.6"/>
	<rect x="640.1" y="219.4" class="st4" width="10" height="25.6"/>
	<rect x="647.7" y="219.4" class="st4" width="10" height="25.6"/>
	<rect x="655.4" y="219.4" class="st4" width="10" height="25.6"/>
	<rect x="663" y="219.4" class="st5" width="10" height="25.6"/>
	<rect x="670.6" y="219.4" class="st5" width="10" height="25.6"/>
	<rect x="678.3" y="219.4" class="st6" width="10" height="25.6"/>
	<rect x="685.9" y="219.4" class="st6" width="10" height="25.6"/>
	<rect x="693.6" y="219.4" class="st6" width="10" height="25.6"/>
	<rect x="701.2" y="219.4" class="st6" width="10" height="25.6"/>
	<rect x="708.8" y="219.4" class="st6" width="10" height="25.6"/>
	<rect x="716.4" y="219.4" class="st6" width="10" height="25.6"/>
</g>
<line class="st7" x1="99.6" y1="251.7" x2="729.6" y2="251.7"/>
<path class="st11" d="M161.9,57.8c3.8-6.1,11.5-16.3,24.2-23.8c53.4-31.5,131.4,24,150.5,0c8.7-11,1.2-33.5,0-33.5
	c-1.1,0-7.9,19.7,0,28.9c17.2,20.7,100-13.6,127,0c2.9,1.4,10.5,5.3,13.3,13c1.8,5.1,0.9,10,0,13.2"/>
<g>
	<rect x="105.7" y="57.8" class="st1" width="10" height="25.6"/>
	<rect x="113.4" y="57.8" class="st1" width="10" height="25.6"/>
	<rect x="121" y="57.8" class="st1" width="10" height="25.6"/>
	<rect x="128.6" y="57.8" class="st1" width="10" height="25.6"/>
	<rect x="136.3" y="57.8" class="st1" width="10" height="25.6"/>
	<rect x="143.9" y="57.8" class="st1" width="10" height="25.6"/>
	<rect x="151.5" y="57.8" class="st8" width="10" height="25.6"/>
	<rect x="159.2" y="57.8" class="st2" width="10" height="25.6"/>
	<rect x="166.8" y="57.8" class="st2" width="10" height="25.6"/>
	<rect x="174.4" y="57.8" class="st2" width="10" height="25.6"/>
	<rect x="182.1" y="57.8" class="st2" width="10" height="25.6"/>
	<rect x="189.7" y="57.8" class="st2" width="10" height="25.6"/>
	<rect x="197.3" y="57.8" class="st2" width="10" height="25.6"/>
	<rect x="205" y="57.8" class="st2" width="10" height="25.6"/>
	<rect x="212.6" y="57.8" class="st2" width="10" height="25.6"/>
	<rect x="220.2" y="57.8" class="st2" width="10" height="25.6"/>
	<rect x="227.9" y="57.8" class="st2" width="10" height="25.6"/>
	<rect x="235.5" y="57.8" class="st2" width="10" height="25.6"/>
	<rect x="243.1" y="57.8" class="st2" width="10" height="25.6"/>
	<rect x="250.8" y="57.8" class="st2" width="10" height="25.6"/>
	<rect x="258.4" y="57.8" class="st2" width="10" height="25.6"/>
	<rect x="266" y="57.8" class="st2" width="10" height="25.6"/>
	<rect x="273.7" y="57.8" class="st2" width="10" height="25.6"/>
	<rect x="281.3" y="57.8" class="st2" width="10" height="25.6"/>
	<rect x="288.9" y="57.8" class="st2" width="10" height="25.6"/>
	<rect x="296.6" y="57.8" class="st2" width="10" height="25.6"/>
	<rect x="304.2" y="57.8" class="st2" width="10" height="25.6"/>
	<rect x="311.8" y="57.8" class="st2" width="10" height="25.6"/>
	<rect x="319.5" y="57.8" class="st2" width="10" height="25.6"/>
	<rect x="327.1" y="57.8" class="st2" width="10" height="25.6"/>
	<rect x="334.7" y="57.8" class="st3" width="10" height="25.6"/>
	<rect x="342.4" y="57.8" class="st3" width="10" height="25.6"/>
	<rect x="342.4" y="57.8" class="st12" width="10" height="25.6"/>
	<rect x="350" y="57.8" class="st3" width="10" height="25.6"/>
	<rect x="357.7" y="57.8" class="st3" width="10" height="25.6"/>
	<rect x="365.3" y="57.8" class="st3" width="10" height="25.6"/>
	<rect x="372.9" y="57.8" class="st3" width="10" height="25.6"/>
	<rect x="380.6" y="57.8" class="st3" width="10" height="25.6"/>
	<rect x="388.2" y="57.8" class="st3" width="10" height="25.6"/>
	<rect x="395.8" y="57.8" class="st3" width="10" height="25.6"/>
	<rect x="403.5" y="57.8" class="st3" width="10" height="25.6"/>
	<rect x="411.1" y="57.8" class="st3" width="10" height="25.6"/>
	<rect x="418.7" y="57.8" class="st3" width="10" height="25.6"/>
	<rect x="426.4" y="57.8" class="st3" width="10" height="25.6"/>
	<rect x="434" y="57.8" class="st3" width="10" height="25.6"/>
	<rect x="441.6" y="57.8" class="st3" width="10" height="25.6"/>
	<rect x="449.3" y="57.8" class="st3" width="10" height="25.6"/>
	<rect x="456.9" y="57.8" class="st3" width="10" height="25.6"/>
	<rect x="464.5" y="57.8" class="st3" width="10" height="25.6"/>
	<rect x="472.2" y="57.8" class="st3" width="10" height="25.6"/>
	<rect x="479.8" y="57.8" class="st4" width="10" height="25.6"/>
	<rect x="487.4" y="57.8" class="st4" width="10" height="25.6"/>
	<rect x="495.1" y="57.8" class="st4" width="10" height="25.6"/>
	<rect x="502.7" y="57.8" class="st4" width="10" height="25.6"/>
	<rect x="510.3" y="57.8" class="st4" width="10" height="25.6"/>
	<rect x="518" y="57.8" class="st4" width="10" height="25.6"/>
	<rect x="525.6" y="57.8" class="st4" width="10" height="25.6"/>
	<rect x="533.2" y="57.8" class="st4" width="10" height="25.6"/>
	<rect x="540.9" y="57.8" class="st4" width="10" height="25.6"/>
	<rect x="548.5" y="57.8" class="st5" width="10" height="25.6"/>
	<rect x="556.1" y="57.8" class="st5" width="10" height="25.6"/>
	<rect x="563.8" y="57.8" class="st5" width="10" height="25.6"/>
	<rect x="571.4" y="57.8" class="st5" width="10" height="25.6"/>
	<rect x="579" y="57.8" class="st5" width="10" height="25.6"/>
	<rect x="586.7" y="57.8" class="st5" width="10" height="25.6"/>
	<rect x="594.3" y="57.8" class="st6" width="10" height="25.6"/>
	<rect x="601.9" y="57.8" class="st6" width="10" height="25.6"/>
	<rect x="609.6" y="57.8" class="st6" width="10" height="25.6"/>
	<rect x="617.2" y="57.8" class="st6" width="10" height="25.6"/>
	<rect x="624.8" y="57.8" class="st6" width="10" height="25.6"/>
	<rect x="632.5" y="57.8" class="st6" width="10" height="25.6"/>
	<rect x="640.1" y="57.8" class="st6" width="10" height="25.6"/>
	<rect x="647.7" y="57.8" class="st6" width="10" height="25.6"/>
	<rect x="655.4" y="57.8" class="st6" width="10" height="25.6"/>
	<rect x="663" y="57.8" class="st6" width="10" height="25.6"/>
</g>
<line class="st7" x1="99.6" y1="90.3" x2="729.6" y2="90.3"/>
<rect x="21.7" y="64.4" class="st13" width="52.6" height="13"/>
<text transform="matrix(0.766 0.6428 -0.6428 0.766 27.3234 16.3833)" class="st14 st15">1996-2020</text>
<rect x="20.5" y="116.4" class="st13" width="52.6" height="13"/>
<text transform="matrix(0.766 0.6428 -0.6428 0.766 27.3234 75.1433)" class="st14 st15">1971-1995</text>
<text transform="matrix(0.766 0.6428 -0.6428 0.766 27.3234 126.5156)" class="st14 st15">1946-1970</text>
<rect x="20.4" y="226.6" class="st13" width="52.6" height="13"/>
<text transform="matrix(0.766 0.6428 -0.6428 0.766 27.3234 178.1416)" class="st14 st15">1920-1945</text>
<g>
	<line class="st7" x1="18.2" y1="21.4" x2="101.9" y2="91.6"/>
</g>
<g>
	<line class="st7" x1="18.2" y1="75.8" x2="101.9" y2="146"/>
</g>
<g>
	<line class="st7" x1="18.2" y1="129.4" x2="101.9" y2="199.6"/>
</g>
<g>
	<line class="st7" x1="18.2" y1="183" x2="101.9" y2="253.2"/>
</g>
<g id="ai2html-settings">
	<rect x="-450" y="-87.5" class="st13" width="400" height="418"/>
	<text transform="matrix(1 0 0 1 -450 -76.8501)" style="font-family:'ArialMT'; font-size:15px;">ai2html-settings</text>
	<text transform="matrix(1 0 0 1 -450 -57.8501)" style="font-family:'ArialMT'; font-size:15px;">settings_version: 0.115.5</text>
	<text transform="matrix(1 0 0 1 -450 -38.8501)" style="font-family:'ArialMT'; font-size:15px;">image_format: auto</text>
	<text transform="matrix(1 0 0 1 -450 -19.8501)" style="font-family:'ArialMT'; font-size:15px;">responsiveness: fixed</text>
	<text transform="matrix(1 0 0 1 -450 -0.8501)" style="font-family:'ArialMT'; font-size:15px;">output: one-file</text>
	<text transform="matrix(1 0 0 1 -450 18.1499)" style="font-family:'ArialMT'; font-size:15px;">html_output_path: /ai2html-output/</text>
	<text transform="matrix(1 0 0 1 -450 37.1499)" style="font-family:'ArialMT'; font-size:15px;">html_output_extension: .html</text>
	<text transform="matrix(1 0 0 1 -450 56.1499)" style="font-family:'ArialMT'; font-size:15px;">image_output_path: </text>
	<text transform="matrix(1 0 0 1 -450 75.1499)" style="font-family:'ArialMT'; font-size:15px;">local_preview_template: </text>
	<text transform="matrix(1 0 0 1 -450 94.1499)" style="font-family:'ArialMT'; font-size:15px;">png_number_of_colors: 128</text>
	<text transform="matrix(1 0 0 1 -450 113.1499)" style="font-family:'ArialMT'; font-size:15px;">jpg_quality: 60</text>
	<text transform="matrix(1 0 0 1 -450 132.1499)" style="font-family:'ArialMT'; font-size:15px;">headline: </text>
	<text transform="matrix(1 0 0 1 -450 151.1499)" style="font-family:'ArialMT'; font-size:15px;">leadin: </text>
	<text transform="matrix(1 0 0 1 -450 170.1499)" style="font-family:'ArialMT'; font-size:15px;">notes: </text>
	<text transform="matrix(1 0 0 1 -450 189.1499)" style="font-family:'ArialMT'; font-size:15px;">sources: </text>
	<text transform="matrix(1 0 0 1 -450 208.1499)" style="font-family:'ArialMT'; font-size:15px;">credit: </text>
</g>
</svg>
