<?xml version="1.0" encoding="utf-8"?>
<!-- Generator: Adobe Illustrator 27.2.0, SVG Export Plug-In . SVG Version: 6.00 Build 0)  -->
<svg version="1.1" id="Layer_1" xmlns="http://www.w3.org/2000/svg" xmlns:xlink="http://www.w3.org/1999/xlink" x="0px" y="0px"
	 viewBox="0 0 750 900" style="enable-background:new 0 0 750 900;" xml:space="preserve">
<style type="text/css">
	.st0{fill:none;}
	
		.st1{fill:#93AA00;fill-opacity:0.55;stroke:#000000;stroke-width:0.75;stroke-linejoin:round;stroke-miterlimit:10;stroke-opacity:0.55;}
	
		.st2{fill:#00C19F;fill-opacity:0.55;stroke:#000000;stroke-width:0.75;stroke-linejoin:round;stroke-miterlimit:10;stroke-opacity:0.55;}
	
		.st3{fill:#00B9E3;fill-opacity:0.55;stroke:#000000;stroke-width:0.75;stroke-linejoin:round;stroke-miterlimit:10;stroke-opacity:0.55;}
	
		.st4{fill:#DB72FB;fill-opacity:0.55;stroke:#000000;stroke-width:0.75;stroke-linejoin:round;stroke-miterlimit:10;stroke-opacity:0.55;}
	
		.st5{fill:#FF61C3;fill-opacity:0.55;stroke:#000000;stroke-width:0.75;stroke-linejoin:round;stroke-miterlimit:10;stroke-opacity:0.55;}
	
		.st6{fill:#F8766D;fill-opacity:0.55;stroke:#000000;stroke-width:0.75;stroke-linejoin:round;stroke-miterlimit:10;stroke-opacity:0.55;}
	
		.st7{fill:#D39200;fill-opacity:0.55;stroke:#000000;stroke-width:0.75;stroke-linejoin:round;stroke-miterlimit:10;stroke-opacity:0.55;}
	.st8{opacity:0.55;fill:#93AA00;}
	.st9{opacity:0.55;fill:none;stroke:#000000;stroke-width:0.75;stroke-linejoin:round;stroke-miterlimit:10;}
	.st10{opacity:0.55;fill:#00C19F;}
	
		.st11{fill:#619CFF;fill-opacity:0.55;stroke:#000000;stroke-width:0.75;stroke-linejoin:round;stroke-miterlimit:10;stroke-opacity:0.55;}
	
		.st12{fill:#00BA38;fill-opacity:0.55;stroke:#000000;stroke-width:0.75;stroke-linejoin:round;stroke-miterlimit:10;stroke-opacity:0.55;}
	.st13{opacity:0.55;fill:#FF61C3;}
	.st14{opacity:0.55;fill:#F8766D;}
	.st15{font-family:'ArialMT';}
	.st16{font-size:11px;}
	.st17{fill:#F8766D;stroke:#000000;stroke-width:0.75;stroke-linejoin:round;stroke-miterlimit:10;}
	.st18{fill:#D39200;stroke:#000000;stroke-width:0.75;stroke-linejoin:round;stroke-miterlimit:10;}
	.st19{fill:#93AA00;stroke:#000000;stroke-width:0.75;stroke-linejoin:round;stroke-miterlimit:10;}
	.st20{fill:#00BA38;stroke:#000000;stroke-width:0.75;stroke-linejoin:round;stroke-miterlimit:10;}
	.st21{fill:#00C19F;stroke:#000000;stroke-width:0.75;stroke-linejoin:round;stroke-miterlimit:10;}
	.st22{fill:#00B9E3;stroke:#000000;stroke-width:0.75;stroke-linejoin:round;stroke-miterlimit:10;}
	.st23{fill:#619CFF;stroke:#000000;stroke-width:0.75;stroke-linejoin:round;stroke-miterlimit:10;}
	.st24{fill:#DB72FB;stroke:#000000;stroke-width:0.75;stroke-linejoin:round;stroke-miterlimit:10;}
	.st25{fill:#FF61C3;stroke:#000000;stroke-width:0.75;stroke-linejoin:round;stroke-miterlimit:10;}
	.st26{font-size:8.8px;}
	.st27{fill-opacity:0.55;stroke:#000000;stroke-width:0.75;stroke-linejoin:round;stroke-miterlimit:10;stroke-opacity:0.55;}
	.st28{font-size:13.2px;}
</style>
<rect x="-3" class="st0" width="900" height="900"/>
<rect x="-3" class="st0" width="900" height="900"/>
<rect x="89.7" y="79.6" class="st0" width="656" height="882.1"/>
<circle class="st1" cx="112.3" cy="798.2" r="6.4"/>
<circle class="st2" cx="112.3" cy="798.2" r="6.4"/>
<circle class="st3" cx="112.3" cy="798.2" r="6.4"/>
<circle class="st3" cx="125" cy="798.2" r="6.4"/>
<circle class="st4" cx="112.3" cy="798.2" r="6.4"/>
<circle class="st4" cx="125" cy="798.2" r="6.4"/>
<circle class="st5" cx="112.3" cy="798.2" r="6.4"/>
<circle class="st5" cx="125" cy="798.2" r="6.4"/>
<circle class="st5" cx="137.8" cy="798.2" r="6.4"/>
<circle class="st5" cx="150.5" cy="798.2" r="6.4"/>
<circle class="st6" cx="112.3" cy="628.6" r="6.4"/>
<circle class="st6" cx="125" cy="628.6" r="6.4"/>
<circle class="st6" cx="137.8" cy="628.6" r="6.4"/>
<circle class="st6" cx="150.5" cy="628.6" r="6.4"/>
<circle class="st7" cx="112.3" cy="628.6" r="6.4"/>
<circle class="st7" cx="125" cy="628.6" r="6.4"/>
<circle class="st1" cx="112.3" cy="628.6" r="6.4"/>
<circle class="st1" cx="125" cy="628.6" r="6.4"/>
<circle class="st1" cx="137.8" cy="628.6" r="6.4"/>
<circle class="st1" cx="150.5" cy="628.6" r="6.4"/>
<circle class="st1" cx="163.2" cy="628.6" r="6.4"/>
<circle class="st1" cx="175.9" cy="628.6" r="6.4"/>
<circle class="st1" cx="188.6" cy="628.6" r="6.4"/>
<circle class="st1" cx="201.4" cy="628.6" r="6.4"/>
<circle class="st1" cx="214.1" cy="628.6" r="6.4"/>
<g>
	<rect x="223.5" y="613.2" class="st8" width="6.7" height="30.7"/>
	<rect x="223.5" y="613.2" class="st9" width="6.7" height="30.7"/>
</g>
<g>
	<rect x="236.2" y="613.2" class="st8" width="6.7" height="30.7"/>
	<rect x="236.2" y="613.2" class="st9" width="6.7" height="30.7"/>
</g>
<g>
	<rect x="248.9" y="613.2" class="st8" width="6.7" height="30.7"/>
	<rect x="248.9" y="613.2" class="st9" width="6.7" height="30.7"/>
</g>
<g>
	<rect x="261.6" y="613.2" class="st8" width="6.7" height="30.7"/>
	<rect x="261.6" y="613.2" class="st9" width="6.7" height="30.7"/>
</g>
<g>
	<rect x="274.3" y="613.2" class="st8" width="6.7" height="30.7"/>
	<rect x="274.3" y="613.2" class="st9" width="6.7" height="30.7"/>
</g>
<g>
	<rect x="287.1" y="613.2" class="st8" width="6.7" height="30.7"/>
	<rect x="287.1" y="613.2" class="st9" width="6.7" height="30.7"/>
</g>
<g>
	<rect x="299.8" y="613.2" class="st8" width="6.7" height="30.7"/>
	<rect x="299.8" y="613.2" class="st9" width="6.7" height="30.7"/>
</g>
<g>
	<rect x="312.5" y="613.2" class="st8" width="6.7" height="30.7"/>
	<rect x="312.5" y="613.2" class="st9" width="6.7" height="30.7"/>
</g>
<g>
	<rect x="325.2" y="613.2" class="st8" width="6.7" height="30.7"/>
	<rect x="325.2" y="613.2" class="st9" width="6.7" height="30.7"/>
</g>
<g>
	<rect x="338" y="613.2" class="st8" width="6.7" height="30.7"/>
	<rect x="338" y="613.2" class="st9" width="6.7" height="30.7"/>
</g>
<g>
	<rect x="350.7" y="613.2" class="st8" width="6.7" height="30.7"/>
	<rect x="350.7" y="613.2" class="st9" width="6.7" height="30.7"/>
</g>
<g>
	<rect x="363.4" y="613.2" class="st8" width="6.7" height="30.7"/>
	<rect x="363.4" y="613.2" class="st9" width="6.7" height="30.7"/>
</g>
<g>
	<rect x="376.1" y="613.2" class="st8" width="6.7" height="30.7"/>
	<rect x="376.1" y="613.2" class="st9" width="6.7" height="30.7"/>
</g>
<g>
	<rect x="388.9" y="613.2" class="st8" width="6.7" height="30.7"/>
	<rect x="388.9" y="613.2" class="st9" width="6.7" height="30.7"/>
</g>
<g>
	<rect x="401.6" y="613.2" class="st8" width="6.7" height="30.7"/>
	<rect x="401.6" y="613.2" class="st9" width="6.7" height="30.7"/>
</g>
<g>
	<rect x="414.3" y="613.2" class="st8" width="6.7" height="30.7"/>
	<rect x="414.3" y="613.2" class="st9" width="6.7" height="30.7"/>
</g>
<g>
	<rect x="427" y="613.2" class="st8" width="6.7" height="30.7"/>
	<rect x="427" y="613.2" class="st9" width="6.7" height="30.7"/>
</g>
<g>
	<rect x="439.7" y="613.2" class="st8" width="6.7" height="30.7"/>
	<rect x="439.7" y="613.2" class="st9" width="6.7" height="30.7"/>
</g>
<g>
	<rect x="452.5" y="613.2" class="st8" width="6.7" height="30.7"/>
	<rect x="452.5" y="613.2" class="st9" width="6.7" height="30.7"/>
</g>
<g>
	<rect x="465.2" y="613.2" class="st8" width="6.7" height="30.7"/>
	<rect x="465.2" y="613.2" class="st9" width="6.7" height="30.7"/>
</g>
<g>
	<rect x="477.9" y="613.2" class="st8" width="6.7" height="30.7"/>
	<rect x="477.9" y="613.2" class="st9" width="6.7" height="30.7"/>
</g>
<g>
	<rect x="490.6" y="613.2" class="st8" width="6.7" height="30.7"/>
	<rect x="490.6" y="613.2" class="st9" width="6.7" height="30.7"/>
</g>
<g>
	<rect x="503.4" y="613.2" class="st8" width="6.7" height="30.7"/>
	<rect x="503.4" y="613.2" class="st9" width="6.7" height="30.7"/>
</g>
<g>
	<rect x="516.1" y="613.2" class="st8" width="6.7" height="30.7"/>
	<rect x="516.1" y="613.2" class="st9" width="6.7" height="30.7"/>
</g>
<g>
	<rect x="528.8" y="613.2" class="st8" width="6.7" height="30.7"/>
	<rect x="528.8" y="613.2" class="st9" width="6.7" height="30.7"/>
</g>
<g>
	<rect x="541.5" y="613.2" class="st8" width="6.7" height="30.7"/>
	<rect x="541.5" y="613.2" class="st9" width="6.7" height="30.7"/>
</g>
<circle class="st2" cx="112.3" cy="628.6" r="6.4"/>
<circle class="st2" cx="125" cy="628.6" r="6.4"/>
<circle class="st2" cx="137.8" cy="628.6" r="6.4"/>
<circle class="st2" cx="150.5" cy="628.6" r="6.4"/>
<circle class="st2" cx="163.2" cy="628.6" r="6.4"/>
<circle class="st2" cx="175.9" cy="628.6" r="6.4"/>
<circle class="st2" cx="188.6" cy="628.6" r="6.4"/>
<circle class="st2" cx="201.4" cy="628.6" r="6.4"/>
<circle class="st2" cx="214.1" cy="628.6" r="6.4"/>
<g>
	<rect x="223.5" y="613.2" class="st10" width="6.7" height="30.7"/>
	<rect x="223.5" y="613.2" class="st9" width="6.7" height="30.7"/>
</g>
<g>
	<rect x="236.2" y="613.2" class="st10" width="6.7" height="30.7"/>
	<rect x="236.2" y="613.2" class="st9" width="6.7" height="30.7"/>
</g>
<g>
	<rect x="248.9" y="613.2" class="st10" width="6.7" height="30.7"/>
	<rect x="248.9" y="613.2" class="st9" width="6.7" height="30.7"/>
</g>
<g>
	<rect x="261.6" y="613.2" class="st10" width="6.7" height="30.7"/>
	<rect x="261.6" y="613.2" class="st9" width="6.7" height="30.7"/>
</g>
<g>
	<rect x="274.3" y="613.2" class="st10" width="6.7" height="30.7"/>
	<rect x="274.3" y="613.2" class="st9" width="6.7" height="30.7"/>
</g>
<g>
	<rect x="287.1" y="613.2" class="st10" width="6.7" height="30.7"/>
	<rect x="287.1" y="613.2" class="st9" width="6.7" height="30.7"/>
</g>
<g>
	<rect x="299.8" y="613.2" class="st10" width="6.7" height="30.7"/>
	<rect x="299.8" y="613.2" class="st9" width="6.7" height="30.7"/>
</g>
<circle class="st3" cx="112.3" cy="628.6" r="6.4"/>
<circle class="st3" cx="125" cy="628.6" r="6.4"/>
<circle class="st3" cx="137.8" cy="628.6" r="6.4"/>
<circle class="st3" cx="150.5" cy="628.6" r="6.4"/>
<circle class="st3" cx="163.2" cy="628.6" r="6.4"/>
<circle class="st3" cx="175.9" cy="628.6" r="6.4"/>
<circle class="st3" cx="188.6" cy="628.6" r="6.4"/>
<circle class="st11" cx="112.3" cy="628.6" r="6.4"/>
<circle class="st11" cx="125" cy="628.6" r="6.4"/>
<circle class="st11" cx="137.8" cy="628.6" r="6.4"/>
<circle class="st11" cx="150.5" cy="628.6" r="6.4"/>
<circle class="st11" cx="163.2" cy="628.6" r="6.4"/>
<circle class="st11" cx="175.9" cy="628.6" r="6.4"/>
<circle class="st11" cx="188.6" cy="628.6" r="6.4"/>
<circle class="st11" cx="201.4" cy="628.6" r="6.4"/>
<circle class="st11" cx="214.1" cy="628.6" r="6.4"/>
<circle class="st4" cx="112.3" cy="628.6" r="6.4"/>
<circle class="st4" cx="125" cy="628.6" r="6.4"/>
<circle class="st5" cx="112.3" cy="628.6" r="6.4"/>
<circle class="st5" cx="125" cy="628.6" r="6.4"/>
<circle class="st5" cx="137.8" cy="628.6" r="6.4"/>
<circle class="st5" cx="150.5" cy="628.6" r="6.4"/>
<circle class="st5" cx="163.2" cy="628.6" r="6.4"/>
<circle class="st5" cx="175.9" cy="628.6" r="6.4"/>
<circle class="st6" cx="112.3" cy="458.9" r="6.4"/>
<circle class="st6" cx="125" cy="458.9" r="6.4"/>
<circle class="st6" cx="137.8" cy="458.9" r="6.4"/>
<circle class="st6" cx="150.5" cy="458.9" r="6.4"/>
<circle class="st6" cx="163.2" cy="458.9" r="6.4"/>
<circle class="st7" cx="112.3" cy="458.9" r="6.4"/>
<circle class="st1" cx="112.3" cy="458.9" r="6.4"/>
<circle class="st1" cx="125" cy="458.9" r="6.4"/>
<circle class="st1" cx="137.8" cy="458.9" r="6.4"/>
<circle class="st1" cx="150.5" cy="458.9" r="6.4"/>
<circle class="st1" cx="163.2" cy="458.9" r="6.4"/>
<g>
	<rect x="172.6" y="443.6" class="st8" width="6.7" height="30.7"/>
	<rect x="172.6" y="443.6" class="st9" width="6.7" height="30.7"/>
</g>
<g>
	<rect x="185.3" y="443.6" class="st8" width="6.7" height="30.7"/>
	<rect x="185.3" y="443.6" class="st9" width="6.7" height="30.7"/>
</g>
<g>
	<rect x="198" y="443.6" class="st8" width="6.7" height="30.7"/>
	<rect x="198" y="443.6" class="st9" width="6.7" height="30.7"/>
</g>
<g>
	<rect x="210.7" y="443.6" class="st8" width="6.7" height="30.7"/>
	<rect x="210.7" y="443.6" class="st9" width="6.7" height="30.7"/>
</g>
<g>
	<rect x="223.5" y="443.6" class="st8" width="6.7" height="30.7"/>
	<rect x="223.5" y="443.6" class="st9" width="6.7" height="30.7"/>
</g>
<g>
	<rect x="236.2" y="443.6" class="st8" width="6.7" height="30.7"/>
	<rect x="236.2" y="443.6" class="st9" width="6.7" height="30.7"/>
</g>
<g>
	<rect x="248.9" y="443.6" class="st8" width="6.7" height="30.7"/>
	<rect x="248.9" y="443.6" class="st9" width="6.7" height="30.7"/>
</g>
<g>
	<rect x="261.6" y="443.6" class="st8" width="6.7" height="30.7"/>
	<rect x="261.6" y="443.6" class="st9" width="6.7" height="30.7"/>
</g>
<g>
	<rect x="274.3" y="443.6" class="st8" width="6.7" height="30.7"/>
	<rect x="274.3" y="443.6" class="st9" width="6.7" height="30.7"/>
</g>
<g>
	<rect x="287.1" y="443.6" class="st8" width="6.7" height="30.7"/>
	<rect x="287.1" y="443.6" class="st9" width="6.7" height="30.7"/>
</g>
<g>
	<rect x="299.8" y="443.6" class="st8" width="6.7" height="30.7"/>
	<rect x="299.8" y="443.6" class="st9" width="6.7" height="30.7"/>
</g>
<g>
	<rect x="312.5" y="443.6" class="st8" width="6.7" height="30.7"/>
	<rect x="312.5" y="443.6" class="st9" width="6.7" height="30.7"/>
</g>
<g>
	<rect x="325.2" y="443.6" class="st8" width="6.7" height="30.7"/>
	<rect x="325.2" y="443.6" class="st9" width="6.7" height="30.7"/>
</g>
<g>
	<rect x="338" y="443.6" class="st8" width="6.7" height="30.7"/>
	<rect x="338" y="443.6" class="st9" width="6.7" height="30.7"/>
</g>
<g>
	<rect x="350.7" y="443.6" class="st8" width="6.7" height="30.7"/>
	<rect x="350.7" y="443.6" class="st9" width="6.7" height="30.7"/>
</g>
<g>
	<rect x="363.4" y="443.6" class="st8" width="6.7" height="30.7"/>
	<rect x="363.4" y="443.6" class="st9" width="6.7" height="30.7"/>
</g>
<g>
	<rect x="376.1" y="443.6" class="st8" width="6.7" height="30.7"/>
	<rect x="376.1" y="443.6" class="st9" width="6.7" height="30.7"/>
</g>
<g>
	<rect x="388.9" y="443.6" class="st8" width="6.7" height="30.7"/>
	<rect x="388.9" y="443.6" class="st9" width="6.7" height="30.7"/>
</g>
<g>
	<rect x="401.6" y="443.6" class="st8" width="6.7" height="30.7"/>
	<rect x="401.6" y="443.6" class="st9" width="6.7" height="30.7"/>
</g>
<g>
	<rect x="414.3" y="443.6" class="st8" width="6.7" height="30.7"/>
	<rect x="414.3" y="443.6" class="st9" width="6.7" height="30.7"/>
</g>
<g>
	<rect x="427" y="443.6" class="st8" width="6.7" height="30.7"/>
	<rect x="427" y="443.6" class="st9" width="6.7" height="30.7"/>
</g>
<g>
	<rect x="439.7" y="443.6" class="st8" width="6.7" height="30.7"/>
	<rect x="439.7" y="443.6" class="st9" width="6.7" height="30.7"/>
</g>
<g>
	<rect x="452.5" y="443.6" class="st8" width="6.7" height="30.7"/>
	<rect x="452.5" y="443.6" class="st9" width="6.7" height="30.7"/>
</g>
<g>
	<rect x="465.2" y="443.6" class="st8" width="6.7" height="30.7"/>
	<rect x="465.2" y="443.6" class="st9" width="6.7" height="30.7"/>
</g>
<circle class="st12" cx="112.3" cy="458.9" r="6.4"/>
<circle class="st2" cx="112.3" cy="458.9" r="6.4"/>
<circle class="st2" cx="125" cy="458.9" r="6.4"/>
<circle class="st2" cx="137.8" cy="458.9" r="6.4"/>
<circle class="st2" cx="150.5" cy="458.9" r="6.4"/>
<circle class="st2" cx="163.2" cy="458.9" r="6.4"/>
<g>
	<rect x="172.6" y="443.6" class="st10" width="6.7" height="30.7"/>
	<rect x="172.6" y="443.6" class="st9" width="6.7" height="30.7"/>
</g>
<g>
	<rect x="185.3" y="443.6" class="st10" width="6.7" height="30.7"/>
	<rect x="185.3" y="443.6" class="st9" width="6.7" height="30.7"/>
</g>
<g>
	<rect x="198" y="443.6" class="st10" width="6.7" height="30.7"/>
	<rect x="198" y="443.6" class="st9" width="6.7" height="30.7"/>
</g>
<g>
	<rect x="210.7" y="443.6" class="st10" width="6.7" height="30.7"/>
	<rect x="210.7" y="443.6" class="st9" width="6.7" height="30.7"/>
</g>
<g>
	<rect x="223.5" y="443.6" class="st10" width="6.7" height="30.7"/>
	<rect x="223.5" y="443.6" class="st9" width="6.7" height="30.7"/>
</g>
<g>
	<rect x="236.2" y="443.6" class="st10" width="6.7" height="30.7"/>
	<rect x="236.2" y="443.6" class="st9" width="6.7" height="30.7"/>
</g>
<g>
	<rect x="248.9" y="443.6" class="st10" width="6.7" height="30.7"/>
	<rect x="248.9" y="443.6" class="st9" width="6.7" height="30.7"/>
</g>
<g>
	<rect x="261.6" y="443.6" class="st10" width="6.7" height="30.7"/>
	<rect x="261.6" y="443.6" class="st9" width="6.7" height="30.7"/>
</g>
<g>
	<rect x="274.3" y="443.6" class="st10" width="6.7" height="30.7"/>
	<rect x="274.3" y="443.6" class="st9" width="6.7" height="30.7"/>
</g>
<g>
	<rect x="287.1" y="443.6" class="st10" width="6.7" height="30.7"/>
	<rect x="287.1" y="443.6" class="st9" width="6.7" height="30.7"/>
</g>
<g>
	<rect x="299.8" y="443.6" class="st10" width="6.7" height="30.7"/>
	<rect x="299.8" y="443.6" class="st9" width="6.7" height="30.7"/>
</g>
<g>
	<rect x="312.5" y="443.6" class="st10" width="6.7" height="30.7"/>
	<rect x="312.5" y="443.6" class="st9" width="6.7" height="30.7"/>
</g>
<circle class="st3" cx="112.3" cy="458.9" r="6.4"/>
<circle class="st11" cx="112.3" cy="458.9" r="6.4"/>
<circle class="st11" cx="125" cy="458.9" r="6.4"/>
<circle class="st11" cx="137.8" cy="458.9" r="6.4"/>
<circle class="st11" cx="150.5" cy="458.9" r="6.4"/>
<circle class="st11" cx="163.2" cy="458.9" r="6.4"/>
<circle class="st4" cx="112.3" cy="458.9" r="6.4"/>
<circle class="st4" cx="125" cy="458.9" r="6.4"/>
<circle class="st4" cx="137.8" cy="458.9" r="6.4"/>
<circle class="st4" cx="150.5" cy="458.9" r="6.4"/>
<circle class="st5" cx="112.3" cy="458.9" r="6.4"/>
<circle class="st5" cx="125" cy="458.9" r="6.4"/>
<circle class="st5" cx="137.8" cy="458.9" r="6.4"/>
<circle class="st5" cx="150.5" cy="458.9" r="6.4"/>
<circle class="st5" cx="163.2" cy="458.9" r="6.4"/>
<g>
	<rect x="172.6" y="443.6" class="st13" width="6.7" height="30.7"/>
	<rect x="172.6" y="443.6" class="st9" width="6.7" height="30.7"/>
</g>
<g>
	<rect x="185.3" y="443.6" class="st13" width="6.7" height="30.7"/>
	<rect x="185.3" y="443.6" class="st9" width="6.7" height="30.7"/>
</g>
<g>
	<rect x="198" y="443.6" class="st13" width="6.7" height="30.7"/>
	<rect x="198" y="443.6" class="st9" width="6.7" height="30.7"/>
</g>
<g>
	<rect x="210.7" y="443.6" class="st13" width="6.7" height="30.7"/>
	<rect x="210.7" y="443.6" class="st9" width="6.7" height="30.7"/>
</g>
<g>
	<rect x="223.5" y="443.6" class="st13" width="6.7" height="30.7"/>
	<rect x="223.5" y="443.6" class="st9" width="6.7" height="30.7"/>
</g>
<g>
	<rect x="236.2" y="443.6" class="st13" width="6.7" height="30.7"/>
	<rect x="236.2" y="443.6" class="st9" width="6.7" height="30.7"/>
</g>
<g>
	<rect x="248.9" y="443.6" class="st13" width="6.7" height="30.7"/>
	<rect x="248.9" y="443.6" class="st9" width="6.7" height="30.7"/>
</g>
<g>
	<rect x="261.6" y="443.6" class="st13" width="6.7" height="30.7"/>
	<rect x="261.6" y="443.6" class="st9" width="6.7" height="30.7"/>
</g>
<g>
	<rect x="274.3" y="443.6" class="st13" width="6.7" height="30.7"/>
	<rect x="274.3" y="443.6" class="st9" width="6.7" height="30.7"/>
</g>
<g>
	<rect x="287.1" y="443.6" class="st13" width="6.7" height="30.7"/>
	<rect x="287.1" y="443.6" class="st9" width="6.7" height="30.7"/>
</g>
<g>
	<rect x="299.8" y="443.6" class="st13" width="6.7" height="30.7"/>
	<rect x="299.8" y="443.6" class="st9" width="6.7" height="30.7"/>
</g>
<g>
	<rect x="312.5" y="443.6" class="st13" width="6.7" height="30.7"/>
	<rect x="312.5" y="443.6" class="st9" width="6.7" height="30.7"/>
</g>
<circle class="st6" cx="112.3" cy="289.3" r="6.4"/>
<circle class="st6" cx="125" cy="289.3" r="6.4"/>
<circle class="st6" cx="137.8" cy="289.3" r="6.4"/>
<circle class="st6" cx="150.5" cy="289.3" r="6.4"/>
<circle class="st6" cx="163.2" cy="289.3" r="6.4"/>
<g>
	<rect x="199.6" y="273.9" class="st14" width="6.7" height="30.7"/>
	<rect x="199.6" y="273.9" class="st9" width="6.7" height="30.7"/>
</g>
<circle class="st1" cx="112.3" cy="289.3" r="6.4"/>
<circle class="st1" cx="125" cy="289.3" r="6.4"/>
<circle class="st1" cx="137.8" cy="289.3" r="6.4"/>
<circle class="st1" cx="150.5" cy="289.3" r="6.4"/>
<circle class="st1" cx="163.2" cy="289.3" r="6.4"/>
<g>
	<rect x="199.6" y="273.9" class="st8" width="6.7" height="30.7"/>
	<rect x="199.6" y="273.9" class="st9" width="6.7" height="30.7"/>
</g>
<g>
	<rect x="212.3" y="273.9" class="st8" width="6.7" height="30.7"/>
	<rect x="212.3" y="273.9" class="st9" width="6.7" height="30.7"/>
</g>
<g>
	<rect x="225" y="273.9" class="st8" width="6.7" height="30.7"/>
	<rect x="225" y="273.9" class="st9" width="6.7" height="30.7"/>
</g>
<g>
	<rect x="238.7" y="273.9" class="st8" width="6.7" height="30.7"/>
	<rect x="238.7" y="273.9" class="st9" width="6.7" height="30.7"/>
</g>
<g>
	<rect x="251.5" y="273.9" class="st8" width="6.7" height="30.7"/>
	<rect x="251.5" y="273.9" class="st9" width="6.7" height="30.7"/>
</g>
<g>
	<rect x="264.2" y="273.9" class="st8" width="6.7" height="30.7"/>
	<rect x="264.2" y="273.9" class="st9" width="6.7" height="30.7"/>
</g>
<g>
	<rect x="276.9" y="273.9" class="st8" width="6.7" height="30.7"/>
	<rect x="276.9" y="273.9" class="st9" width="6.7" height="30.7"/>
</g>
<g>
	<rect x="289.6" y="273.9" class="st8" width="6.7" height="30.7"/>
	<rect x="289.6" y="273.9" class="st9" width="6.7" height="30.7"/>
</g>
<g>
	<rect x="302.3" y="273.9" class="st8" width="6.7" height="30.7"/>
	<rect x="302.3" y="273.9" class="st9" width="6.7" height="30.7"/>
</g>
<g>
	<rect x="315.1" y="273.9" class="st8" width="6.7" height="30.7"/>
	<rect x="315.1" y="273.9" class="st9" width="6.7" height="30.7"/>
</g>
<g>
	<rect x="327.8" y="273.9" class="st8" width="6.7" height="30.7"/>
	<rect x="327.8" y="273.9" class="st9" width="6.7" height="30.7"/>
</g>
<g>
	<rect x="340.5" y="273.9" class="st8" width="6.7" height="30.7"/>
	<rect x="340.5" y="273.9" class="st9" width="6.7" height="30.7"/>
</g>
<g>
	<rect x="353.2" y="273.9" class="st8" width="6.7" height="30.7"/>
	<rect x="353.2" y="273.9" class="st9" width="6.7" height="30.7"/>
</g>
<g>
	<rect x="366" y="273.9" class="st8" width="6.7" height="30.7"/>
	<rect x="366" y="273.9" class="st9" width="6.7" height="30.7"/>
</g>
<g>
	<rect x="378.7" y="273.9" class="st8" width="6.7" height="30.7"/>
	<rect x="378.7" y="273.9" class="st9" width="6.7" height="30.7"/>
</g>
<g>
	<rect x="391.4" y="273.9" class="st8" width="6.7" height="30.7"/>
	<rect x="391.4" y="273.9" class="st9" width="6.7" height="30.7"/>
</g>
<g>
	<rect x="404.1" y="273.9" class="st8" width="6.7" height="30.7"/>
	<rect x="404.1" y="273.9" class="st9" width="6.7" height="30.7"/>
</g>
<g>
	<rect x="416.9" y="273.9" class="st8" width="6.7" height="30.7"/>
	<rect x="416.9" y="273.9" class="st9" width="6.7" height="30.7"/>
</g>
<g>
	<rect x="429.6" y="273.9" class="st8" width="6.7" height="30.7"/>
	<rect x="429.6" y="273.9" class="st9" width="6.7" height="30.7"/>
</g>
<g>
	<rect x="442.3" y="273.9" class="st8" width="6.7" height="30.7"/>
	<rect x="442.3" y="273.9" class="st9" width="6.7" height="30.7"/>
</g>
<g>
	<rect x="455" y="273.9" class="st8" width="6.7" height="30.7"/>
	<rect x="455" y="273.9" class="st9" width="6.7" height="30.7"/>
</g>
<g>
	<rect x="467.7" y="273.9" class="st8" width="6.7" height="30.7"/>
	<rect x="467.7" y="273.9" class="st9" width="6.7" height="30.7"/>
</g>
<g>
	<rect x="480.5" y="273.9" class="st8" width="6.7" height="30.7"/>
	<rect x="480.5" y="273.9" class="st9" width="6.7" height="30.7"/>
</g>
<g>
	<rect x="493.2" y="273.9" class="st8" width="6.7" height="30.7"/>
	<rect x="493.2" y="273.9" class="st9" width="6.7" height="30.7"/>
</g>
<g>
	<rect x="505.9" y="273.9" class="st8" width="6.7" height="30.7"/>
	<rect x="505.9" y="273.9" class="st9" width="6.7" height="30.7"/>
</g>
<g>
	<rect x="518.6" y="273.9" class="st8" width="6.7" height="30.7"/>
	<rect x="518.6" y="273.9" class="st9" width="6.7" height="30.7"/>
</g>
<g>
	<rect x="531.4" y="273.9" class="st8" width="6.7" height="30.7"/>
	<rect x="531.4" y="273.9" class="st9" width="6.7" height="30.7"/>
</g>
<g>
	<rect x="544.1" y="273.9" class="st8" width="6.7" height="30.7"/>
	<rect x="544.1" y="273.9" class="st9" width="6.7" height="30.7"/>
</g>
<circle class="st2" cx="112.3" cy="289.3" r="6.4"/>
<circle class="st2" cx="125" cy="289.3" r="6.4"/>
<circle class="st2" cx="137.8" cy="289.3" r="6.4"/>
<circle class="st2" cx="150.5" cy="289.3" r="6.4"/>
<circle class="st2" cx="163.2" cy="289.3" r="6.4"/>
<g>
	<rect x="199.6" y="273.9" class="st10" width="6.7" height="30.7"/>
	<rect x="199.6" y="273.9" class="st9" width="6.7" height="30.7"/>
</g>
<g>
	<rect x="212.3" y="273.9" class="st10" width="6.7" height="30.7"/>
	<rect x="212.3" y="273.9" class="st9" width="6.7" height="30.7"/>
</g>
<g>
	<rect x="225" y="273.9" class="st10" width="6.7" height="30.7"/>
	<rect x="225" y="273.9" class="st9" width="6.7" height="30.7"/>
</g>
<g>
	<rect x="238.7" y="273.9" class="st10" width="6.7" height="30.7"/>
	<rect x="238.7" y="273.9" class="st9" width="6.7" height="30.7"/>
</g>
<g>
	<rect x="251.5" y="273.9" class="st10" width="6.7" height="30.7"/>
	<rect x="251.5" y="273.9" class="st9" width="6.7" height="30.7"/>
</g>
<g>
	<rect x="264.2" y="273.9" class="st10" width="6.7" height="30.7"/>
	<rect x="264.2" y="273.9" class="st9" width="6.7" height="30.7"/>
</g>
<g>
	<rect x="276.9" y="273.9" class="st10" width="6.7" height="30.7"/>
	<rect x="276.9" y="273.9" class="st9" width="6.7" height="30.7"/>
</g>
<g>
	<rect x="289.6" y="273.9" class="st10" width="6.7" height="30.7"/>
	<rect x="289.6" y="273.9" class="st9" width="6.7" height="30.7"/>
</g>
<g>
	<rect x="302.3" y="273.9" class="st10" width="6.7" height="30.7"/>
	<rect x="302.3" y="273.9" class="st9" width="6.7" height="30.7"/>
</g>
<g>
	<rect x="315.1" y="273.9" class="st10" width="6.7" height="30.7"/>
	<rect x="315.1" y="273.9" class="st9" width="6.7" height="30.7"/>
</g>
<g>
	<rect x="327.8" y="273.9" class="st10" width="6.7" height="30.7"/>
	<rect x="327.8" y="273.9" class="st9" width="6.7" height="30.7"/>
</g>
<g>
	<rect x="340.5" y="273.9" class="st10" width="6.7" height="30.7"/>
	<rect x="340.5" y="273.9" class="st9" width="6.7" height="30.7"/>
</g>
<g>
	<rect x="353.2" y="273.9" class="st10" width="6.7" height="30.7"/>
	<rect x="353.2" y="273.9" class="st9" width="6.7" height="30.7"/>
</g>
<g>
	<rect x="366" y="273.9" class="st10" width="6.7" height="30.7"/>
	<rect x="366" y="273.9" class="st9" width="6.7" height="30.7"/>
</g>
<circle class="st11" cx="112.3" cy="289.3" r="6.4"/>
<circle class="st11" cx="125" cy="289.3" r="6.4"/>
<circle class="st11" cx="137.8" cy="289.3" r="6.4"/>
<circle class="st11" cx="150.5" cy="289.3" r="6.4"/>
<circle class="st11" cx="163.2" cy="289.3" r="6.4"/>
<circle class="st4" cx="112.3" cy="289.3" r="6.4"/>
<circle class="st4" cx="125" cy="289.3" r="6.4"/>
<circle class="st4" cx="137.8" cy="289.3" r="6.4"/>
<circle class="st5" cx="112.3" cy="289.3" r="6.4"/>
<circle class="st5" cx="125" cy="289.3" r="6.4"/>
<circle class="st5" cx="137.8" cy="289.3" r="6.4"/>
<circle class="st5" cx="150.5" cy="289.3" r="6.4"/>
<circle class="st5" cx="163.2" cy="289.3" r="6.4"/>
<g>
	<rect x="77.6" y="273.9" class="st13" width="6.7" height="30.7"/>
	<rect x="77.6" y="273.9" class="st9" width="6.7" height="30.7"/>
</g>
<g>
	<rect x="90.3" y="273.9" class="st13" width="6.7" height="30.7"/>
	<rect x="90.3" y="273.9" class="st9" width="6.7" height="30.7"/>
</g>
<g>
	<rect x="103" y="273.9" class="st13" width="6.7" height="30.7"/>
	<rect x="103" y="273.9" class="st9" width="6.7" height="30.7"/>
</g>
<circle class="st6" cx="112.3" cy="119.6" r="6.4"/>
<circle class="st6" cx="125" cy="119.6" r="6.4"/>
<circle class="st6" cx="137.8" cy="119.6" r="6.4"/>
<circle class="st6" cx="150.5" cy="119.6" r="6.4"/>
<circle class="st6" cx="163.2" cy="119.6" r="6.4"/>
<circle class="st6" cx="175.9" cy="119.6" r="6.4"/>
<circle class="st7" cx="112.3" cy="119.6" r="6.4"/>
<circle class="st1" cx="112.3" cy="119.6" r="6.4"/>
<circle class="st1" cx="125" cy="119.6" r="6.4"/>
<circle class="st1" cx="137.8" cy="119.6" r="6.4"/>
<circle class="st1" cx="150.5" cy="119.6" r="6.4"/>
<circle class="st1" cx="163.2" cy="119.6" r="6.4"/>
<circle class="st1" cx="175.9" cy="119.6" r="6.4"/>
<circle class="st1" cx="188.6" cy="119.6" r="6.4"/>
<circle class="st1" cx="201.4" cy="119.6" r="6.4"/>
<circle class="st1" cx="214.1" cy="119.6" r="6.4"/>
<circle class="st1" cx="226.8" cy="119.6" r="6.4"/>
<g>
	<rect x="236.2" y="104.3" class="st8" width="6.7" height="30.7"/>
	<rect x="236.2" y="104.3" class="st9" width="6.7" height="30.7"/>
</g>
<g>
	<rect x="248.9" y="104.3" class="st8" width="6.7" height="30.7"/>
	<rect x="248.9" y="104.3" class="st9" width="6.7" height="30.7"/>
</g>
<g>
	<rect x="261.6" y="104.3" class="st8" width="6.7" height="30.7"/>
	<rect x="261.6" y="104.3" class="st9" width="6.7" height="30.7"/>
</g>
<g>
	<rect x="274.3" y="104.3" class="st8" width="6.7" height="30.7"/>
	<rect x="274.3" y="104.3" class="st9" width="6.7" height="30.7"/>
</g>
<g>
	<rect x="287.1" y="104.3" class="st8" width="6.7" height="30.7"/>
	<rect x="287.1" y="104.3" class="st9" width="6.7" height="30.7"/>
</g>
<g>
	<rect x="299.8" y="104.3" class="st8" width="6.7" height="30.7"/>
	<rect x="299.8" y="104.3" class="st9" width="6.7" height="30.7"/>
</g>
<g>
	<rect x="312.5" y="104.3" class="st8" width="6.7" height="30.7"/>
	<rect x="312.5" y="104.3" class="st9" width="6.7" height="30.7"/>
</g>
<g>
	<rect x="325.2" y="104.3" class="st8" width="6.7" height="30.7"/>
	<rect x="325.2" y="104.3" class="st9" width="6.7" height="30.7"/>
</g>
<g>
	<rect x="338" y="104.3" class="st8" width="6.7" height="30.7"/>
	<rect x="338" y="104.3" class="st9" width="6.7" height="30.7"/>
</g>
<g>
	<rect x="350.7" y="104.3" class="st8" width="6.7" height="30.7"/>
	<rect x="350.7" y="104.3" class="st9" width="6.7" height="30.7"/>
</g>
<g>
	<rect x="363.4" y="104.3" class="st8" width="6.7" height="30.7"/>
	<rect x="363.4" y="104.3" class="st9" width="6.7" height="30.7"/>
</g>
<g>
	<rect x="376.1" y="104.3" class="st8" width="6.7" height="30.7"/>
	<rect x="376.1" y="104.3" class="st9" width="6.7" height="30.7"/>
</g>
<g>
	<rect x="388.9" y="104.3" class="st8" width="6.7" height="30.7"/>
	<rect x="388.9" y="104.3" class="st9" width="6.7" height="30.7"/>
</g>
<circle class="st2" cx="112.3" cy="119.6" r="6.4"/>
<circle class="st2" cx="125" cy="119.6" r="6.4"/>
<circle class="st2" cx="137.8" cy="119.6" r="6.4"/>
<circle class="st2" cx="150.5" cy="119.6" r="6.4"/>
<circle class="st2" cx="163.2" cy="119.6" r="6.4"/>
<circle class="st2" cx="175.9" cy="119.6" r="6.4"/>
<circle class="st2" cx="188.6" cy="119.6" r="6.4"/>
<circle class="st2" cx="201.4" cy="119.6" r="6.4"/>
<circle class="st2" cx="214.1" cy="119.6" r="6.4"/>
<circle class="st2" cx="226.8" cy="119.6" r="6.4"/>
<g>
	<rect x="236.2" y="104.3" class="st10" width="6.7" height="30.7"/>
	<rect x="236.2" y="104.3" class="st9" width="6.7" height="30.7"/>
</g>
<g>
	<rect x="248.9" y="104.3" class="st10" width="6.7" height="30.7"/>
	<rect x="248.9" y="104.3" class="st9" width="6.7" height="30.7"/>
</g>
<g>
	<rect x="261.6" y="104.3" class="st10" width="6.7" height="30.7"/>
	<rect x="261.6" y="104.3" class="st9" width="6.7" height="30.7"/>
</g>
<g>
	<rect x="274.3" y="104.3" class="st10" width="6.7" height="30.7"/>
	<rect x="274.3" y="104.3" class="st9" width="6.7" height="30.7"/>
</g>
<g>
	<rect x="287.1" y="104.3" class="st10" width="6.7" height="30.7"/>
	<rect x="287.1" y="104.3" class="st9" width="6.7" height="30.7"/>
</g>
<g>
	<rect x="299.8" y="104.3" class="st10" width="6.7" height="30.7"/>
	<rect x="299.8" y="104.3" class="st9" width="6.7" height="30.7"/>
</g>
<g>
	<rect x="312.5" y="104.3" class="st10" width="6.7" height="30.7"/>
	<rect x="312.5" y="104.3" class="st9" width="6.7" height="30.7"/>
</g>
<g>
	<rect x="325.2" y="104.3" class="st10" width="6.7" height="30.7"/>
	<rect x="325.2" y="104.3" class="st9" width="6.7" height="30.7"/>
</g>
<g>
	<rect x="338" y="104.3" class="st10" width="6.7" height="30.7"/>
	<rect x="338" y="104.3" class="st9" width="6.7" height="30.7"/>
</g>
<circle class="st11" cx="112.3" cy="119.6" r="6.4"/>
<circle class="st11" cx="125" cy="119.6" r="6.4"/>
<circle class="st11" cx="137.8" cy="119.6" r="6.4"/>
<circle class="st11" cx="150.5" cy="119.6" r="6.4"/>
<circle class="st11" cx="163.2" cy="119.6" r="6.4"/>
<circle class="st11" cx="175.9" cy="119.6" r="6.4"/>
<circle class="st11" cx="188.6" cy="119.6" r="6.4"/>
<circle class="st11" cx="201.4" cy="119.6" r="6.4"/>
<circle class="st11" cx="214.1" cy="119.6" r="6.4"/>
<circle class="st4" cx="112.3" cy="119.6" r="6.4"/>
<circle class="st4" cx="125" cy="119.6" r="6.4"/>
<circle class="st4" cx="137.8" cy="119.6" r="6.4"/>
<circle class="st4" cx="150.5" cy="119.6" r="6.4"/>
<circle class="st4" cx="163.2" cy="119.6" r="6.4"/>
<circle class="st4" cx="175.9" cy="119.6" r="6.4"/>
<circle class="st5" cx="112.3" cy="119.6" r="6.4"/>
<circle class="st5" cx="125" cy="119.6" r="6.4"/>
<circle class="st5" cx="137.8" cy="119.6" r="6.4"/>
<circle class="st5" cx="150.5" cy="119.6" r="6.4"/>
<circle class="st5" cx="163.2" cy="119.6" r="6.4"/>
<circle class="st5" cx="175.9" cy="119.6" r="6.4"/>
<circle class="st5" cx="188.6" cy="119.6" r="6.4"/>
<circle class="st5" cx="201.4" cy="119.6" r="6.4"/>
<circle class="st5" cx="214.1" cy="119.6" r="6.4"/>
<g>
	<rect x="223.5" y="104.3" class="st13" width="6.7" height="30.7"/>
	<rect x="223.5" y="104.3" class="st9" width="6.7" height="30.7"/>
</g>
<rect x="-3" class="st0" width="900" height="900"/>
<text transform="matrix(1 0 0 1 -2.9845 802.16)" class="st15 st16">_complex_dates</text>
<rect x="24.5" y="623.1" class="st0" width="52.6" height="13"/>
<text transform="matrix(1 0 0 1 24.5156 632.5195)" class="st15 st16">1920-1945</text>
<rect x="24.5" y="453.4" class="st0" width="52.6" height="13"/>
<text transform="matrix(1 0 0 1 24.5156 462.8701)" class="st15 st16">1946-1970</text>
<rect x="24.5" y="283.8" class="st0" width="52.6" height="13"/>
<text transform="matrix(1 0 0 1 24.5156 293.2305)" class="st15 st16">1971-1995</text>
<rect x="24.5" y="114.2" class="st0" width="52.6" height="13"/>
<text transform="matrix(1 0 0 1 24.5156 123.5898)" class="st15 st16">1996-2020</text>
<rect x="666.8" y="352.8" class="st0" width="109.5" height="13"/>
<text transform="matrix(1 0 0 1 666.7598 362.2305)" class="st15 st16">further_clustered_type</text>
<circle class="st17" cx="675.4" cy="377.6" r="3.2"/>
<circle class="st18" cx="675.4" cy="394.9" r="3.2"/>
<circle class="st19" cx="675.4" cy="412.1" r="3.2"/>
<circle class="st20" cx="675.4" cy="429.4" r="3.2"/>
<circle class="st21" cx="675.4" cy="446.7" r="3.2"/>
<circle class="st22" cx="675.4" cy="464" r="3.2"/>
<circle class="st23" cx="675.4" cy="481.2" r="3.2"/>
<circle class="st24" cx="675.4" cy="498.5" r="3.2"/>
<circle class="st25" cx="675.4" cy="515.8" r="3.2"/>
<text transform="matrix(1 0 0 1 689.52 380.72)" class="st15 st26">Autobiography/ Biography/ Memoir</text>
<text transform="matrix(1 0 0 1 689.52 398)" class="st15 st26">Children&apos;s book</text>
<text transform="matrix(1 0 0 1 689.52 415.28)" class="st15 st26">Fiction</text>
<text transform="matrix(1 0 0 1 689.52 432.56)" class="st15 st26">Literature and Culture</text>
<text transform="matrix(1 0 0 1 689.52 449.84)" class="st15 st26">Non-fiction</text>
<text transform="matrix(1 0 0 1 689.52 467.12)" class="st15 st26">Poetry/ Song/ Drama</text>
<text transform="matrix(1 0 0 1 689.52 484.4)" class="st15 st26">Political</text>
<text transform="matrix(1 0 0 1 689.52 501.68)" class="st15 st26">Religious text</text>
<text transform="matrix(1 0 0 1 689.52 518.96)" class="st15 st26">Unspecified</text>
<rect x="666.8" y="531.3" class="st0" width="26.9" height="13"/>
<text transform="matrix(1 0 0 1 666.7598 540.7598)" class="st15 st16">alpha</text>
<circle class="st27" cx="675.4" cy="556.1" r="3.2"/>
<rect x="689.5" y="551.7" class="st0" width="17.1" height="10.4"/>
<text transform="matrix(1 0 0 1 689.5195 559.25)" class="st15 st26">0.05</text>
<text transform="matrix(1 0 0 1 5.12 14.94)" class="st15 st28">Plotting the books by types of books banned over time</text>
</svg>
