<?xml version="1.0" encoding="utf-8"?>
<!-- Generator: Adobe Illustrator 27.2.0, SVG Export Plug-In . SVG Version: 6.00 Build 0)  -->
<svg version="1.1" id="Layer_1" xmlns="http://www.w3.org/2000/svg" xmlns:xlink="http://www.w3.org/1999/xlink" x="0px" y="0px"
	 viewBox="0 0 350 700" style="enable-background:new 0 0 350 700;" xml:space="preserve">
<style type="text/css">
	.st0{fill:#F9DCAB;}
	.st1{opacity:0.55;fill:#C49036;enable-background:new    ;}
	.st2{font-family:'Arial-BoldMT';}
	.st3{font-size:10.9582px;}
</style>
<rect x="-14.2" y="-3" class="st0" width="369.2" height="709.3"/>
<rect x="163.9" y="571.2" class="st1" width="23.3" height="9.2"/>
<rect x="163.9" y="564.1" class="st1" width="23.3" height="9.2"/>
<rect x="163.9" y="557.1" class="st1" width="23.3" height="9.2"/>
<rect x="163.9" y="550.2" class="st1" width="23.3" height="9.2"/>
<rect x="163.9" y="543.1" class="st1" width="23.3" height="9.2"/>
<rect x="163.9" y="536.1" class="st1" width="23.3" height="9.2"/>
<rect x="163.9" y="529.2" class="st1" width="23.3" height="9.2"/>
<rect x="163.9" y="522.1" class="st1" width="23.3" height="9.2"/>
<rect x="163.9" y="515.2" class="st1" width="23.3" height="9.2"/>
<rect x="163.9" y="508.2" class="st1" width="23.3" height="9.2"/>
<rect x="163.9" y="501.1" class="st1" width="23.3" height="9.2"/>
<rect x="163.9" y="494.2" class="st1" width="23.3" height="9.2"/>
<rect x="163.9" y="487.2" class="st1" width="23.3" height="9.2"/>
<rect x="163.9" y="480.1" class="st1" width="23.3" height="9.2"/>
<rect x="163.9" y="473.2" class="st1" width="23.3" height="9.2"/>
<rect x="163.9" y="466.2" class="st1" width="23.3" height="9.2"/>
<rect x="163.9" y="459.1" class="st1" width="23.3" height="9.2"/>
<rect x="163.9" y="452.2" class="st1" width="23.3" height="9.2"/>
<rect x="163.9" y="445.2" class="st1" width="23.3" height="9.2"/>
<rect x="163.9" y="438.2" class="st1" width="23.3" height="9.2"/>
<rect x="163.9" y="431.2" class="st1" width="23.3" height="9.2"/>
<rect x="163.9" y="424.2" class="st1" width="23.3" height="9.2"/>
<rect x="163.9" y="417.2" class="st1" width="23.3" height="9.2"/>
<rect x="163.9" y="410.2" class="st1" width="23.3" height="9.2"/>
<rect x="163.9" y="403.2" class="st1" width="23.3" height="9.2"/>
<rect x="163.9" y="396.2" class="st1" width="23.3" height="9.2"/>
<rect x="163.9" y="389.2" class="st1" width="23.3" height="9.2"/>
<rect x="163.9" y="382.2" class="st1" width="23.3" height="9.2"/>
<rect x="163.9" y="375.2" class="st1" width="23.3" height="9.2"/>
<rect x="163.9" y="368.2" class="st1" width="23.3" height="9.2"/>
<rect x="163.9" y="361.3" class="st1" width="23.3" height="9.2"/>
<rect x="163.9" y="354.2" class="st1" width="23.3" height="9.2"/>
<rect x="163.9" y="347.2" class="st1" width="23.3" height="9.2"/>
<rect x="163.9" y="340.2" class="st1" width="23.3" height="9.2"/>
<rect x="163.9" y="333.2" class="st1" width="23.3" height="9.2"/>
<rect x="163.9" y="326.2" class="st1" width="23.3" height="9.2"/>
<rect x="163.9" y="319.2" class="st1" width="23.3" height="9.2"/>
<rect x="163.9" y="312.2" class="st1" width="23.3" height="9.2"/>
<rect x="163.9" y="305.3" class="st1" width="23.3" height="9.2"/>
<rect x="163.9" y="298.2" class="st1" width="23.3" height="9.2"/>
<rect x="163.9" y="291.2" class="st1" width="23.3" height="9.2"/>
<rect x="163.9" y="284.3" class="st1" width="23.3" height="9.2"/>
<rect x="163.9" y="277.2" class="st1" width="23.3" height="9.2"/>
<rect x="163.9" y="270.2" class="st1" width="23.3" height="9.2"/>
<rect x="163.9" y="263.3" class="st1" width="23.3" height="9.2"/>
<rect x="163.9" y="256.2" class="st1" width="23.3" height="9.2"/>
<rect x="163.9" y="249.2" class="st1" width="23.3" height="9.2"/>
<rect x="163.9" y="242.3" class="st1" width="23.3" height="9.2"/>
<rect x="163.9" y="235.2" class="st1" width="23.3" height="9.2"/>
<rect x="163.9" y="228.3" class="st1" width="23.3" height="9.2"/>
<rect x="163.9" y="221.3" class="st1" width="23.3" height="9.2"/>
<rect x="163.9" y="214.2" class="st1" width="23.3" height="9.2"/>
<rect x="163.9" y="207.3" class="st1" width="23.3" height="9.2"/>
<rect x="163.9" y="200.3" class="st1" width="23.3" height="9.2"/>
<rect x="163.9" y="193.2" class="st1" width="23.3" height="9.2"/>
<rect x="163.9" y="186.3" class="st1" width="23.3" height="9.2"/>
<rect x="163.9" y="179.3" class="st1" width="23.3" height="9.2"/>
<rect x="163.9" y="172.3" class="st1" width="23.3" height="9.2"/>
<rect x="163.9" y="165.3" class="st1" width="23.3" height="9.2"/>
<rect x="163.9" y="158.3" class="st1" width="23.3" height="9.2"/>
<rect x="163.9" y="151.3" class="st1" width="23.3" height="9.2"/>
<rect x="163.9" y="144.3" class="st1" width="23.3" height="9.2"/>
<rect x="163.9" y="137.3" class="st1" width="23.3" height="9.2"/>
<rect x="163.9" y="130.3" class="st1" width="23.3" height="9.2"/>
<rect x="163.9" y="123.3" class="st1" width="23.3" height="9.2"/>
<rect x="163.9" y="116.3" class="st1" width="23.3" height="9.2"/>
<rect x="163.9" y="109.3" class="st1" width="23.3" height="9.2"/>
<rect x="163.9" y="102.3" class="st1" width="23.3" height="9.2"/>
<rect x="163.9" y="95.3" class="st1" width="23.3" height="9.2"/>
<rect x="163.9" y="88.3" class="st1" width="23.3" height="9.2"/>
<rect x="163.9" y="81.3" class="st1" width="23.3" height="9.2"/>
<rect x="163.9" y="74.4" class="st1" width="23.3" height="9.2"/>
<rect x="163.9" y="67.3" class="st1" width="23.3" height="9.2"/>
<rect x="163.9" y="60.3" class="st1" width="23.3" height="9.2"/>
<text transform="matrix(1.001 1.183602e-02 -1.801161e-02 0.9998 161.5545 600.8038)" class="st2 st3">1996-</text>
<text transform="matrix(1.001 1.183602e-02 -1.801161e-02 0.9998 161.3177 614.001)" class="st2 st3">2020</text>
<rect x="113.8" y="571.2" class="st1" width="23.3" height="9.2"/>
<rect x="113.8" y="564.1" class="st1" width="23.3" height="9.2"/>
<rect x="113.8" y="557.1" class="st1" width="23.3" height="9.2"/>
<rect x="113.8" y="550.2" class="st1" width="23.3" height="9.2"/>
<rect x="113.8" y="543.1" class="st1" width="23.3" height="9.2"/>
<rect x="113.8" y="536.1" class="st1" width="23.3" height="9.2"/>
<rect x="113.8" y="529.2" class="st1" width="23.3" height="9.2"/>
<rect x="113.8" y="522.1" class="st1" width="23.3" height="9.2"/>
<rect x="113.8" y="515.2" class="st1" width="23.3" height="9.2"/>
<rect x="113.8" y="508.2" class="st1" width="23.3" height="9.2"/>
<rect x="113.8" y="501.1" class="st1" width="23.3" height="9.2"/>
<rect x="113.8" y="494.2" class="st1" width="23.3" height="9.2"/>
<rect x="113.8" y="487.2" class="st1" width="23.3" height="9.2"/>
<rect x="113.8" y="480.1" class="st1" width="23.3" height="9.2"/>
<rect x="113.8" y="473.2" class="st1" width="23.3" height="9.2"/>
<rect x="113.8" y="466.2" class="st1" width="23.3" height="9.2"/>
<rect x="113.8" y="459.1" class="st1" width="23.3" height="9.2"/>
<rect x="113.8" y="452.2" class="st1" width="23.3" height="9.2"/>
<rect x="113.8" y="445.2" class="st1" width="23.3" height="9.2"/>
<rect x="113.8" y="438.2" class="st1" width="23.3" height="9.2"/>
<rect x="113.8" y="431.2" class="st1" width="23.3" height="9.2"/>
<rect x="113.8" y="424.2" class="st1" width="23.3" height="9.2"/>
<rect x="113.8" y="417.2" class="st1" width="23.3" height="9.2"/>
<rect x="113.8" y="410.2" class="st1" width="23.3" height="9.2"/>
<rect x="113.8" y="403.2" class="st1" width="23.3" height="9.2"/>
<rect x="113.8" y="396.2" class="st1" width="23.3" height="9.2"/>
<rect x="113.8" y="389.2" class="st1" width="23.3" height="9.2"/>
<rect x="113.8" y="382.2" class="st1" width="23.3" height="9.2"/>
<rect x="113.8" y="375.2" class="st1" width="23.3" height="9.2"/>
<rect x="113.8" y="368.2" class="st1" width="23.3" height="9.2"/>
<rect x="113.8" y="361.3" class="st1" width="23.3" height="9.2"/>
<rect x="113.8" y="354.2" class="st1" width="23.3" height="9.2"/>
<rect x="113.8" y="347.2" class="st1" width="23.3" height="9.2"/>
<rect x="113.8" y="340.2" class="st1" width="23.3" height="9.2"/>
<rect x="113.8" y="333.2" class="st1" width="23.3" height="9.2"/>
<rect x="113.8" y="326.2" class="st1" width="23.3" height="9.2"/>
<rect x="113.8" y="319.2" class="st1" width="23.3" height="9.2"/>
<rect x="113.8" y="312.2" class="st1" width="23.3" height="9.2"/>
<rect x="113.8" y="305.3" class="st1" width="23.3" height="9.2"/>
<rect x="113.8" y="298.2" class="st1" width="23.3" height="9.2"/>
<rect x="113.8" y="291.2" class="st1" width="23.3" height="9.2"/>
<rect x="113.8" y="284.3" class="st1" width="23.3" height="9.2"/>
<rect x="113.8" y="277.2" class="st1" width="23.3" height="9.2"/>
<rect x="113.8" y="270.2" class="st1" width="23.3" height="9.2"/>
<rect x="113.8" y="263.3" class="st1" width="23.3" height="9.2"/>
<rect x="113.8" y="256.2" class="st1" width="23.3" height="9.2"/>
<rect x="113.8" y="249.2" class="st1" width="23.3" height="9.2"/>
<rect x="113.8" y="242.3" class="st1" width="23.3" height="9.2"/>
<rect x="113.8" y="235.2" class="st1" width="23.3" height="9.2"/>
<rect x="113.8" y="228.3" class="st1" width="23.3" height="9.2"/>
<rect x="113.8" y="221.3" class="st1" width="23.3" height="9.2"/>
<rect x="113.8" y="214.2" class="st1" width="23.3" height="9.2"/>
<rect x="113.8" y="207.3" class="st1" width="23.3" height="9.2"/>
<rect x="113.8" y="200.3" class="st1" width="23.3" height="9.2"/>
<rect x="113.8" y="193.2" class="st1" width="23.3" height="9.2"/>
<rect x="113.8" y="186.3" class="st1" width="23.3" height="9.2"/>
<rect x="113.8" y="179.3" class="st1" width="23.3" height="9.2"/>
<rect x="113.8" y="172.3" class="st1" width="23.3" height="9.2"/>
<rect x="113.8" y="165.3" class="st1" width="23.3" height="9.2"/>
<rect x="113.8" y="158.3" class="st1" width="23.3" height="9.2"/>
<rect x="113.8" y="151.3" class="st1" width="23.3" height="9.2"/>
<rect x="113.8" y="144.3" class="st1" width="23.3" height="9.2"/>
<rect x="113.8" y="137.3" class="st1" width="23.3" height="9.2"/>
<rect x="113.8" y="130.3" class="st1" width="23.3" height="9.2"/>
<rect x="113.8" y="123.3" class="st1" width="23.3" height="9.2"/>
<rect x="113.8" y="116.3" class="st1" width="23.3" height="9.2"/>
<rect x="113.8" y="109.3" class="st1" width="23.3" height="9.2"/>
<rect x="113.8" y="102.3" class="st1" width="23.3" height="9.2"/>
<rect x="113.8" y="95.3" class="st1" width="23.3" height="9.2"/>
<rect x="113.8" y="88.3" class="st1" width="23.3" height="9.2"/>
<rect x="113.8" y="81.3" class="st1" width="23.3" height="9.2"/>
<rect x="113.8" y="74.4" class="st1" width="23.3" height="9.2"/>
<rect x="113.8" y="67.3" class="st1" width="23.3" height="9.2"/>
<rect x="113.8" y="60.3" class="st1" width="23.3" height="9.2"/>
<text transform="matrix(1.001 1.183602e-02 -1.801161e-02 0.9998 111.5474 600.8034)" class="st2 st3">1971-</text>
<text transform="matrix(1.001 1.183602e-02 -1.801161e-02 0.9998 111.3096 614.0005)" class="st2 st3">1995</text>
<rect x="64.3" y="571.2" class="st1" width="23.3" height="9.2"/>
<rect x="64.3" y="564.1" class="st1" width="23.3" height="9.2"/>
<rect x="64.3" y="557.1" class="st1" width="23.3" height="9.2"/>
<rect x="64.3" y="550.2" class="st1" width="23.3" height="9.2"/>
<rect x="64.3" y="543.1" class="st1" width="23.3" height="9.2"/>
<rect x="64.3" y="536.1" class="st1" width="23.3" height="9.2"/>
<rect x="64.3" y="529.2" class="st1" width="23.3" height="9.2"/>
<rect x="64.3" y="522.1" class="st1" width="23.3" height="9.2"/>
<rect x="64.3" y="515.2" class="st1" width="23.3" height="9.2"/>
<rect x="64.3" y="508.2" class="st1" width="23.3" height="9.2"/>
<rect x="64.3" y="501.1" class="st1" width="23.3" height="9.2"/>
<rect x="64.3" y="494.2" class="st1" width="23.3" height="9.2"/>
<rect x="64.3" y="487.2" class="st1" width="23.3" height="9.2"/>
<rect x="64.3" y="480.1" class="st1" width="23.3" height="9.2"/>
<rect x="64.3" y="473.2" class="st1" width="23.3" height="9.2"/>
<rect x="64.3" y="466.2" class="st1" width="23.3" height="9.2"/>
<rect x="64.3" y="459.1" class="st1" width="23.3" height="9.2"/>
<rect x="64.3" y="452.2" class="st1" width="23.3" height="9.2"/>
<rect x="64.3" y="445.2" class="st1" width="23.3" height="9.2"/>
<rect x="64.3" y="438.2" class="st1" width="23.3" height="9.2"/>
<rect x="64.3" y="431.2" class="st1" width="23.3" height="9.2"/>
<rect x="64.3" y="424.2" class="st1" width="23.3" height="9.2"/>
<rect x="64.3" y="417.2" class="st1" width="23.3" height="9.2"/>
<rect x="64.3" y="410.2" class="st1" width="23.3" height="9.2"/>
<rect x="64.3" y="403.2" class="st1" width="23.3" height="9.2"/>
<rect x="64.3" y="396.2" class="st1" width="23.3" height="9.2"/>
<rect x="64.3" y="389.2" class="st1" width="23.3" height="9.2"/>
<rect x="64.3" y="382.2" class="st1" width="23.3" height="9.2"/>
<rect x="64.3" y="375.2" class="st1" width="23.3" height="9.2"/>
<rect x="64.3" y="368.2" class="st1" width="23.3" height="9.2"/>
<rect x="64.3" y="361.3" class="st1" width="23.3" height="9.2"/>
<rect x="64.3" y="354.2" class="st1" width="23.3" height="9.2"/>
<rect x="64.3" y="347.2" class="st1" width="23.3" height="9.2"/>
<rect x="64.3" y="340.2" class="st1" width="23.3" height="9.2"/>
<rect x="64.3" y="333.2" class="st1" width="23.3" height="9.2"/>
<rect x="64.3" y="326.2" class="st1" width="23.3" height="9.2"/>
<rect x="64.3" y="319.2" class="st1" width="23.3" height="9.2"/>
<rect x="64.3" y="312.2" class="st1" width="23.3" height="9.2"/>
<rect x="64.3" y="305.3" class="st1" width="23.3" height="9.2"/>
<rect x="64.3" y="298.2" class="st1" width="23.3" height="9.2"/>
<rect x="64.3" y="291.2" class="st1" width="23.3" height="9.2"/>
<rect x="64.3" y="284.3" class="st1" width="23.3" height="9.2"/>
<rect x="64.3" y="277.2" class="st1" width="23.3" height="9.2"/>
<rect x="64.3" y="270.2" class="st1" width="23.3" height="9.2"/>
<rect x="64.3" y="263.3" class="st1" width="23.3" height="9.2"/>
<rect x="64.3" y="256.2" class="st1" width="23.3" height="9.2"/>
<rect x="64.3" y="249.2" class="st1" width="23.3" height="9.2"/>
<rect x="64.3" y="242.3" class="st1" width="23.3" height="9.2"/>
<rect x="64.3" y="235.2" class="st1" width="23.3" height="9.2"/>
<rect x="64.3" y="228.3" class="st1" width="23.3" height="9.2"/>
<rect x="64.3" y="221.3" class="st1" width="23.3" height="9.2"/>
<rect x="64.3" y="214.2" class="st1" width="23.3" height="9.2"/>
<rect x="64.3" y="207.3" class="st1" width="23.3" height="9.2"/>
<rect x="64.3" y="200.3" class="st1" width="23.3" height="9.2"/>
<rect x="64.3" y="193.2" class="st1" width="23.3" height="9.2"/>
<rect x="64.3" y="186.3" class="st1" width="23.3" height="9.2"/>
<rect x="64.3" y="179.3" class="st1" width="23.3" height="9.2"/>
<rect x="64.3" y="172.3" class="st1" width="23.3" height="9.2"/>
<rect x="64.3" y="165.3" class="st1" width="23.3" height="9.2"/>
<rect x="64.3" y="158.3" class="st1" width="23.3" height="9.2"/>
<rect x="64.3" y="151.3" class="st1" width="23.3" height="9.2"/>
<rect x="64.3" y="144.3" class="st1" width="23.3" height="9.2"/>
<rect x="64.3" y="137.3" class="st1" width="23.3" height="9.2"/>
<rect x="64.3" y="130.3" class="st1" width="23.3" height="9.2"/>
<rect x="64.3" y="123.3" class="st1" width="23.3" height="9.2"/>
<rect x="64.3" y="116.3" class="st1" width="23.3" height="9.2"/>
<rect x="64.3" y="109.3" class="st1" width="23.3" height="9.2"/>
<rect x="64.3" y="102.3" class="st1" width="23.3" height="9.2"/>
<rect x="64.3" y="95.3" class="st1" width="23.3" height="9.2"/>
<rect x="64.3" y="88.3" class="st1" width="23.3" height="9.2"/>
<rect x="64.3" y="81.3" class="st1" width="23.3" height="9.2"/>
<rect x="64.3" y="74.4" class="st1" width="23.3" height="9.2"/>
<rect x="64.3" y="67.3" class="st1" width="23.3" height="9.2"/>
<rect x="64.3" y="60.3" class="st1" width="23.3" height="9.2"/>
<rect x="64.3" y="53.4" class="st1" width="23.3" height="9.2"/>
<rect x="64.3" y="46.3" class="st1" width="23.3" height="9.2"/>
<rect x="64.3" y="39.3" class="st1" width="23.3" height="9.2"/>
<rect x="64.3" y="32.3" class="st1" width="23.3" height="9.2"/>
<rect x="64.3" y="25.3" class="st1" width="23.3" height="9.2"/>
<rect x="64.3" y="18.4" class="st1" width="23.3" height="9.2"/>
<text transform="matrix(1.001 1.183602e-02 -1.801161e-02 0.9998 61.9963 600.8035)" class="st2 st3">1946-</text>
<text transform="matrix(1.001 1.183602e-02 -1.801161e-02 0.9998 61.7586 614.0006)" class="st2 st3">1970</text>
<rect x="16.7" y="571.2" class="st1" width="23.3" height="9.2"/>
<rect x="16.7" y="564.1" class="st1" width="23.3" height="9.2"/>
<rect x="16.7" y="557.1" class="st1" width="23.3" height="9.2"/>
<rect x="16.7" y="550.2" class="st1" width="23.3" height="9.2"/>
<rect x="16.7" y="543.1" class="st1" width="23.3" height="9.2"/>
<rect x="16.7" y="536.1" class="st1" width="23.3" height="9.2"/>
<rect x="16.7" y="529.2" class="st1" width="23.3" height="9.2"/>
<rect x="16.7" y="522.1" class="st1" width="23.3" height="9.2"/>
<rect x="16.7" y="515.2" class="st1" width="23.3" height="9.2"/>
<rect x="16.7" y="508.2" class="st1" width="23.3" height="9.2"/>
<rect x="16.7" y="501.1" class="st1" width="23.3" height="9.2"/>
<rect x="16.7" y="494.2" class="st1" width="23.3" height="9.2"/>
<rect x="16.7" y="487.2" class="st1" width="23.3" height="9.2"/>
<rect x="16.7" y="480.1" class="st1" width="23.3" height="9.2"/>
<rect x="16.7" y="473.2" class="st1" width="23.3" height="9.2"/>
<rect x="16.7" y="466.2" class="st1" width="23.3" height="9.2"/>
<rect x="16.7" y="459.1" class="st1" width="23.3" height="9.2"/>
<rect x="16.7" y="452.2" class="st1" width="23.3" height="9.2"/>
<rect x="16.7" y="445.2" class="st1" width="23.3" height="9.2"/>
<rect x="16.7" y="438.2" class="st1" width="23.3" height="9.2"/>
<rect x="16.7" y="431.2" class="st1" width="23.3" height="9.2"/>
<rect x="16.7" y="424.2" class="st1" width="23.3" height="9.2"/>
<rect x="16.7" y="417.2" class="st1" width="23.3" height="9.2"/>
<rect x="16.7" y="410.2" class="st1" width="23.3" height="9.2"/>
<rect x="16.7" y="403.2" class="st1" width="23.3" height="9.2"/>
<rect x="16.7" y="396.2" class="st1" width="23.3" height="9.2"/>
<rect x="16.7" y="389.2" class="st1" width="23.3" height="9.2"/>
<rect x="16.7" y="382.2" class="st1" width="23.3" height="9.2"/>
<rect x="16.7" y="375.2" class="st1" width="23.3" height="9.2"/>
<rect x="16.7" y="368.2" class="st1" width="23.3" height="9.2"/>
<rect x="16.7" y="361.3" class="st1" width="23.3" height="9.2"/>
<rect x="16.7" y="354.2" class="st1" width="23.3" height="9.2"/>
<rect x="16.7" y="347.2" class="st1" width="23.3" height="9.2"/>
<rect x="16.7" y="340.2" class="st1" width="23.3" height="9.2"/>
<rect x="16.7" y="333.2" class="st1" width="23.3" height="9.2"/>
<rect x="16.7" y="326.2" class="st1" width="23.3" height="9.2"/>
<rect x="16.7" y="319.2" class="st1" width="23.3" height="9.2"/>
<rect x="16.7" y="312.2" class="st1" width="23.3" height="9.2"/>
<rect x="16.7" y="305.3" class="st1" width="23.3" height="9.2"/>
<rect x="16.7" y="298.2" class="st1" width="23.3" height="9.2"/>
<rect x="16.7" y="291.2" class="st1" width="23.3" height="9.2"/>
<rect x="16.7" y="284.3" class="st1" width="23.3" height="9.2"/>
<rect x="16.7" y="277.2" class="st1" width="23.3" height="9.2"/>
<rect x="16.7" y="270.2" class="st1" width="23.3" height="9.2"/>
<rect x="16.7" y="263.3" class="st1" width="23.3" height="9.2"/>
<rect x="16.7" y="256.2" class="st1" width="23.3" height="9.2"/>
<rect x="16.7" y="249.2" class="st1" width="23.3" height="9.2"/>
<rect x="16.7" y="242.3" class="st1" width="23.3" height="9.2"/>
<rect x="16.7" y="235.2" class="st1" width="23.3" height="9.2"/>
<rect x="16.7" y="228.3" class="st1" width="23.3" height="9.2"/>
<rect x="16.7" y="221.3" class="st1" width="23.3" height="9.2"/>
<rect x="16.7" y="214.2" class="st1" width="23.3" height="9.2"/>
<rect x="16.7" y="207.3" class="st1" width="23.3" height="9.2"/>
<rect x="16.7" y="200.3" class="st1" width="23.3" height="9.2"/>
<rect x="16.7" y="193.2" class="st1" width="23.3" height="9.2"/>
<rect x="16.7" y="186.3" class="st1" width="23.3" height="9.2"/>
<rect x="16.7" y="179.3" class="st1" width="23.3" height="9.2"/>
<rect x="16.7" y="172.3" class="st1" width="23.3" height="9.2"/>
<rect x="16.7" y="165.3" class="st1" width="23.3" height="9.2"/>
<rect x="16.7" y="158.3" class="st1" width="23.3" height="9.2"/>
<rect x="16.7" y="151.3" class="st1" width="23.3" height="9.2"/>
<rect x="16.7" y="144.3" class="st1" width="23.3" height="9.2"/>
<rect x="16.7" y="137.3" class="st1" width="23.3" height="9.2"/>
<rect x="16.7" y="130.3" class="st1" width="23.3" height="9.2"/>
<rect x="16.7" y="123.3" class="st1" width="23.3" height="9.2"/>
<rect x="16.7" y="116.3" class="st1" width="23.3" height="9.2"/>
<rect x="16.7" y="109.3" class="st1" width="23.3" height="9.2"/>
<rect x="16.7" y="102.3" class="st1" width="23.3" height="9.2"/>
<rect x="16.7" y="95.3" class="st1" width="23.3" height="9.2"/>
<rect x="16.7" y="88.3" class="st1" width="23.3" height="9.2"/>
<rect x="16.7" y="81.3" class="st1" width="23.3" height="9.2"/>
<rect x="16.7" y="74.4" class="st1" width="23.3" height="9.2"/>
<rect x="16.7" y="67.3" class="st1" width="23.3" height="9.2"/>
<rect x="16.7" y="60.3" class="st1" width="23.3" height="9.2"/>
<rect x="16.7" y="53.4" class="st1" width="23.3" height="9.2"/>
<rect x="16.7" y="46.3" class="st1" width="23.3" height="9.2"/>
<rect x="16.7" y="39.3" class="st1" width="23.3" height="9.2"/>
<rect x="16.7" y="32.3" class="st1" width="23.3" height="9.2"/>
<rect x="16.7" y="25.3" class="st1" width="23.3" height="9.2"/>
<rect x="16.7" y="18.4" class="st1" width="23.3" height="9.2"/>
<rect x="16.7" y="11.4" class="st1" width="23.3" height="9.2"/>
<text transform="matrix(1.001 1.183602e-02 -1.801161e-02 0.9998 14.4046 600.8033)" class="st2 st3">1920-</text>
<text transform="matrix(1.001 1.183602e-02 -1.801161e-02 0.9998 14.1668 614.0014)" class="st2 st3">1945</text>
<rect x="210.4" y="571.2" class="st1" width="23.3" height="9.2"/>
<rect x="210.4" y="564.1" class="st1" width="23.3" height="9.2"/>
<rect x="210.4" y="557.1" class="st1" width="23.3" height="9.2"/>
<rect x="210.4" y="550.2" class="st1" width="23.3" height="9.2"/>
<rect x="210.4" y="543.1" class="st1" width="23.3" height="9.2"/>
<rect x="210.4" y="536.1" class="st1" width="23.3" height="9.2"/>
<rect x="210.4" y="529.2" class="st1" width="23.3" height="9.2"/>
<rect x="210.4" y="522.1" class="st1" width="23.3" height="9.2"/>
<rect x="210.4" y="515.2" class="st1" width="23.3" height="9.2"/>
<rect x="210.4" y="508.2" class="st1" width="23.3" height="9.2"/>
<text transform="matrix(1.001 1.183602e-02 -1.801161e-02 0.9998 201.856 600.7061)" class="st2 st3">complex</text>
<text transform="matrix(1.001 1.183602e-02 -1.801161e-02 0.9998 201.6182 613.9042)" class="st2 st3">dates</text>
</svg>
