<?xml version="1.0" encoding="utf-8"?>
<!-- Generator: Adobe Illustrator 27.2.0, SVG Export Plug-In . SVG Version: 6.00 Build 0)  -->
<svg version="1.1" id="Layer_1" xmlns="http://www.w3.org/2000/svg" xmlns:xlink="http://www.w3.org/1999/xlink" x="0px" y="0px"
	 viewBox="0 0 350 625" style="enable-background:new 0 0 350 625;" xml:space="preserve">
<style type="text/css">
	.st0{fill:#F9DCAB;}
	.st1{opacity:0.55;fill:#C49036;enable-background:new    ;}
	.st2{font-family:'Arial-BoldMT';}
	.st3{font-size:10.9578px;}
	.st4{fill:none;}
</style>
<rect x="-4.1" y="-5.9" class="st0" width="365.7" height="639"/>
<rect x="306.9" y="44.9" class="st1" width="23.3" height="9.2"/>
<rect x="306.9" y="52" class="st1" width="23.3" height="9.2"/>
<rect x="306.9" y="59" class="st1" width="23.3" height="9.2"/>
<rect x="306.9" y="65.9" class="st1" width="23.3" height="9.2"/>
<rect x="306.9" y="73" class="st1" width="23.3" height="9.2"/>
<rect x="306.9" y="80" class="st1" width="23.3" height="9.2"/>
<rect x="306.9" y="86.9" class="st1" width="23.3" height="9.2"/>
<rect x="306.9" y="94" class="st1" width="23.3" height="9.2"/>
<rect x="306.9" y="100.9" class="st1" width="23.3" height="9.2"/>
<rect x="306.9" y="107.9" class="st1" width="23.3" height="9.2"/>
<rect x="306.9" y="115" class="st1" width="23.3" height="9.2"/>
<rect x="306.9" y="121.9" class="st1" width="23.3" height="9.2"/>
<rect x="306.9" y="128.9" class="st1" width="23.3" height="9.2"/>
<rect x="306.9" y="136" class="st1" width="23.3" height="9.2"/>
<rect x="306.9" y="142.9" class="st1" width="23.3" height="9.2"/>
<rect x="306.9" y="149.9" class="st1" width="23.3" height="9.2"/>
<rect x="306.9" y="157" class="st1" width="23.3" height="9.2"/>
<rect x="306.9" y="163.9" class="st1" width="23.3" height="9.2"/>
<rect x="306.9" y="170.9" class="st1" width="23.3" height="9.2"/>
<rect x="306.9" y="177.9" class="st1" width="23.3" height="9.2"/>
<rect x="306.9" y="184.9" class="st1" width="23.3" height="9.2"/>
<rect x="306.9" y="191.9" class="st1" width="23.3" height="9.2"/>
<rect x="306.9" y="198.9" class="st1" width="23.3" height="9.2"/>
<rect x="306.9" y="205.9" class="st1" width="23.3" height="9.2"/>
<rect x="306.9" y="212.9" class="st1" width="23.3" height="9.2"/>
<rect x="306.9" y="219.9" class="st1" width="23.3" height="9.2"/>
<rect x="306.9" y="226.9" class="st1" width="23.3" height="9.2"/>
<rect x="306.9" y="233.9" class="st1" width="23.3" height="9.2"/>
<rect x="306.9" y="240.9" class="st1" width="23.3" height="9.2"/>
<rect x="306.9" y="247.9" class="st1" width="23.3" height="9.2"/>
<rect x="306.9" y="254.8" class="st1" width="23.3" height="9.2"/>
<rect x="306.9" y="261.9" class="st1" width="23.3" height="9.2"/>
<rect x="306.9" y="268.9" class="st1" width="23.3" height="9.2"/>
<rect x="306.9" y="275.9" class="st1" width="23.3" height="9.2"/>
<rect x="306.9" y="282.9" class="st1" width="23.3" height="9.2"/>
<rect x="306.9" y="289.9" class="st1" width="23.3" height="9.2"/>
<rect x="306.9" y="296.9" class="st1" width="23.3" height="9.2"/>
<rect x="306.9" y="303.9" class="st1" width="23.3" height="9.2"/>
<rect x="306.9" y="310.8" class="st1" width="23.3" height="9.2"/>
<rect x="306.9" y="317.9" class="st1" width="23.3" height="9.2"/>
<rect x="306.9" y="324.9" class="st1" width="23.3" height="9.2"/>
<rect x="306.9" y="331.8" class="st1" width="23.3" height="9.2"/>
<rect x="306.9" y="338.9" class="st1" width="23.3" height="9.2"/>
<rect x="306.9" y="345.9" class="st1" width="23.3" height="9.2"/>
<rect x="306.9" y="352.8" class="st1" width="23.3" height="9.2"/>
<rect x="306.9" y="359.9" class="st1" width="23.3" height="9.2"/>
<rect x="306.9" y="366.9" class="st1" width="23.3" height="9.2"/>
<rect x="306.9" y="373.8" class="st1" width="23.3" height="9.2"/>
<rect x="306.9" y="380.9" class="st1" width="23.3" height="9.2"/>
<rect x="306.9" y="387.8" class="st1" width="23.3" height="9.2"/>
<rect x="306.9" y="394.8" class="st1" width="23.3" height="9.2"/>
<rect x="306.9" y="401.9" class="st1" width="23.3" height="9.2"/>
<rect x="306.9" y="408.8" class="st1" width="23.3" height="9.2"/>
<rect x="306.9" y="415.8" class="st1" width="23.3" height="9.2"/>
<rect x="306.9" y="422.9" class="st1" width="23.3" height="9.2"/>
<rect x="306.9" y="429.8" class="st1" width="23.3" height="9.2"/>
<rect x="306.9" y="436.8" class="st1" width="23.3" height="9.2"/>
<rect x="306.9" y="443.8" class="st1" width="23.3" height="9.2"/>
<rect x="306.9" y="450.8" class="st1" width="23.3" height="9.2"/>
<rect x="306.9" y="457.8" class="st1" width="23.3" height="9.2"/>
<rect x="306.9" y="464.8" class="st1" width="23.3" height="9.2"/>
<rect x="306.9" y="471.8" class="st1" width="23.3" height="9.2"/>
<rect x="306.9" y="478.8" class="st1" width="23.3" height="9.2"/>
<rect x="306.9" y="485.8" class="st1" width="23.3" height="9.2"/>
<rect x="306.9" y="492.8" class="st1" width="23.3" height="9.2"/>
<rect x="306.9" y="499.8" class="st1" width="23.3" height="9.2"/>
<rect x="306.9" y="506.8" class="st1" width="23.3" height="9.2"/>
<rect x="306.9" y="513.8" class="st1" width="23.3" height="9.2"/>
<rect x="306.9" y="520.8" class="st1" width="23.3" height="9.2"/>
<rect x="306.9" y="527.8" class="st1" width="23.3" height="9.2"/>
<rect x="306.9" y="534.8" class="st1" width="23.3" height="9.2"/>
<rect x="306.9" y="541.7" class="st1" width="23.3" height="9.2"/>
<rect x="306.9" y="548.8" class="st1" width="23.3" height="9.2"/>
<rect x="306.9" y="555.8" class="st1" width="23.3" height="9.2"/>
<text transform="matrix(1.001 1.183647e-02 -1.801229e-02 0.9998 304.555 25.3248)" class="st2 st3">1996-</text>
<text transform="matrix(1.001 1.183647e-02 -1.801229e-02 0.9998 304.3172 38.5218)" class="st2 st3">2020</text>
<rect x="210.1" y="44.9" class="st1" width="23.3" height="9.2"/>
<rect x="210.1" y="52" class="st1" width="23.3" height="9.2"/>
<rect x="210.1" y="59" class="st1" width="23.3" height="9.2"/>
<rect x="210.1" y="65.9" class="st1" width="23.3" height="9.2"/>
<rect x="210.1" y="73" class="st1" width="23.3" height="9.2"/>
<rect x="210.1" y="80" class="st1" width="23.3" height="9.2"/>
<rect x="210.1" y="86.9" class="st1" width="23.3" height="9.2"/>
<rect x="210.1" y="94" class="st1" width="23.3" height="9.2"/>
<rect x="210.1" y="100.9" class="st1" width="23.3" height="9.2"/>
<rect x="210.1" y="107.9" class="st1" width="23.3" height="9.2"/>
<rect x="210.1" y="115" class="st1" width="23.3" height="9.2"/>
<rect x="210.1" y="121.9" class="st1" width="23.3" height="9.2"/>
<rect x="210.1" y="128.9" class="st1" width="23.3" height="9.2"/>
<rect x="210.1" y="136" class="st1" width="23.3" height="9.2"/>
<rect x="210.1" y="142.9" class="st1" width="23.3" height="9.2"/>
<rect x="210.1" y="149.9" class="st1" width="23.3" height="9.2"/>
<rect x="210.1" y="157" class="st1" width="23.3" height="9.2"/>
<rect x="210.1" y="163.9" class="st1" width="23.3" height="9.2"/>
<rect x="210.1" y="170.9" class="st1" width="23.3" height="9.2"/>
<rect x="210.1" y="177.9" class="st1" width="23.3" height="9.2"/>
<rect x="210.1" y="184.9" class="st1" width="23.3" height="9.2"/>
<rect x="210.1" y="191.9" class="st1" width="23.3" height="9.2"/>
<rect x="210.1" y="198.9" class="st1" width="23.3" height="9.2"/>
<rect x="210.1" y="205.9" class="st1" width="23.3" height="9.2"/>
<rect x="210.1" y="212.9" class="st1" width="23.3" height="9.2"/>
<rect x="210.1" y="219.9" class="st1" width="23.3" height="9.2"/>
<rect x="210.1" y="226.9" class="st1" width="23.3" height="9.2"/>
<rect x="210.1" y="233.9" class="st1" width="23.3" height="9.2"/>
<rect x="210.1" y="240.9" class="st1" width="23.3" height="9.2"/>
<rect x="210.1" y="247.9" class="st1" width="23.3" height="9.2"/>
<rect x="210.1" y="254.8" class="st1" width="23.3" height="9.2"/>
<rect x="210.1" y="261.9" class="st1" width="23.3" height="9.2"/>
<rect x="210.1" y="268.9" class="st1" width="23.3" height="9.2"/>
<rect x="210.1" y="275.9" class="st1" width="23.3" height="9.2"/>
<rect x="210.1" y="282.9" class="st1" width="23.3" height="9.2"/>
<rect x="210.1" y="289.9" class="st1" width="23.3" height="9.2"/>
<rect x="210.1" y="296.9" class="st1" width="23.3" height="9.2"/>
<rect x="210.1" y="303.9" class="st1" width="23.3" height="9.2"/>
<rect x="210.1" y="310.8" class="st1" width="23.3" height="9.2"/>
<rect x="210.1" y="317.9" class="st1" width="23.3" height="9.2"/>
<rect x="210.1" y="324.9" class="st1" width="23.3" height="9.2"/>
<rect x="210.1" y="331.8" class="st1" width="23.3" height="9.2"/>
<rect x="210.1" y="338.9" class="st1" width="23.3" height="9.2"/>
<rect x="210.1" y="345.9" class="st1" width="23.3" height="9.2"/>
<rect x="210.1" y="352.8" class="st1" width="23.3" height="9.2"/>
<rect x="210.1" y="359.9" class="st1" width="23.3" height="9.2"/>
<rect x="210.1" y="366.9" class="st1" width="23.3" height="9.2"/>
<rect x="210.1" y="373.8" class="st1" width="23.3" height="9.2"/>
<rect x="210.1" y="380.9" class="st1" width="23.3" height="9.2"/>
<rect x="210.1" y="387.8" class="st1" width="23.3" height="9.2"/>
<rect x="210.1" y="394.8" class="st1" width="23.3" height="9.2"/>
<rect x="210.1" y="401.9" class="st1" width="23.3" height="9.2"/>
<rect x="210.1" y="408.8" class="st1" width="23.3" height="9.2"/>
<rect x="210.1" y="415.8" class="st1" width="23.3" height="9.2"/>
<rect x="210.1" y="422.9" class="st1" width="23.3" height="9.2"/>
<rect x="210.1" y="429.8" class="st1" width="23.3" height="9.2"/>
<rect x="210.1" y="436.8" class="st1" width="23.3" height="9.2"/>
<rect x="210.1" y="443.8" class="st1" width="23.3" height="9.2"/>
<rect x="210.1" y="450.8" class="st1" width="23.3" height="9.2"/>
<rect x="210.1" y="457.8" class="st1" width="23.3" height="9.2"/>
<rect x="210.1" y="464.8" class="st1" width="23.3" height="9.2"/>
<rect x="210.1" y="471.8" class="st1" width="23.3" height="9.2"/>
<rect x="210.1" y="478.8" class="st1" width="23.3" height="9.2"/>
<rect x="210.1" y="485.8" class="st1" width="23.3" height="9.2"/>
<rect x="210.1" y="492.8" class="st1" width="23.3" height="9.2"/>
<rect x="210.1" y="499.8" class="st1" width="23.3" height="9.2"/>
<rect x="210.1" y="506.8" class="st1" width="23.3" height="9.2"/>
<rect x="210.1" y="513.8" class="st1" width="23.3" height="9.2"/>
<rect x="210.1" y="520.8" class="st1" width="23.3" height="9.2"/>
<rect x="210.1" y="527.8" class="st1" width="23.3" height="9.2"/>
<rect x="210.1" y="534.8" class="st1" width="23.3" height="9.2"/>
<rect x="210.1" y="541.7" class="st1" width="23.3" height="9.2"/>
<rect x="210.1" y="548.8" class="st1" width="23.3" height="9.2"/>
<rect x="210.1" y="555.8" class="st1" width="23.3" height="9.2"/>
<text transform="matrix(1.001 1.183647e-02 -1.801229e-02 0.9998 207.837 25.3252)" class="st2 st3">1971-</text>
<text transform="matrix(1.001 1.183647e-02 -1.801229e-02 0.9998 207.5993 38.5223)" class="st2 st3">1995</text>
<rect x="113.4" y="44.9" class="st1" width="23.3" height="9.2"/>
<rect x="113.4" y="52" class="st1" width="23.3" height="9.2"/>
<rect x="113.4" y="59" class="st1" width="23.3" height="9.2"/>
<rect x="113.4" y="65.9" class="st1" width="23.3" height="9.2"/>
<rect x="113.4" y="73" class="st1" width="23.3" height="9.2"/>
<rect x="113.4" y="80" class="st1" width="23.3" height="9.2"/>
<rect x="113.4" y="86.9" class="st1" width="23.3" height="9.2"/>
<rect x="113.4" y="94" class="st1" width="23.3" height="9.2"/>
<rect x="113.4" y="100.9" class="st1" width="23.3" height="9.2"/>
<rect x="113.4" y="107.9" class="st1" width="23.3" height="9.2"/>
<rect x="113.4" y="115" class="st1" width="23.3" height="9.2"/>
<rect x="113.4" y="121.9" class="st1" width="23.3" height="9.2"/>
<rect x="113.4" y="128.9" class="st1" width="23.3" height="9.2"/>
<rect x="113.4" y="136" class="st1" width="23.3" height="9.2"/>
<rect x="113.4" y="142.9" class="st1" width="23.3" height="9.2"/>
<rect x="113.4" y="149.9" class="st1" width="23.3" height="9.2"/>
<rect x="113.4" y="157" class="st1" width="23.3" height="9.2"/>
<rect x="113.4" y="163.9" class="st1" width="23.3" height="9.2"/>
<rect x="113.4" y="170.9" class="st1" width="23.3" height="9.2"/>
<rect x="113.4" y="177.9" class="st1" width="23.3" height="9.2"/>
<rect x="113.4" y="184.9" class="st1" width="23.3" height="9.2"/>
<rect x="113.4" y="191.9" class="st1" width="23.3" height="9.2"/>
<rect x="113.4" y="198.9" class="st1" width="23.3" height="9.2"/>
<rect x="113.4" y="205.9" class="st1" width="23.3" height="9.2"/>
<rect x="113.4" y="212.9" class="st1" width="23.3" height="9.2"/>
<rect x="113.4" y="219.9" class="st1" width="23.3" height="9.2"/>
<rect x="113.4" y="226.9" class="st1" width="23.3" height="9.2"/>
<rect x="113.4" y="233.9" class="st1" width="23.3" height="9.2"/>
<rect x="113.4" y="240.9" class="st1" width="23.3" height="9.2"/>
<rect x="113.4" y="247.9" class="st1" width="23.3" height="9.2"/>
<rect x="113.4" y="254.8" class="st1" width="23.3" height="9.2"/>
<rect x="113.4" y="261.9" class="st1" width="23.3" height="9.2"/>
<rect x="113.4" y="268.9" class="st1" width="23.3" height="9.2"/>
<rect x="113.4" y="275.9" class="st1" width="23.3" height="9.2"/>
<rect x="113.4" y="282.9" class="st1" width="23.3" height="9.2"/>
<rect x="113.4" y="289.9" class="st1" width="23.3" height="9.2"/>
<rect x="113.4" y="296.9" class="st1" width="23.3" height="9.2"/>
<rect x="113.4" y="303.9" class="st1" width="23.3" height="9.2"/>
<rect x="113.4" y="310.8" class="st1" width="23.3" height="9.2"/>
<rect x="113.4" y="317.9" class="st1" width="23.3" height="9.2"/>
<rect x="113.4" y="324.9" class="st1" width="23.3" height="9.2"/>
<rect x="113.4" y="331.8" class="st1" width="23.3" height="9.2"/>
<rect x="113.4" y="338.9" class="st1" width="23.3" height="9.2"/>
<rect x="113.4" y="345.9" class="st1" width="23.3" height="9.2"/>
<rect x="113.4" y="352.8" class="st1" width="23.3" height="9.2"/>
<rect x="113.4" y="359.9" class="st1" width="23.3" height="9.2"/>
<rect x="113.4" y="366.9" class="st1" width="23.3" height="9.2"/>
<rect x="113.4" y="373.8" class="st1" width="23.3" height="9.2"/>
<rect x="113.4" y="380.9" class="st1" width="23.3" height="9.2"/>
<rect x="113.4" y="387.8" class="st1" width="23.3" height="9.2"/>
<rect x="113.4" y="394.8" class="st1" width="23.3" height="9.2"/>
<rect x="113.4" y="401.9" class="st1" width="23.3" height="9.2"/>
<rect x="113.4" y="408.8" class="st1" width="23.3" height="9.2"/>
<rect x="113.4" y="415.8" class="st1" width="23.3" height="9.2"/>
<rect x="113.4" y="422.9" class="st1" width="23.3" height="9.2"/>
<rect x="113.4" y="429.8" class="st1" width="23.3" height="9.2"/>
<rect x="113.4" y="436.8" class="st1" width="23.3" height="9.2"/>
<rect x="113.4" y="443.8" class="st1" width="23.3" height="9.2"/>
<rect x="113.4" y="450.8" class="st1" width="23.3" height="9.2"/>
<rect x="113.4" y="457.8" class="st1" width="23.3" height="9.2"/>
<rect x="113.4" y="464.8" class="st1" width="23.3" height="9.2"/>
<rect x="113.4" y="471.8" class="st1" width="23.3" height="9.2"/>
<rect x="113.4" y="478.8" class="st1" width="23.3" height="9.2"/>
<rect x="113.4" y="485.8" class="st1" width="23.3" height="9.2"/>
<rect x="113.4" y="492.8" class="st1" width="23.3" height="9.2"/>
<rect x="113.4" y="499.8" class="st1" width="23.3" height="9.2"/>
<rect x="113.4" y="506.8" class="st1" width="23.3" height="9.2"/>
<rect x="113.4" y="513.8" class="st1" width="23.3" height="9.2"/>
<rect x="113.4" y="520.8" class="st1" width="23.3" height="9.2"/>
<rect x="113.4" y="527.8" class="st1" width="23.3" height="9.2"/>
<rect x="113.4" y="534.8" class="st1" width="23.3" height="9.2"/>
<rect x="113.4" y="541.7" class="st1" width="23.3" height="9.2"/>
<rect x="113.4" y="548.8" class="st1" width="23.3" height="9.2"/>
<rect x="113.4" y="555.8" class="st1" width="23.3" height="9.2"/>
<rect x="113.4" y="562.7" class="st1" width="23.3" height="9.2"/>
<rect x="113.4" y="569.8" class="st1" width="23.3" height="9.2"/>
<rect x="113.4" y="576.8" class="st1" width="23.3" height="9.2"/>
<rect x="113.4" y="583.8" class="st1" width="23.3" height="9.2"/>
<rect x="113.4" y="590.8" class="st1" width="23.3" height="9.2"/>
<rect x="113.4" y="597.7" class="st1" width="23.3" height="9.2"/>
<text transform="matrix(1.001 1.183647e-02 -1.801229e-02 0.9998 111.1205 25.3243)" class="st2 st3">1946-</text>
<text transform="matrix(1.001 1.183647e-02 -1.801229e-02 0.9998 110.8833 38.5223)" class="st2 st3">1970</text>
<rect x="16.7" y="44.9" class="st1" width="23.3" height="9.2"/>
<rect x="16.7" y="52" class="st1" width="23.3" height="9.2"/>
<rect x="16.7" y="59" class="st1" width="23.3" height="9.2"/>
<rect x="16.7" y="65.9" class="st1" width="23.3" height="9.2"/>
<rect x="16.7" y="73" class="st1" width="23.3" height="9.2"/>
<rect x="16.7" y="80" class="st1" width="23.3" height="9.2"/>
<rect x="16.7" y="86.9" class="st1" width="23.3" height="9.2"/>
<rect x="16.7" y="94" class="st1" width="23.3" height="9.2"/>
<rect x="16.7" y="100.9" class="st1" width="23.3" height="9.2"/>
<rect x="16.7" y="107.9" class="st1" width="23.3" height="9.2"/>
<rect x="16.7" y="115" class="st1" width="23.3" height="9.2"/>
<rect x="16.7" y="121.9" class="st1" width="23.3" height="9.2"/>
<rect x="16.7" y="128.9" class="st1" width="23.3" height="9.2"/>
<rect x="16.7" y="136" class="st1" width="23.3" height="9.2"/>
<rect x="16.7" y="142.9" class="st1" width="23.3" height="9.2"/>
<rect x="16.7" y="149.9" class="st1" width="23.3" height="9.2"/>
<rect x="16.7" y="157" class="st1" width="23.3" height="9.2"/>
<rect x="16.7" y="163.9" class="st1" width="23.3" height="9.2"/>
<rect x="16.7" y="170.9" class="st1" width="23.3" height="9.2"/>
<rect x="16.7" y="177.9" class="st1" width="23.3" height="9.2"/>
<rect x="16.7" y="184.9" class="st1" width="23.3" height="9.2"/>
<rect x="16.7" y="191.9" class="st1" width="23.3" height="9.2"/>
<rect x="16.7" y="198.9" class="st1" width="23.3" height="9.2"/>
<rect x="16.7" y="205.9" class="st1" width="23.3" height="9.2"/>
<rect x="16.7" y="212.9" class="st1" width="23.3" height="9.2"/>
<rect x="16.7" y="219.9" class="st1" width="23.3" height="9.2"/>
<rect x="16.7" y="226.9" class="st1" width="23.3" height="9.2"/>
<rect x="16.7" y="233.9" class="st1" width="23.3" height="9.2"/>
<rect x="16.7" y="240.9" class="st1" width="23.3" height="9.2"/>
<rect x="16.7" y="247.9" class="st1" width="23.3" height="9.2"/>
<rect x="16.7" y="254.8" class="st1" width="23.3" height="9.2"/>
<rect x="16.7" y="261.9" class="st1" width="23.3" height="9.2"/>
<rect x="16.7" y="268.9" class="st1" width="23.3" height="9.2"/>
<rect x="16.7" y="275.9" class="st1" width="23.3" height="9.2"/>
<rect x="16.7" y="282.9" class="st1" width="23.3" height="9.2"/>
<rect x="16.7" y="289.9" class="st1" width="23.3" height="9.2"/>
<rect x="16.7" y="296.9" class="st1" width="23.3" height="9.2"/>
<rect x="16.7" y="303.9" class="st1" width="23.3" height="9.2"/>
<rect x="16.7" y="310.8" class="st1" width="23.3" height="9.2"/>
<rect x="16.7" y="317.9" class="st1" width="23.3" height="9.2"/>
<rect x="16.7" y="324.9" class="st1" width="23.3" height="9.2"/>
<rect x="16.7" y="331.8" class="st1" width="23.3" height="9.2"/>
<rect x="16.7" y="338.9" class="st1" width="23.3" height="9.2"/>
<rect x="16.7" y="345.9" class="st1" width="23.3" height="9.2"/>
<rect x="16.7" y="352.8" class="st1" width="23.3" height="9.2"/>
<rect x="16.7" y="359.9" class="st1" width="23.3" height="9.2"/>
<rect x="16.7" y="366.9" class="st1" width="23.3" height="9.2"/>
<rect x="16.7" y="373.8" class="st1" width="23.3" height="9.2"/>
<rect x="16.7" y="380.9" class="st1" width="23.3" height="9.2"/>
<rect x="16.7" y="387.8" class="st1" width="23.3" height="9.2"/>
<rect x="16.7" y="394.8" class="st1" width="23.3" height="9.2"/>
<rect x="16.7" y="401.9" class="st1" width="23.3" height="9.2"/>
<rect x="16.7" y="408.8" class="st1" width="23.3" height="9.2"/>
<rect x="16.7" y="415.8" class="st1" width="23.3" height="9.2"/>
<rect x="16.7" y="422.9" class="st1" width="23.3" height="9.2"/>
<rect x="16.7" y="429.8" class="st1" width="23.3" height="9.2"/>
<rect x="16.7" y="436.8" class="st1" width="23.3" height="9.2"/>
<rect x="16.7" y="443.8" class="st1" width="23.3" height="9.2"/>
<rect x="16.7" y="450.8" class="st1" width="23.3" height="9.2"/>
<rect x="16.7" y="457.8" class="st1" width="23.3" height="9.2"/>
<rect x="16.7" y="464.8" class="st1" width="23.3" height="9.2"/>
<rect x="16.7" y="471.8" class="st1" width="23.3" height="9.2"/>
<rect x="16.7" y="478.8" class="st1" width="23.3" height="9.2"/>
<rect x="16.7" y="485.8" class="st1" width="23.3" height="9.2"/>
<rect x="16.7" y="492.8" class="st1" width="23.3" height="9.2"/>
<rect x="16.7" y="499.8" class="st1" width="23.3" height="9.2"/>
<rect x="16.7" y="506.8" class="st1" width="23.3" height="9.2"/>
<rect x="16.7" y="513.8" class="st1" width="23.3" height="9.2"/>
<rect x="16.7" y="520.8" class="st1" width="23.3" height="9.2"/>
<rect x="16.7" y="527.8" class="st1" width="23.3" height="9.2"/>
<rect x="16.7" y="534.8" class="st1" width="23.3" height="9.2"/>
<rect x="16.7" y="541.7" class="st1" width="23.3" height="9.2"/>
<rect x="16.7" y="548.8" class="st1" width="23.3" height="9.2"/>
<rect x="16.7" y="555.8" class="st1" width="23.3" height="9.2"/>
<rect x="16.7" y="562.7" class="st1" width="23.3" height="9.2"/>
<rect x="16.7" y="569.8" class="st1" width="23.3" height="9.2"/>
<rect x="16.7" y="576.8" class="st1" width="23.3" height="9.2"/>
<rect x="16.7" y="583.8" class="st1" width="23.3" height="9.2"/>
<rect x="16.7" y="590.8" class="st1" width="23.3" height="9.2"/>
<rect x="16.7" y="597.7" class="st1" width="23.3" height="9.2"/>
<rect x="16.7" y="604.7" class="st1" width="23.3" height="9.2"/>
<text transform="matrix(1.001 1.183647e-02 -1.801229e-02 0.9998 14.4041 25.3253)" class="st2 st3">1920-</text>
<text transform="matrix(1.001 1.183647e-02 -1.801229e-02 0.9998 14.1663 38.5224)" class="st2 st3">1945</text>
<g id="ai2html-settings">
	<rect x="-477" y="-6.9" class="st4" width="400" height="418"/>
	<text transform="matrix(1 0 0 1 -477 3.778)" style="font-family:'ArialMT'; font-size:15px;">ai2html-settings</text>
	<text transform="matrix(1 0 0 1 -477 22.778)" style="font-family:'ArialMT'; font-size:15px;">settings_version: 0.115.5</text>
	<text transform="matrix(1 0 0 1 -477 41.778)" style="font-family:'ArialMT'; font-size:15px;">image_format: auto</text>
	<text transform="matrix(1 0 0 1 -477 60.778)" style="font-family:'ArialMT'; font-size:15px;">responsiveness: fixed</text>
	<text transform="matrix(1 0 0 1 -477 79.778)" style="font-family:'ArialMT'; font-size:15px;">output: one-file</text>
	<text transform="matrix(1 0 0 1 -477 98.778)" style="font-family:'ArialMT'; font-size:15px;">html_output_path: /ai2html-output/</text>
	<text transform="matrix(1 0 0 1 -477 117.778)" style="font-family:'ArialMT'; font-size:15px;">html_output_extension: .html</text>
	<text transform="matrix(1 0 0 1 -477 136.778)" style="font-family:'ArialMT'; font-size:15px;">image_output_path: </text>
	<text transform="matrix(1 0 0 1 -477 155.778)" style="font-family:'ArialMT'; font-size:15px;">local_preview_template: </text>
	<text transform="matrix(1 0 0 1 -477 174.778)" style="font-family:'ArialMT'; font-size:15px;">png_number_of_colors: 128</text>
	<text transform="matrix(1 0 0 1 -477 193.778)" style="font-family:'ArialMT'; font-size:15px;">jpg_quality: 60</text>
	<text transform="matrix(1 0 0 1 -477 212.778)" style="font-family:'ArialMT'; font-size:15px;">headline: </text>
	<text transform="matrix(1 0 0 1 -477 231.778)" style="font-family:'ArialMT'; font-size:15px;">leadin: </text>
	<text transform="matrix(1 0 0 1 -477 250.778)" style="font-family:'ArialMT'; font-size:15px;">notes: </text>
	<text transform="matrix(1 0 0 1 -477 269.778)" style="font-family:'ArialMT'; font-size:15px;">sources: </text>
	<text transform="matrix(1 0 0 1 -477 288.778)" style="font-family:'ArialMT'; font-size:15px;">credit: </text>
</g>
</svg>
