<?xml version="1.0" encoding="utf-8"?>
<!-- Generator: Adobe Illustrator 27.2.0, SVG Export Plug-In . SVG Version: 6.00 Build 0)  -->
<svg version="1.1" xmlns="http://www.w3.org/2000/svg" xmlns:xlink="http://www.w3.org/1999/xlink" x="0px" y="0px"
	 viewBox="0 0 350 400" style="enable-background:new 0 0 350 400;" xml:space="preserve">
<style type="text/css">
	.st0{fill:#F9DCAB;stroke:#000000;stroke-miterlimit:10;}
	.st1{fill:#C49036;stroke:#C49036;}
	.st2{fill:none;}
	.st3{fill:#846633;stroke:#846633;}
	.st4{fill:#B69D4C;stroke:#B69D4C;}
	.st5{fill:#D3CBA5;stroke:#D3CBA5;}
	.st6{fill:#F5F5DC;stroke:#F5F5DC;}
	.st7{fill:#C49036;}
	.st8{font-family:'ArialMT';}
	.st9{font-size:12px;}
	.st10{fill:#846633;}
	.st11{fill:#B69D4C;}
</style>
<g id="Layer_1">
	<path class="st0" d="M3.1,400H350V77.9H3.1L3.1,400L3.1,400z"/>
	<rect x="-8.4" y="-8.4" class="st0" width="367.1" height="416.9"/>
	<path class="st1" d="M3.1,400h24.4v-22.7H3.1V400z"/>
	<path class="st2" d="M3.1,400H350V77.9H3.1L3.1,400L3.1,400z"/>
	<path class="st1" d="M3.1,372.7h24.4v-22.7H3.1V372.7z"/>
	<path class="st2" d="M3.1,400H350V77.9H3.1L3.1,400L3.1,400z"/>
	<path class="st1" d="M3.1,345.5h24.4v-22.7H3.1V345.5z"/>
	<path class="st2" d="M3.1,400H350V77.9H3.1L3.1,400L3.1,400z"/>
	<path class="st1" d="M3.1,318.3h24.4v-22.7H3.1V318.3z"/>
	<path class="st2" d="M3.1,400H350V77.9H3.1L3.1,400L3.1,400z"/>
	<path class="st1" d="M3.1,291.1h24.4v-22.7H3.1V291.1z"/>
	<path class="st2" d="M3.1,400H350V77.9H3.1L3.1,400L3.1,400z"/>
	<path class="st1" d="M3.1,263.9h24.4v-22.7H3.1V263.9z"/>
	<path class="st2" d="M3.1,400H350V77.9H3.1L3.1,400L3.1,400z"/>
	<path class="st1" d="M3.1,236.7h24.4V214H3.1V236.7z"/>
	<path class="st2" d="M3.1,400H350V77.9H3.1L3.1,400L3.1,400z"/>
	<path class="st1" d="M3.1,209.5h24.4v-22.7H3.1V209.5z"/>
	<path class="st2" d="M3.1,400H350V77.9H3.1L3.1,400L3.1,400z"/>
	<path class="st1" d="M3.1,182.3h24.4v-22.7H3.1V182.3z"/>
	<path class="st2" d="M3.1,400H350V77.9H3.1L3.1,400L3.1,400z"/>
	<path class="st1" d="M3.1,155h24.4v-22.7H3.1V155z"/>
	<path class="st2" d="M3.1,400H350V77.9H3.1L3.1,400L3.1,400z"/>
	<path class="st1" d="M3.1,127.8h24.4v-22.7H3.1V127.8z"/>
	<path class="st2" d="M3.1,400H350V77.9H3.1L3.1,400L3.1,400z"/>
	<path class="st1" d="M3.1,100.6h24.4V77.9H3.1V100.6z"/>
	<path class="st2" d="M3.1,400H350V77.9H3.1L3.1,400L3.1,400z"/>
	<path class="st1" d="M32.4,400h24.4v-22.7H32.4V400z"/>
	<path class="st2" d="M3.1,400H350V77.9H3.1L3.1,400L3.1,400z"/>
	<path class="st1" d="M32.4,372.7h24.4v-22.7H32.4V372.7z"/>
	<path class="st2" d="M3.1,400H350V77.9H3.1L3.1,400L3.1,400z"/>
	<path class="st1" d="M32.4,345.5h24.4v-22.7H32.4V345.5z"/>
	<path class="st2" d="M3.1,400H350V77.9H3.1L3.1,400L3.1,400z"/>
	<path class="st1" d="M32.4,318.3h24.4v-22.7H32.4V318.3z"/>
	<path class="st2" d="M3.1,400H350V77.9H3.1L3.1,400L3.1,400z"/>
	<path class="st1" d="M32.4,291.1h24.4v-22.7H32.4V291.1z"/>
	<path class="st2" d="M3.1,400H350V77.9H3.1L3.1,400L3.1,400z"/>
	<path class="st1" d="M32.4,263.9h24.4v-22.7H32.4V263.9z"/>
	<path class="st2" d="M3.1,400H350V77.9H3.1L3.1,400L3.1,400z"/>
	<path class="st1" d="M32.4,236.7h24.4V214H32.4V236.7z"/>
	<path class="st2" d="M3.1,400H350V77.9H3.1L3.1,400L3.1,400z"/>
	<path class="st1" d="M32.4,209.5h24.4v-22.7H32.4V209.5z"/>
	<path class="st2" d="M3.1,400H350V77.9H3.1L3.1,400L3.1,400z"/>
	<path class="st1" d="M32.4,182.3h24.4v-22.7H32.4V182.3z"/>
	<path class="st2" d="M3.1,400H350V77.9H3.1L3.1,400L3.1,400z"/>
	<path class="st1" d="M32.4,155h24.4v-22.7H32.4V155z"/>
	<path class="st2" d="M3.1,400H350V77.9H3.1L3.1,400L3.1,400z"/>
	<path class="st1" d="M32.4,127.8h24.4v-22.7H32.4V127.8z"/>
	<path class="st2" d="M3.1,400H350V77.9H3.1L3.1,400L3.1,400z"/>
	<path class="st1" d="M32.4,100.6h24.4V77.9H32.4V100.6z"/>
	<path class="st2" d="M3.1,400H350V77.9H3.1L3.1,400L3.1,400z"/>
	<path class="st1" d="M61.7,400h24.4v-22.7H61.7V400z"/>
	<path class="st2" d="M3.1,400H350V77.9H3.1L3.1,400L3.1,400z"/>
	<path class="st1" d="M61.7,372.7h24.4v-22.7H61.7V372.7z"/>
	<path class="st2" d="M3.1,400H350V77.9H3.1L3.1,400L3.1,400z"/>
	<path class="st1" d="M61.7,345.5h24.4v-22.7H61.7V345.5z"/>
	<path class="st2" d="M3.1,400H350V77.9H3.1L3.1,400L3.1,400z"/>
	<path class="st1" d="M61.7,318.3h24.4v-22.7H61.7V318.3z"/>
	<path class="st2" d="M3.1,400H350V77.9H3.1L3.1,400L3.1,400z"/>
	<path class="st1" d="M61.7,291.1h24.4v-22.7H61.7V291.1z"/>
	<path class="st2" d="M3.1,400H350V77.9H3.1L3.1,400L3.1,400z"/>
	<path class="st1" d="M61.7,263.9h24.4v-22.7H61.7V263.9z"/>
	<path class="st2" d="M3.1,400H350V77.9H3.1L3.1,400L3.1,400z"/>
	<path class="st1" d="M61.7,236.7h24.4V214H61.7V236.7z"/>
	<path class="st2" d="M3.1,400H350V77.9H3.1L3.1,400L3.1,400z"/>
	<path class="st1" d="M61.7,209.5h24.4v-22.7H61.7V209.5z"/>
	<path class="st2" d="M3.1,400H350V77.9H3.1L3.1,400L3.1,400z"/>
	<path class="st1" d="M61.7,182.3h24.4v-22.7H61.7V182.3z"/>
	<path class="st2" d="M3.1,400H350V77.9H3.1L3.1,400L3.1,400z"/>
	<path class="st1" d="M61.7,155h24.4v-22.7H61.7V155z"/>
	<path class="st2" d="M3.1,400H350V77.9H3.1L3.1,400L3.1,400z"/>
	<path class="st1" d="M61.7,127.8h24.4v-22.7H61.7V127.8z"/>
	<path class="st2" d="M3.1,400H350V77.9H3.1L3.1,400L3.1,400z"/>
	<path class="st1" d="M61.7,100.6h24.4V77.9H61.7V100.6z"/>
	<path class="st2" d="M3.1,400H350V77.9H3.1L3.1,400L3.1,400z"/>
	<path class="st1" d="M91.1,400h24.4v-22.7H91.1L91.1,400L91.1,400z"/>
	<path class="st2" d="M3.1,400H350V77.9H3.1L3.1,400L3.1,400z"/>
	<path class="st1" d="M91.1,372.7h24.4v-22.7H91.1L91.1,372.7L91.1,372.7z"/>
	<path class="st2" d="M3.1,400H350V77.9H3.1L3.1,400L3.1,400z"/>
	<path class="st1" d="M91.1,345.5h24.4v-22.7H91.1L91.1,345.5L91.1,345.5z"/>
	<path class="st2" d="M3.1,400H350V77.9H3.1L3.1,400L3.1,400z"/>
	<path class="st1" d="M91.1,318.3h24.4v-22.7H91.1L91.1,318.3L91.1,318.3z"/>
	<path class="st2" d="M3.1,400H350V77.9H3.1L3.1,400L3.1,400z"/>
	<path class="st1" d="M91.1,291.1h24.4v-22.7H91.1L91.1,291.1L91.1,291.1z"/>
	<path class="st2" d="M3.1,400H350V77.9H3.1L3.1,400L3.1,400z"/>
	<path class="st1" d="M91.1,263.9h24.4v-22.7H91.1L91.1,263.9L91.1,263.9z"/>
	<path class="st2" d="M3.1,400H350V77.9H3.1L3.1,400L3.1,400z"/>
	<path class="st1" d="M91.1,236.7h24.4V214H91.1L91.1,236.7L91.1,236.7z"/>
	<path class="st2" d="M3.1,400H350V77.9H3.1L3.1,400L3.1,400z"/>
	<path class="st1" d="M91.1,209.5h24.4v-22.7H91.1L91.1,209.5L91.1,209.5z"/>
	<path class="st2" d="M3.1,400H350V77.9H3.1L3.1,400L3.1,400z"/>
	<path class="st1" d="M91.1,182.3h24.4v-22.7H91.1L91.1,182.3L91.1,182.3z"/>
	<path class="st2" d="M3.1,400H350V77.9H3.1L3.1,400L3.1,400z"/>
	<path class="st1" d="M91.1,155h24.4v-22.7H91.1L91.1,155L91.1,155z"/>
	<path class="st2" d="M3.1,400H350V77.9H3.1L3.1,400L3.1,400z"/>
	<path class="st1" d="M91.1,127.8h24.4v-22.7H91.1L91.1,127.8L91.1,127.8z"/>
	<path class="st2" d="M3.1,400H350V77.9H3.1L3.1,400L3.1,400z"/>
	<path class="st1" d="M91.1,100.6h24.4V77.9H91.1L91.1,100.6L91.1,100.6z"/>
	<path class="st2" d="M3.1,400H350V77.9H3.1L3.1,400L3.1,400z"/>
	<path class="st1" d="M120.4,400h24.4v-22.7h-24.4L120.4,400L120.4,400z"/>
	<path class="st2" d="M3.1,400H350V77.9H3.1L3.1,400L3.1,400z"/>
	<path class="st1" d="M120.4,372.7h24.4v-22.7h-24.4L120.4,372.7L120.4,372.7z"/>
	<path class="st2" d="M3.1,400H350V77.9H3.1L3.1,400L3.1,400z"/>
	<path class="st1" d="M120.4,345.5h24.4v-22.7h-24.4L120.4,345.5L120.4,345.5z"/>
	<path class="st2" d="M3.1,400H350V77.9H3.1L3.1,400L3.1,400z"/>
	<path class="st1" d="M120.4,318.3h24.4v-22.7h-24.4L120.4,318.3L120.4,318.3z"/>
	<path class="st2" d="M3.1,400H350V77.9H3.1L3.1,400L3.1,400z"/>
	<path class="st1" d="M120.4,291.1h24.4v-22.7h-24.4L120.4,291.1L120.4,291.1z"/>
	<path class="st2" d="M3.1,400H350V77.9H3.1L3.1,400L3.1,400z"/>
	<path class="st1" d="M120.4,263.9h24.4v-22.7h-24.4L120.4,263.9L120.4,263.9z"/>
	<path class="st2" d="M3.1,400H350V77.9H3.1L3.1,400L3.1,400z"/>
	<path class="st1" d="M120.4,236.7h24.4V214h-24.4L120.4,236.7L120.4,236.7z"/>
	<path class="st2" d="M3.1,400H350V77.9H3.1L3.1,400L3.1,400z"/>
	<path class="st1" d="M120.4,209.5h24.4v-22.7h-24.4L120.4,209.5L120.4,209.5z"/>
	<path class="st2" d="M3.1,400H350V77.9H3.1L3.1,400L3.1,400z"/>
	<path class="st1" d="M120.4,182.3h24.4v-22.7h-24.4L120.4,182.3L120.4,182.3z"/>
	<path class="st2" d="M3.1,400H350V77.9H3.1L3.1,400L3.1,400z"/>
	<path class="st1" d="M120.4,155h24.4v-22.7h-24.4L120.4,155L120.4,155z"/>
	<path class="st2" d="M3.1,400H350V77.9H3.1L3.1,400L3.1,400z"/>
	<path class="st1" d="M120.4,127.8h24.4v-22.7h-24.4L120.4,127.8L120.4,127.8z"/>
	<path class="st2" d="M3.1,400H350V77.9H3.1L3.1,400L3.1,400z"/>
	<path class="st3" d="M120.4,100.6h24.4V77.9h-24.4L120.4,100.6L120.4,100.6z"/>
	<path class="st2" d="M3.1,400H350V77.9H3.1L3.1,400L3.1,400z"/>
	<path class="st3" d="M149.7,400h24.4v-22.7h-24.4V400L149.7,400z"/>
	<path class="st2" d="M3.1,400H350V77.9H3.1L3.1,400L3.1,400z"/>
	<path class="st3" d="M149.7,372.7h24.4v-22.7h-24.4V372.7L149.7,372.7z"/>
	<path class="st2" d="M3.1,400H350V77.9H3.1L3.1,400L3.1,400z"/>
	<path class="st3" d="M149.7,345.5h24.4v-22.7h-24.4V345.5L149.7,345.5z"/>
	<path class="st2" d="M3.1,400H350V77.9H3.1L3.1,400L3.1,400z"/>
	<path class="st3" d="M149.7,318.3h24.4v-22.7h-24.4V318.3L149.7,318.3z"/>
	<path class="st2" d="M3.1,400H350V77.9H3.1L3.1,400L3.1,400z"/>
	<path class="st3" d="M149.7,291.1h24.4v-22.7h-24.4V291.1L149.7,291.1z"/>
	<path class="st2" d="M3.1,400H350V77.9H3.1L3.1,400L3.1,400z"/>
	<path class="st3" d="M149.7,263.9h24.4v-22.7h-24.4V263.9L149.7,263.9z"/>
	<path class="st2" d="M3.1,400H350V77.9H3.1L3.1,400L3.1,400z"/>
	<path class="st3" d="M149.7,236.7h24.4V214h-24.4V236.7L149.7,236.7z"/>
	<path class="st2" d="M3.1,400H350V77.9H3.1L3.1,400L3.1,400z"/>
	<path class="st3" d="M149.7,209.5h24.4v-22.7h-24.4V209.5L149.7,209.5z"/>
	<path class="st2" d="M3.1,400H350V77.9H3.1L3.1,400L3.1,400z"/>
	<path class="st3" d="M149.7,182.3h24.4v-22.7h-24.4V182.3L149.7,182.3z"/>
	<path class="st2" d="M3.1,400H350V77.9H3.1L3.1,400L3.1,400z"/>
	<path class="st3" d="M149.7,155h24.4v-22.7h-24.4V155L149.7,155z"/>
	<path class="st2" d="M3.1,400H350V77.9H3.1L3.1,400L3.1,400z"/>
	<path class="st3" d="M149.7,127.8h24.4v-22.7h-24.4V127.8L149.7,127.8z"/>
	<path class="st2" d="M3.1,400H350V77.9H3.1L3.1,400L3.1,400z"/>
	<path class="st3" d="M149.7,100.6h24.4V77.9h-24.4V100.6L149.7,100.6z"/>
	<path class="st2" d="M3.1,400H350V77.9H3.1L3.1,400L3.1,400z"/>
	<path class="st3" d="M179,400h24.4v-22.7H179V400z"/>
	<path class="st2" d="M3.1,400H350V77.9H3.1L3.1,400L3.1,400z"/>
	<path class="st3" d="M179,372.7h24.4v-22.7H179V372.7z"/>
	<path class="st2" d="M3.1,400H350V77.9H3.1L3.1,400L3.1,400z"/>
	<path class="st3" d="M179,345.5h24.4v-22.7H179V345.5z"/>
	<path class="st2" d="M3.1,400H350V77.9H3.1L3.1,400L3.1,400z"/>
	<path class="st3" d="M179,318.3h24.4v-22.7H179V318.3z"/>
	<path class="st2" d="M3.1,400H350V77.9H3.1L3.1,400L3.1,400z"/>
	<path class="st3" d="M179,291.1h24.4v-22.7H179V291.1z"/>
	<path class="st2" d="M3.1,400H350V77.9H3.1L3.1,400L3.1,400z"/>
	<path class="st3" d="M179,263.9h24.4v-22.7H179V263.9z"/>
	<path class="st2" d="M3.1,400H350V77.9H3.1L3.1,400L3.1,400z"/>
	<path class="st3" d="M179,236.7h24.4V214H179V236.7z"/>
	<path class="st2" d="M3.1,400H350V77.9H3.1L3.1,400L3.1,400z"/>
	<path class="st3" d="M179,209.5h24.4v-22.7H179V209.5z"/>
	<path class="st2" d="M3.1,400H350V77.9H3.1L3.1,400L3.1,400z"/>
	<path class="st3" d="M179,182.3h24.4v-22.7H179V182.3z"/>
	<path class="st2" d="M3.1,400H350V77.9H3.1L3.1,400L3.1,400z"/>
	<path class="st3" d="M179,155h24.4v-22.7H179V155z"/>
	<path class="st2" d="M3.1,400H350V77.9H3.1L3.1,400L3.1,400z"/>
	<path class="st3" d="M179,127.8h24.4v-22.7H179V127.8z"/>
	<path class="st2" d="M3.1,400H350V77.9H3.1L3.1,400L3.1,400z"/>
	<path class="st3" d="M179,100.6h24.4V77.9H179V100.6z"/>
	<path class="st2" d="M3.1,400H350V77.9H3.1L3.1,400L3.1,400z"/>
	<path class="st3" d="M208.3,400h24.4v-22.7h-24.4V400z"/>
	<path class="st2" d="M3.1,400H350V77.9H3.1L3.1,400L3.1,400z"/>
	<path class="st3" d="M208.3,372.7h24.4v-22.7h-24.4V372.7z"/>
	<path class="st2" d="M3.1,400H350V77.9H3.1L3.1,400L3.1,400z"/>
	<path class="st3" d="M208.3,345.5h24.4v-22.7h-24.4V345.5z"/>
	<path class="st2" d="M3.1,400H350V77.9H3.1L3.1,400L3.1,400z"/>
	<path class="st3" d="M208.3,318.3h24.4v-22.7h-24.4V318.3z"/>
	<path class="st2" d="M3.1,400H350V77.9H3.1L3.1,400L3.1,400z"/>
	<path class="st3" d="M208.3,291.1h24.4v-22.7h-24.4V291.1z"/>
	<path class="st2" d="M3.1,400H350V77.9H3.1L3.1,400L3.1,400z"/>
	<path class="st4" d="M208.3,263.9h24.4v-22.7h-24.4V263.9z"/>
	<path class="st2" d="M3.1,400H350V77.9H3.1L3.1,400L3.1,400z"/>
	<path class="st4" d="M208.3,236.7h24.4V214h-24.4V236.7z"/>
	<path class="st2" d="M3.1,400H350V77.9H3.1L3.1,400L3.1,400z"/>
	<path class="st4" d="M208.3,209.5h24.4v-22.7h-24.4V209.5z"/>
	<path class="st2" d="M3.1,400H350V77.9H3.1L3.1,400L3.1,400z"/>
	<path class="st4" d="M208.3,182.3h24.4v-22.7h-24.4V182.3z"/>
	<path class="st2" d="M3.1,400H350V77.9H3.1L3.1,400L3.1,400z"/>
	<path class="st4" d="M208.3,155h24.4v-22.7h-24.4V155z"/>
	<path class="st2" d="M3.1,400H350V77.9H3.1L3.1,400L3.1,400z"/>
	<path class="st4" d="M208.3,127.8h24.4v-22.7h-24.4V127.8z"/>
	<path class="st2" d="M3.1,400H350V77.9H3.1L3.1,400L3.1,400z"/>
	<path class="st4" d="M208.3,100.6h24.4V77.9h-24.4V100.6z"/>
	<path class="st2" d="M3.1,400H350V77.9H3.1L3.1,400L3.1,400z"/>
	<path class="st4" d="M237.6,400H262v-22.7h-24.4V400z"/>
	<path class="st2" d="M3.1,400H350V77.9H3.1L3.1,400L3.1,400z"/>
	<path class="st4" d="M237.6,372.7H262v-22.7h-24.4V372.7z"/>
	<path class="st2" d="M3.1,400H350V77.9H3.1L3.1,400L3.1,400z"/>
	<path class="st4" d="M237.6,345.5H262v-22.7h-24.4V345.5z"/>
	<path class="st2" d="M3.1,400H350V77.9H3.1L3.1,400L3.1,400z"/>
	<path class="st4" d="M237.6,318.3H262v-22.7h-24.4V318.3z"/>
	<path class="st2" d="M3.1,400H350V77.9H3.1L3.1,400L3.1,400z"/>
	<path class="st4" d="M237.6,291.1H262v-22.7h-24.4V291.1z"/>
	<path class="st2" d="M3.1,400H350V77.9H3.1L3.1,400L3.1,400z"/>
	<path class="st4" d="M237.6,263.9H262v-22.7h-24.4V263.9z"/>
	<path class="st2" d="M3.1,400H350V77.9H3.1L3.1,400L3.1,400z"/>
	<path class="st4" d="M237.6,236.7H262V214h-24.4V236.7z"/>
	<path class="st2" d="M3.1,400H350V77.9H3.1L3.1,400L3.1,400z"/>
	<path class="st4" d="M237.6,209.5H262v-22.7h-24.4V209.5z"/>
	<path class="st2" d="M3.1,400H350V77.9H3.1L3.1,400L3.1,400z"/>
	<path class="st4" d="M237.6,182.3H262v-22.7h-24.4V182.3z"/>
	<path class="st2" d="M3.1,400H350V77.9H3.1L3.1,400L3.1,400z"/>
	<path class="st4" d="M237.6,155H262v-22.7h-24.4V155z"/>
	<path class="st2" d="M3.1,400H350V77.9H3.1L3.1,400L3.1,400z"/>
	<path class="st4" d="M237.6,127.8H262v-22.7h-24.4V127.8z"/>
	<path class="st2" d="M3.1,400H350V77.9H3.1L3.1,400L3.1,400z"/>
	<path class="st4" d="M237.6,100.6H262V77.9h-24.4V100.6z"/>
	<path class="st2" d="M3.1,400H350V77.9H3.1L3.1,400L3.1,400z"/>
	<path class="st4" d="M266.9,400h24.4v-22.7h-24.4V400z"/>
	<path class="st2" d="M3.1,400H350V77.9H3.1L3.1,400L3.1,400z"/>
	<path class="st4" d="M266.9,372.7h24.4v-22.7h-24.4V372.7z"/>
	<path class="st2" d="M3.1,400H350V77.9H3.1L3.1,400L3.1,400z"/>
	<path class="st5" d="M266.9,345.5h24.4v-22.7h-24.4V345.5z"/>
	<path class="st2" d="M3.1,400H350V77.9H3.1L3.1,400L3.1,400z"/>
	<path class="st5" d="M266.9,318.3h24.4v-22.7h-24.4V318.3z"/>
	<path class="st2" d="M3.1,400H350V77.9H3.1L3.1,400L3.1,400z"/>
	<path class="st5" d="M266.9,291.1h24.4v-22.7h-24.4V291.1z"/>
	<path class="st2" d="M3.1,400H350V77.9H3.1L3.1,400L3.1,400z"/>
	<path class="st5" d="M266.9,263.9h24.4v-22.7h-24.4V263.9z"/>
	<path class="st2" d="M3.1,400H350V77.9H3.1L3.1,400L3.1,400z"/>
	<path class="st5" d="M266.9,236.7h24.4V214h-24.4V236.7z"/>
	<path class="st2" d="M3.1,400H350V77.9H3.1L3.1,400L3.1,400z"/>
	<path class="st5" d="M266.9,209.5h24.4v-22.7h-24.4V209.5z"/>
	<path class="st2" d="M3.1,400H350V77.9H3.1L3.1,400L3.1,400z"/>
	<path class="st5" d="M266.9,182.3h24.4v-22.7h-24.4V182.3z"/>
	<path class="st2" d="M3.1,400H350V77.9H3.1L3.1,400L3.1,400z"/>
	<path class="st5" d="M266.9,155h24.4v-22.7h-24.4V155z"/>
	<path class="st2" d="M3.1,400H350V77.9H3.1L3.1,400L3.1,400z"/>
	<path class="st5" d="M266.9,127.8h24.4v-22.7h-24.4V127.8z"/>
	<path class="st2" d="M3.1,400H350V77.9H3.1L3.1,400L3.1,400z"/>
	<path class="st5" d="M266.9,100.6h24.4V77.9h-24.4V100.6z"/>
	<path class="st2" d="M3.1,400H350V77.9H3.1L3.1,400L3.1,400z"/>
	<path class="st5" d="M296.2,400h24.4v-22.7h-24.4V400z"/>
	<path class="st2" d="M3.1,400H350V77.9H3.1L3.1,400L3.1,400z"/>
	<path class="st5" d="M296.2,372.7h24.4v-22.7h-24.4V372.7z"/>
	<path class="st2" d="M3.1,400H350V77.9H3.1L3.1,400L3.1,400z"/>
	<path class="st5" d="M296.2,345.5h24.4v-22.7h-24.4V345.5z"/>
	<path class="st2" d="M3.1,400H350V77.9H3.1L3.1,400L3.1,400z"/>
	<path class="st5" d="M296.2,318.3h24.4v-22.7h-24.4V318.3z"/>
	<path class="st2" d="M3.1,400H350V77.9H3.1L3.1,400L3.1,400z"/>
	<path class="st5" d="M296.2,291.1h24.4v-22.7h-24.4V291.1z"/>
	<path class="st2" d="M3.1,400H350V77.9H3.1L3.1,400L3.1,400z"/>
	<path class="st5" d="M296.2,263.9h24.4v-22.7h-24.4V263.9z"/>
	<path class="st2" d="M3.1,400H350V77.9H3.1L3.1,400L3.1,400z"/>
	<path class="st5" d="M296.2,236.7h24.4V214h-24.4V236.7z"/>
	<path class="st2" d="M3.1,400H350V77.9H3.1L3.1,400L3.1,400z"/>
	<path class="st5" d="M296.2,209.5h24.4v-22.7h-24.4V209.5z"/>
	<path class="st2" d="M3.1,400H350V77.9H3.1L3.1,400L3.1,400z"/>
	<path class="st6" d="M296.2,182.3h24.4v-22.7h-24.4V182.3z"/>
	<path class="st2" d="M3.1,400H350V77.9H3.1L3.1,400L3.1,400z"/>
	<path class="st6" d="M296.2,155h24.4v-22.7h-24.4V155z"/>
	<path class="st2" d="M3.1,400H350V77.9H3.1L3.1,400L3.1,400z"/>
	<path class="st6" d="M296.2,127.8h24.4v-22.7h-24.4V127.8z"/>
	<path class="st2" d="M3.1,400H350V77.9H3.1L3.1,400L3.1,400z"/>
	<path class="st6" d="M296.2,100.6h24.4V77.9h-24.4V100.6z"/>
	<path class="st2" d="M3.1,400H350V77.9H3.1L3.1,400L3.1,400z"/>
	<path class="st6" d="M325.6,400H350v-22.7h-24.4V400z"/>
	<path class="st2" d="M3.1,400H350V77.9H3.1L3.1,400L3.1,400z"/>
	<path class="st6" d="M325.6,372.7H350v-22.7h-24.4V372.7z"/>
	<path class="st2" d="M3.1,400H350V77.9H3.1L3.1,400L3.1,400z"/>
	<path class="st6" d="M325.6,345.5H350v-22.7h-24.4V345.5z"/>
	<path class="st2" d="M3.1,400H350V77.9H3.1L3.1,400L3.1,400z"/>
	<path class="st6" d="M325.6,318.3H350v-22.7h-24.4V318.3z"/>
	<path class="st2" d="M3.1,400H350V77.9H3.1L3.1,400L3.1,400z"/>
	<path class="st6" d="M325.6,291.1H350v-22.7h-24.4V291.1z"/>
	<path class="st2" d="M3.1,400H350V77.9H3.1L3.1,400L3.1,400z"/>
	<path class="st6" d="M325.6,263.9H350v-22.7h-24.4V263.9z"/>
	<path class="st2" d="M3.1,400H350V77.9H3.1L3.1,400L3.1,400z"/>
	<path class="st6" d="M325.6,236.7H350V214h-24.4V236.7z"/>
	<path class="st2" d="M3.1,400H350V77.9H3.1L3.1,400L3.1,400z"/>
	<path class="st6" d="M325.6,209.5H350v-22.7h-24.4V209.5z"/>
	<path class="st2" d="M3.1,400H350V77.9H3.1L3.1,400L3.1,400z"/>
	<path class="st6" d="M325.6,182.3H350v-22.7h-24.4V182.3z"/>
	<path class="st2" d="M3.1,400H350V77.9H3.1L3.1,400L3.1,400z"/>
	<path class="st6" d="M325.6,155H350v-22.7h-24.4V155z"/>
	<path class="st2" d="M3.1,400H350V77.9H3.1L3.1,400L3.1,400z"/>
	<path class="st6" d="M325.6,127.8H350v-22.7h-24.4V127.8z"/>
	<path class="st2" d="M3.1,400H350V77.9H3.1L3.1,400L3.1,400z"/>
	<path class="st6" d="M325.6,100.6H350V77.9h-24.4V100.6z"/>
	<path class="st1" d="M5.3,23.1h20v-7h-20V23.1z"/>
	<path class="st3" d="M105.5,23.1h20v-7h-20V23.1z"/>
	<path class="st4" d="M210.5,23.1h20v-7h-20V23.1z"/>
	<path class="st5" d="M5.3,46.2h20v-7h-20V46.2z"/>
	<path class="st6" d="M105.5,46.2h20v-7h-20V46.2z"/>
	<text transform="matrix(1 0 0 1 32.427 22.7812)" class="st7 st8 st9">India</text>
	<text transform="matrix(1 0 0 1 131.8866 22.7811)" class="st10 st8 st9">China</text>
	<text transform="matrix(1 0 0 1 237.6244 22.7811)" class="st11 st8 st9">Ireland</text>
	<text transform="matrix(1 0 0 1 32.4266 46.1792)" class="st8 st9">Singapore</text>
	<text transform="matrix(1 0 0 1 131.9055 47.7234)" class="st8 st9">Australia</text>
</g>
<g id="ai2html-settings">
	<rect x="-450" class="st2" width="400" height="418"/>
	<text id="ai2html-settings_00000153678115315845488540000012550497819657523364_" transform="matrix(1 0 0 1 -450 10.6499)"><tspan x="0" y="0" style="font-family:'MyriadPro-Regular'; font-size:15px;">ai2html-settings</tspan><tspan x="0" y="19" style="font-family:'MyriadPro-Regular'; font-size:15px;">settings_version: 0.115.5</tspan><tspan x="0" y="38" style="font-family:'MyriadPro-Regular'; font-size:15px;">image_format: auto</tspan><tspan x="0" y="57" style="font-family:'MyriadPro-Regular'; font-size:15px;">responsiveness: fixed</tspan><tspan x="0" y="76" style="font-family:'MyriadPro-Regular'; font-size:15px;">output: one-file</tspan><tspan x="0" y="95" style="font-family:'MyriadPro-Regular'; font-size:15px;">html_output_path: /ai2html-output/</tspan><tspan x="0" y="114" style="font-family:'MyriadPro-Regular'; font-size:15px;">html_output_extension: .html</tspan><tspan x="0" y="133" style="font-family:'MyriadPro-Regular'; font-size:15px;">image_output_path: </tspan><tspan x="0" y="152" style="font-family:'MyriadPro-Regular'; font-size:15px;">local_preview_template: </tspan><tspan x="0" y="171" style="font-family:'MyriadPro-Regular'; font-size:15px;">png_number_of_colors: 128</tspan><tspan x="0" y="190" style="font-family:'MyriadPro-Regular'; font-size:15px;">jpg_quality: 60</tspan><tspan x="0" y="209" style="font-family:'MyriadPro-Regular'; font-size:15px;">headline: </tspan><tspan x="0" y="228" style="font-family:'MyriadPro-Regular'; font-size:15px;">leadin: </tspan><tspan x="0" y="247" style="font-family:'MyriadPro-Regular'; font-size:15px;">notes: </tspan><tspan x="0" y="266" style="font-family:'MyriadPro-Regular'; font-size:15px;">sources: </tspan><tspan x="0" y="285" style="font-family:'MyriadPro-Regular'; font-size:15px;">credit: </tspan></text>
</g>
</svg>
