<?xml version="1.0" encoding="utf-8"?>
<!-- Generator: Adobe Illustrator 27.2.0, SVG Export Plug-In . SVG Version: 6.00 Build 0)  -->
<svg version="1.1" id="Layer_1" xmlns="http://www.w3.org/2000/svg" xmlns:xlink="http://www.w3.org/1999/xlink" x="0px" y="0px"
	 viewBox="0 0 750 500" style="enable-background:new 0 0 750 500;" xml:space="preserve">
<style type="text/css">
	.st0{fill:#F9DCAB;stroke:#000000;stroke-miterlimit:10;}
	.st1{fill:#C49036;stroke:#C49036;}
	.st2{fill:none;}
	.st3{fill:#846633;stroke:#846633;}
	.st4{fill:#B69D4C;stroke:#B69D4C;}
	.st5{fill:#D3CBA5;stroke:#D3CBA5;}
	.st6{fill:#F5F5DC;stroke:#F5F5DC;}
	.st7{fill:#C49036;}
	.st8{font-family:'ArialMT';}
	.st9{font-size:12px;}
	.st10{fill:#846633;}
	.st11{fill:#B69D4C;}
</style>
<path class="st0" d="M97.8,481.5h463v-463h-463L97.8,481.5L97.8,481.5z"/>
<rect x="-8" y="-9" class="st0" width="767" height="523"/>
<path class="st1" d="M97.8,481.5h32.6v-32.6H97.8V481.5z"/>
<path class="st2" d="M97.8,481.5h463v-463h-463L97.8,481.5L97.8,481.5z"/>
<path class="st1" d="M97.8,442.3h32.6v-32.6H97.8V442.3z"/>
<path class="st2" d="M97.8,481.5h463v-463h-463L97.8,481.5L97.8,481.5z"/>
<path class="st1" d="M97.8,403.2h32.6v-32.6H97.8V403.2z"/>
<path class="st2" d="M97.8,481.5h463v-463h-463L97.8,481.5L97.8,481.5z"/>
<path class="st1" d="M97.8,364.1h32.6v-32.6H97.8V364.1z"/>
<path class="st2" d="M97.8,481.5h463v-463h-463L97.8,481.5L97.8,481.5z"/>
<path class="st1" d="M97.8,325h32.6v-32.6H97.8V325z"/>
<path class="st2" d="M97.8,481.5h463v-463h-463L97.8,481.5L97.8,481.5z"/>
<path class="st1" d="M97.8,285.8h32.6v-32.6H97.8V285.8z"/>
<path class="st2" d="M97.8,481.5h463v-463h-463L97.8,481.5L97.8,481.5z"/>
<path class="st1" d="M97.8,246.7h32.6v-32.6H97.8V246.7z"/>
<path class="st2" d="M97.8,481.5h463v-463h-463L97.8,481.5L97.8,481.5z"/>
<path class="st1" d="M97.8,207.6h32.6V175H97.8V207.6z"/>
<path class="st2" d="M97.8,481.5h463v-463h-463L97.8,481.5L97.8,481.5z"/>
<path class="st1" d="M97.8,168.5h32.6v-32.6H97.8V168.5z"/>
<path class="st2" d="M97.8,481.5h463v-463h-463L97.8,481.5L97.8,481.5z"/>
<path class="st1" d="M97.8,129.3h32.6V96.7H97.8V129.3z"/>
<path class="st2" d="M97.8,481.5h463v-463h-463L97.8,481.5L97.8,481.5z"/>
<path class="st1" d="M97.8,90.2h32.6V57.6H97.8V90.2z"/>
<path class="st2" d="M97.8,481.5h463v-463h-463L97.8,481.5L97.8,481.5z"/>
<path class="st1" d="M97.8,51.1h32.6V18.5H97.8V51.1z"/>
<path class="st2" d="M97.8,481.5h463v-463h-463L97.8,481.5L97.8,481.5z"/>
<path class="st1" d="M136.9,481.5h32.6v-32.6h-32.6V481.5z"/>
<path class="st2" d="M97.8,481.5h463v-463h-463L97.8,481.5L97.8,481.5z"/>
<path class="st1" d="M136.9,442.3h32.6v-32.6h-32.6V442.3z"/>
<path class="st2" d="M97.8,481.5h463v-463h-463L97.8,481.5L97.8,481.5z"/>
<path class="st1" d="M136.9,403.2h32.6v-32.6h-32.6V403.2z"/>
<path class="st2" d="M97.8,481.5h463v-463h-463L97.8,481.5L97.8,481.5z"/>
<path class="st1" d="M136.9,364.1h32.6v-32.6h-32.6V364.1z"/>
<path class="st2" d="M97.8,481.5h463v-463h-463L97.8,481.5L97.8,481.5z"/>
<path class="st1" d="M136.9,325h32.6v-32.6h-32.6V325z"/>
<path class="st2" d="M97.8,481.5h463v-463h-463L97.8,481.5L97.8,481.5z"/>
<path class="st1" d="M136.9,285.8h32.6v-32.6h-32.6V285.8z"/>
<path class="st2" d="M97.8,481.5h463v-463h-463L97.8,481.5L97.8,481.5z"/>
<path class="st1" d="M136.9,246.7h32.6v-32.6h-32.6V246.7z"/>
<path class="st2" d="M97.8,481.5h463v-463h-463L97.8,481.5L97.8,481.5z"/>
<path class="st1" d="M136.9,207.6h32.6V175h-32.6V207.6z"/>
<path class="st2" d="M97.8,481.5h463v-463h-463L97.8,481.5L97.8,481.5z"/>
<path class="st1" d="M136.9,168.5h32.6v-32.6h-32.6V168.5z"/>
<path class="st2" d="M97.8,481.5h463v-463h-463L97.8,481.5L97.8,481.5z"/>
<path class="st1" d="M136.9,129.3h32.6V96.7h-32.6V129.3z"/>
<path class="st2" d="M97.8,481.5h463v-463h-463L97.8,481.5L97.8,481.5z"/>
<path class="st1" d="M136.9,90.2h32.6V57.6h-32.6V90.2z"/>
<path class="st2" d="M97.8,481.5h463v-463h-463L97.8,481.5L97.8,481.5z"/>
<path class="st1" d="M136.9,51.1h32.6V18.5h-32.6V51.1z"/>
<path class="st2" d="M97.8,481.5h463v-463h-463L97.8,481.5L97.8,481.5z"/>
<path class="st1" d="M176,481.5h32.6v-32.6H176V481.5z"/>
<path class="st2" d="M97.8,481.5h463v-463h-463L97.8,481.5L97.8,481.5z"/>
<path class="st1" d="M176,442.3h32.6v-32.6H176V442.3z"/>
<path class="st2" d="M97.8,481.5h463v-463h-463L97.8,481.5L97.8,481.5z"/>
<path class="st1" d="M176,403.2h32.6v-32.6H176V403.2z"/>
<path class="st2" d="M97.8,481.5h463v-463h-463L97.8,481.5L97.8,481.5z"/>
<path class="st1" d="M176,364.1h32.6v-32.6H176V364.1z"/>
<path class="st2" d="M97.8,481.5h463v-463h-463L97.8,481.5L97.8,481.5z"/>
<path class="st1" d="M176,325h32.6v-32.6H176V325z"/>
<path class="st2" d="M97.8,481.5h463v-463h-463L97.8,481.5L97.8,481.5z"/>
<path class="st1" d="M176,285.8h32.6v-32.6H176V285.8z"/>
<path class="st2" d="M97.8,481.5h463v-463h-463L97.8,481.5L97.8,481.5z"/>
<path class="st1" d="M176,246.7h32.6v-32.6H176V246.7z"/>
<path class="st2" d="M97.8,481.5h463v-463h-463L97.8,481.5L97.8,481.5z"/>
<path class="st1" d="M176,207.6h32.6V175H176V207.6z"/>
<path class="st2" d="M97.8,481.5h463v-463h-463L97.8,481.5L97.8,481.5z"/>
<path class="st1" d="M176,168.5h32.6v-32.6H176V168.5z"/>
<path class="st2" d="M97.8,481.5h463v-463h-463L97.8,481.5L97.8,481.5z"/>
<path class="st1" d="M176,129.3h32.6V96.7H176V129.3z"/>
<path class="st2" d="M97.8,481.5h463v-463h-463L97.8,481.5L97.8,481.5z"/>
<path class="st1" d="M176,90.2h32.6V57.6H176V90.2z"/>
<path class="st2" d="M97.8,481.5h463v-463h-463L97.8,481.5L97.8,481.5z"/>
<path class="st1" d="M176,51.1h32.6V18.5H176V51.1z"/>
<path class="st2" d="M97.8,481.5h463v-463h-463L97.8,481.5L97.8,481.5z"/>
<path class="st1" d="M215.2,481.5h32.6v-32.6h-32.6L215.2,481.5L215.2,481.5z"/>
<path class="st2" d="M97.8,481.5h463v-463h-463L97.8,481.5L97.8,481.5z"/>
<path class="st1" d="M215.2,442.3h32.6v-32.6h-32.6L215.2,442.3L215.2,442.3z"/>
<path class="st2" d="M97.8,481.5h463v-463h-463L97.8,481.5L97.8,481.5z"/>
<path class="st1" d="M215.2,403.2h32.6v-32.6h-32.6L215.2,403.2L215.2,403.2z"/>
<path class="st2" d="M97.8,481.5h463v-463h-463L97.8,481.5L97.8,481.5z"/>
<path class="st1" d="M215.2,364.1h32.6v-32.6h-32.6L215.2,364.1L215.2,364.1z"/>
<path class="st2" d="M97.8,481.5h463v-463h-463L97.8,481.5L97.8,481.5z"/>
<path class="st1" d="M215.2,325h32.6v-32.6h-32.6L215.2,325L215.2,325z"/>
<path class="st2" d="M97.8,481.5h463v-463h-463L97.8,481.5L97.8,481.5z"/>
<path class="st1" d="M215.2,285.8h32.6v-32.6h-32.6L215.2,285.8L215.2,285.8z"/>
<path class="st2" d="M97.8,481.5h463v-463h-463L97.8,481.5L97.8,481.5z"/>
<path class="st1" d="M215.2,246.7h32.6v-32.6h-32.6L215.2,246.7L215.2,246.7z"/>
<path class="st2" d="M97.8,481.5h463v-463h-463L97.8,481.5L97.8,481.5z"/>
<path class="st1" d="M215.2,207.6h32.6V175h-32.6L215.2,207.6L215.2,207.6z"/>
<path class="st2" d="M97.8,481.5h463v-463h-463L97.8,481.5L97.8,481.5z"/>
<path class="st1" d="M215.2,168.5h32.6v-32.6h-32.6L215.2,168.5L215.2,168.5z"/>
<path class="st2" d="M97.8,481.5h463v-463h-463L97.8,481.5L97.8,481.5z"/>
<path class="st1" d="M215.2,129.3h32.6V96.7h-32.6L215.2,129.3L215.2,129.3z"/>
<path class="st2" d="M97.8,481.5h463v-463h-463L97.8,481.5L97.8,481.5z"/>
<path class="st1" d="M215.2,90.2h32.6V57.6h-32.6L215.2,90.2L215.2,90.2z"/>
<path class="st2" d="M97.8,481.5h463v-463h-463L97.8,481.5L97.8,481.5z"/>
<path class="st1" d="M215.2,51.1h32.6V18.5h-32.6L215.2,51.1L215.2,51.1z"/>
<path class="st2" d="M97.8,481.5h463v-463h-463L97.8,481.5L97.8,481.5z"/>
<path class="st1" d="M254.3,481.5h32.6v-32.6h-32.6L254.3,481.5L254.3,481.5z"/>
<path class="st2" d="M97.8,481.5h463v-463h-463L97.8,481.5L97.8,481.5z"/>
<path class="st1" d="M254.3,442.3h32.6v-32.6h-32.6L254.3,442.3L254.3,442.3z"/>
<path class="st2" d="M97.8,481.5h463v-463h-463L97.8,481.5L97.8,481.5z"/>
<path class="st1" d="M254.3,403.2h32.6v-32.6h-32.6L254.3,403.2L254.3,403.2z"/>
<path class="st2" d="M97.8,481.5h463v-463h-463L97.8,481.5L97.8,481.5z"/>
<path class="st1" d="M254.3,364.1h32.6v-32.6h-32.6L254.3,364.1L254.3,364.1z"/>
<path class="st2" d="M97.8,481.5h463v-463h-463L97.8,481.5L97.8,481.5z"/>
<path class="st1" d="M254.3,325h32.6v-32.6h-32.6L254.3,325L254.3,325z"/>
<path class="st2" d="M97.8,481.5h463v-463h-463L97.8,481.5L97.8,481.5z"/>
<path class="st1" d="M254.3,285.8h32.6v-32.6h-32.6L254.3,285.8L254.3,285.8z"/>
<path class="st2" d="M97.8,481.5h463v-463h-463L97.8,481.5L97.8,481.5z"/>
<path class="st1" d="M254.3,246.7h32.6v-32.6h-32.6L254.3,246.7L254.3,246.7z"/>
<path class="st2" d="M97.8,481.5h463v-463h-463L97.8,481.5L97.8,481.5z"/>
<path class="st1" d="M254.3,207.6h32.6V175h-32.6L254.3,207.6L254.3,207.6z"/>
<path class="st2" d="M97.8,481.5h463v-463h-463L97.8,481.5L97.8,481.5z"/>
<path class="st1" d="M254.3,168.5h32.6v-32.6h-32.6L254.3,168.5L254.3,168.5z"/>
<path class="st2" d="M97.8,481.5h463v-463h-463L97.8,481.5L97.8,481.5z"/>
<path class="st1" d="M254.3,129.3h32.6V96.7h-32.6L254.3,129.3L254.3,129.3z"/>
<path class="st2" d="M97.8,481.5h463v-463h-463L97.8,481.5L97.8,481.5z"/>
<path class="st1" d="M254.3,90.2h32.6V57.6h-32.6L254.3,90.2L254.3,90.2z"/>
<path class="st2" d="M97.8,481.5h463v-463h-463L97.8,481.5L97.8,481.5z"/>
<path class="st3" d="M254.3,51.1h32.6V18.5h-32.6L254.3,51.1L254.3,51.1z"/>
<path class="st2" d="M97.8,481.5h463v-463h-463L97.8,481.5L97.8,481.5z"/>
<path class="st3" d="M293.4,481.5H326v-32.6h-32.6V481.5L293.4,481.5z"/>
<path class="st2" d="M97.8,481.5h463v-463h-463L97.8,481.5L97.8,481.5z"/>
<path class="st3" d="M293.4,442.3H326v-32.6h-32.6V442.3L293.4,442.3z"/>
<path class="st2" d="M97.8,481.5h463v-463h-463L97.8,481.5L97.8,481.5z"/>
<path class="st3" d="M293.4,403.2H326v-32.6h-32.6V403.2L293.4,403.2z"/>
<path class="st2" d="M97.8,481.5h463v-463h-463L97.8,481.5L97.8,481.5z"/>
<path class="st3" d="M293.4,364.1H326v-32.6h-32.6V364.1L293.4,364.1z"/>
<path class="st2" d="M97.8,481.5h463v-463h-463L97.8,481.5L97.8,481.5z"/>
<path class="st3" d="M293.4,325H326v-32.6h-32.6V325L293.4,325z"/>
<path class="st2" d="M97.8,481.5h463v-463h-463L97.8,481.5L97.8,481.5z"/>
<path class="st3" d="M293.4,285.8H326v-32.6h-32.6V285.8L293.4,285.8z"/>
<path class="st2" d="M97.8,481.5h463v-463h-463L97.8,481.5L97.8,481.5z"/>
<path class="st3" d="M293.4,246.7H326v-32.6h-32.6V246.7L293.4,246.7z"/>
<path class="st2" d="M97.8,481.5h463v-463h-463L97.8,481.5L97.8,481.5z"/>
<path class="st3" d="M293.4,207.6H326V175h-32.6V207.6L293.4,207.6z"/>
<path class="st2" d="M97.8,481.5h463v-463h-463L97.8,481.5L97.8,481.5z"/>
<path class="st3" d="M293.4,168.5H326v-32.6h-32.6V168.5L293.4,168.5z"/>
<path class="st2" d="M97.8,481.5h463v-463h-463L97.8,481.5L97.8,481.5z"/>
<path class="st3" d="M293.4,129.3H326V96.7h-32.6V129.3L293.4,129.3z"/>
<path class="st2" d="M97.8,481.5h463v-463h-463L97.8,481.5L97.8,481.5z"/>
<path class="st3" d="M293.4,90.2H326V57.6h-32.6V90.2L293.4,90.2z"/>
<path class="st2" d="M97.8,481.5h463v-463h-463L97.8,481.5L97.8,481.5z"/>
<path class="st3" d="M293.4,51.1H326V18.5h-32.6V51.1L293.4,51.1z"/>
<path class="st2" d="M97.8,481.5h463v-463h-463L97.8,481.5L97.8,481.5z"/>
<path class="st3" d="M332.5,481.5h32.6v-32.6h-32.6V481.5z"/>
<path class="st2" d="M97.8,481.5h463v-463h-463L97.8,481.5L97.8,481.5z"/>
<path class="st3" d="M332.5,442.3h32.6v-32.6h-32.6V442.3z"/>
<path class="st2" d="M97.8,481.5h463v-463h-463L97.8,481.5L97.8,481.5z"/>
<path class="st3" d="M332.5,403.2h32.6v-32.6h-32.6V403.2z"/>
<path class="st2" d="M97.8,481.5h463v-463h-463L97.8,481.5L97.8,481.5z"/>
<path class="st3" d="M332.5,364.1h32.6v-32.6h-32.6V364.1z"/>
<path class="st2" d="M97.8,481.5h463v-463h-463L97.8,481.5L97.8,481.5z"/>
<path class="st3" d="M332.5,325h32.6v-32.6h-32.6V325z"/>
<path class="st2" d="M97.8,481.5h463v-463h-463L97.8,481.5L97.8,481.5z"/>
<path class="st3" d="M332.5,285.8h32.6v-32.6h-32.6V285.8z"/>
<path class="st2" d="M97.8,481.5h463v-463h-463L97.8,481.5L97.8,481.5z"/>
<path class="st3" d="M332.5,246.7h32.6v-32.6h-32.6V246.7z"/>
<path class="st2" d="M97.8,481.5h463v-463h-463L97.8,481.5L97.8,481.5z"/>
<path class="st3" d="M332.5,207.6h32.6V175h-32.6V207.6z"/>
<path class="st2" d="M97.8,481.5h463v-463h-463L97.8,481.5L97.8,481.5z"/>
<path class="st3" d="M332.5,168.5h32.6v-32.6h-32.6V168.5z"/>
<path class="st2" d="M97.8,481.5h463v-463h-463L97.8,481.5L97.8,481.5z"/>
<path class="st3" d="M332.5,129.3h32.6V96.7h-32.6V129.3z"/>
<path class="st2" d="M97.8,481.5h463v-463h-463L97.8,481.5L97.8,481.5z"/>
<path class="st3" d="M332.5,90.2h32.6V57.6h-32.6V90.2z"/>
<path class="st2" d="M97.8,481.5h463v-463h-463L97.8,481.5L97.8,481.5z"/>
<path class="st3" d="M332.5,51.1h32.6V18.5h-32.6V51.1z"/>
<path class="st2" d="M97.8,481.5h463v-463h-463L97.8,481.5L97.8,481.5z"/>
<path class="st3" d="M371.7,481.5h32.6v-32.6h-32.6V481.5z"/>
<path class="st2" d="M97.8,481.5h463v-463h-463L97.8,481.5L97.8,481.5z"/>
<path class="st3" d="M371.7,442.3h32.6v-32.6h-32.6V442.3z"/>
<path class="st2" d="M97.8,481.5h463v-463h-463L97.8,481.5L97.8,481.5z"/>
<path class="st3" d="M371.7,403.2h32.6v-32.6h-32.6V403.2z"/>
<path class="st2" d="M97.8,481.5h463v-463h-463L97.8,481.5L97.8,481.5z"/>
<path class="st3" d="M371.7,364.1h32.6v-32.6h-32.6V364.1z"/>
<path class="st2" d="M97.8,481.5h463v-463h-463L97.8,481.5L97.8,481.5z"/>
<path class="st3" d="M371.7,325h32.6v-32.6h-32.6V325z"/>
<path class="st2" d="M97.8,481.5h463v-463h-463L97.8,481.5L97.8,481.5z"/>
<path class="st4" d="M371.7,285.8h32.6v-32.6h-32.6V285.8z"/>
<path class="st2" d="M97.8,481.5h463v-463h-463L97.8,481.5L97.8,481.5z"/>
<path class="st4" d="M371.7,246.7h32.6v-32.6h-32.6V246.7z"/>
<path class="st2" d="M97.8,481.5h463v-463h-463L97.8,481.5L97.8,481.5z"/>
<path class="st4" d="M371.7,207.6h32.6V175h-32.6V207.6z"/>
<path class="st2" d="M97.8,481.5h463v-463h-463L97.8,481.5L97.8,481.5z"/>
<path class="st4" d="M371.7,168.5h32.6v-32.6h-32.6V168.5z"/>
<path class="st2" d="M97.8,481.5h463v-463h-463L97.8,481.5L97.8,481.5z"/>
<path class="st4" d="M371.7,129.3h32.6V96.7h-32.6V129.3z"/>
<path class="st2" d="M97.8,481.5h463v-463h-463L97.8,481.5L97.8,481.5z"/>
<path class="st4" d="M371.7,90.2h32.6V57.6h-32.6V90.2z"/>
<path class="st2" d="M97.8,481.5h463v-463h-463L97.8,481.5L97.8,481.5z"/>
<path class="st4" d="M371.7,51.1h32.6V18.5h-32.6V51.1z"/>
<path class="st2" d="M97.8,481.5h463v-463h-463L97.8,481.5L97.8,481.5z"/>
<path class="st4" d="M410.8,481.5h32.6v-32.6h-32.6V481.5z"/>
<path class="st2" d="M97.8,481.5h463v-463h-463L97.8,481.5L97.8,481.5z"/>
<path class="st4" d="M410.8,442.3h32.6v-32.6h-32.6V442.3z"/>
<path class="st2" d="M97.8,481.5h463v-463h-463L97.8,481.5L97.8,481.5z"/>
<path class="st4" d="M410.8,403.2h32.6v-32.6h-32.6V403.2z"/>
<path class="st2" d="M97.8,481.5h463v-463h-463L97.8,481.5L97.8,481.5z"/>
<path class="st4" d="M410.8,364.1h32.6v-32.6h-32.6V364.1z"/>
<path class="st2" d="M97.8,481.5h463v-463h-463L97.8,481.5L97.8,481.5z"/>
<path class="st4" d="M410.8,325h32.6v-32.6h-32.6V325z"/>
<path class="st2" d="M97.8,481.5h463v-463h-463L97.8,481.5L97.8,481.5z"/>
<path class="st4" d="M410.8,285.8h32.6v-32.6h-32.6V285.8z"/>
<path class="st2" d="M97.8,481.5h463v-463h-463L97.8,481.5L97.8,481.5z"/>
<path class="st4" d="M410.8,246.7h32.6v-32.6h-32.6V246.7z"/>
<path class="st2" d="M97.8,481.5h463v-463h-463L97.8,481.5L97.8,481.5z"/>
<path class="st4" d="M410.8,207.6h32.6V175h-32.6V207.6z"/>
<path class="st2" d="M97.8,481.5h463v-463h-463L97.8,481.5L97.8,481.5z"/>
<path class="st4" d="M410.8,168.5h32.6v-32.6h-32.6V168.5z"/>
<path class="st2" d="M97.8,481.5h463v-463h-463L97.8,481.5L97.8,481.5z"/>
<path class="st4" d="M410.8,129.3h32.6V96.7h-32.6V129.3z"/>
<path class="st2" d="M97.8,481.5h463v-463h-463L97.8,481.5L97.8,481.5z"/>
<path class="st4" d="M410.8,90.2h32.6V57.6h-32.6V90.2z"/>
<path class="st2" d="M97.8,481.5h463v-463h-463L97.8,481.5L97.8,481.5z"/>
<path class="st4" d="M410.8,51.1h32.6V18.5h-32.6V51.1z"/>
<path class="st2" d="M97.8,481.5h463v-463h-463L97.8,481.5L97.8,481.5z"/>
<path class="st4" d="M449.9,481.5h32.6v-32.6h-32.6V481.5z"/>
<path class="st2" d="M97.8,481.5h463v-463h-463L97.8,481.5L97.8,481.5z"/>
<path class="st4" d="M449.9,442.3h32.6v-32.6h-32.6V442.3z"/>
<path class="st2" d="M97.8,481.5h463v-463h-463L97.8,481.5L97.8,481.5z"/>
<path class="st5" d="M449.9,403.2h32.6v-32.6h-32.6V403.2z"/>
<path class="st2" d="M97.8,481.5h463v-463h-463L97.8,481.5L97.8,481.5z"/>
<path class="st5" d="M449.9,364.1h32.6v-32.6h-32.6V364.1z"/>
<path class="st2" d="M97.8,481.5h463v-463h-463L97.8,481.5L97.8,481.5z"/>
<path class="st5" d="M449.9,325h32.6v-32.6h-32.6V325z"/>
<path class="st2" d="M97.8,481.5h463v-463h-463L97.8,481.5L97.8,481.5z"/>
<path class="st5" d="M449.9,285.8h32.6v-32.6h-32.6V285.8z"/>
<path class="st2" d="M97.8,481.5h463v-463h-463L97.8,481.5L97.8,481.5z"/>
<path class="st5" d="M449.9,246.7h32.6v-32.6h-32.6V246.7z"/>
<path class="st2" d="M97.8,481.5h463v-463h-463L97.8,481.5L97.8,481.5z"/>
<path class="st5" d="M449.9,207.6h32.6V175h-32.6V207.6z"/>
<path class="st2" d="M97.8,481.5h463v-463h-463L97.8,481.5L97.8,481.5z"/>
<path class="st5" d="M449.9,168.5h32.6v-32.6h-32.6V168.5z"/>
<path class="st2" d="M97.8,481.5h463v-463h-463L97.8,481.5L97.8,481.5z"/>
<path class="st5" d="M449.9,129.3h32.6V96.7h-32.6V129.3z"/>
<path class="st2" d="M97.8,481.5h463v-463h-463L97.8,481.5L97.8,481.5z"/>
<path class="st5" d="M449.9,90.2h32.6V57.6h-32.6V90.2z"/>
<path class="st2" d="M97.8,481.5h463v-463h-463L97.8,481.5L97.8,481.5z"/>
<path class="st5" d="M449.9,51.1h32.6V18.5h-32.6V51.1z"/>
<path class="st2" d="M97.8,481.5h463v-463h-463L97.8,481.5L97.8,481.5z"/>
<path class="st5" d="M489,481.5h32.6v-32.6H489V481.5z"/>
<path class="st2" d="M97.8,481.5h463v-463h-463L97.8,481.5L97.8,481.5z"/>
<path class="st5" d="M489,442.3h32.6v-32.6H489V442.3z"/>
<path class="st2" d="M97.8,481.5h463v-463h-463L97.8,481.5L97.8,481.5z"/>
<path class="st5" d="M489,403.2h32.6v-32.6H489V403.2z"/>
<path class="st2" d="M97.8,481.5h463v-463h-463L97.8,481.5L97.8,481.5z"/>
<path class="st5" d="M489,364.1h32.6v-32.6H489V364.1z"/>
<path class="st2" d="M97.8,481.5h463v-463h-463L97.8,481.5L97.8,481.5z"/>
<path class="st5" d="M489,325h32.6v-32.6H489V325z"/>
<path class="st2" d="M97.8,481.5h463v-463h-463L97.8,481.5L97.8,481.5z"/>
<path class="st5" d="M489,285.8h32.6v-32.6H489V285.8z"/>
<path class="st2" d="M97.8,481.5h463v-463h-463L97.8,481.5L97.8,481.5z"/>
<path class="st5" d="M489,246.7h32.6v-32.6H489V246.7z"/>
<path class="st2" d="M97.8,481.5h463v-463h-463L97.8,481.5L97.8,481.5z"/>
<path class="st5" d="M489,207.6h32.6V175H489V207.6z"/>
<path class="st2" d="M97.8,481.5h463v-463h-463L97.8,481.5L97.8,481.5z"/>
<path class="st6" d="M489,168.5h32.6v-32.6H489V168.5z"/>
<path class="st2" d="M97.8,481.5h463v-463h-463L97.8,481.5L97.8,481.5z"/>
<path class="st6" d="M489,129.3h32.6V96.7H489V129.3z"/>
<path class="st2" d="M97.8,481.5h463v-463h-463L97.8,481.5L97.8,481.5z"/>
<path class="st6" d="M489,90.2h32.6V57.6H489V90.2z"/>
<path class="st2" d="M97.8,481.5h463v-463h-463L97.8,481.5L97.8,481.5z"/>
<path class="st6" d="M489,51.1h32.6V18.5H489V51.1z"/>
<path class="st2" d="M97.8,481.5h463v-463h-463L97.8,481.5L97.8,481.5z"/>
<path class="st6" d="M528.2,481.5h32.6v-32.6h-32.6V481.5z"/>
<path class="st2" d="M97.8,481.5h463v-463h-463L97.8,481.5L97.8,481.5z"/>
<path class="st6" d="M528.2,442.3h32.6v-32.6h-32.6V442.3z"/>
<path class="st2" d="M97.8,481.5h463v-463h-463L97.8,481.5L97.8,481.5z"/>
<path class="st6" d="M528.2,403.2h32.6v-32.6h-32.6V403.2z"/>
<path class="st2" d="M97.8,481.5h463v-463h-463L97.8,481.5L97.8,481.5z"/>
<path class="st6" d="M528.2,364.1h32.6v-32.6h-32.6V364.1z"/>
<path class="st2" d="M97.8,481.5h463v-463h-463L97.8,481.5L97.8,481.5z"/>
<path class="st6" d="M528.2,325h32.6v-32.6h-32.6V325z"/>
<path class="st2" d="M97.8,481.5h463v-463h-463L97.8,481.5L97.8,481.5z"/>
<path class="st6" d="M528.2,285.8h32.6v-32.6h-32.6V285.8z"/>
<path class="st2" d="M97.8,481.5h463v-463h-463L97.8,481.5L97.8,481.5z"/>
<path class="st6" d="M528.2,246.7h32.6v-32.6h-32.6V246.7z"/>
<path class="st2" d="M97.8,481.5h463v-463h-463L97.8,481.5L97.8,481.5z"/>
<path class="st6" d="M528.2,207.6h32.6V175h-32.6V207.6z"/>
<path class="st2" d="M97.8,481.5h463v-463h-463L97.8,481.5L97.8,481.5z"/>
<path class="st6" d="M528.2,168.5h32.6v-32.6h-32.6V168.5z"/>
<path class="st2" d="M97.8,481.5h463v-463h-463L97.8,481.5L97.8,481.5z"/>
<path class="st6" d="M528.2,129.3h32.6V96.7h-32.6V129.3z"/>
<path class="st2" d="M97.8,481.5h463v-463h-463L97.8,481.5L97.8,481.5z"/>
<path class="st6" d="M528.2,90.2h32.6V57.6h-32.6V90.2z"/>
<path class="st2" d="M97.8,481.5h463v-463h-463L97.8,481.5L97.8,481.5z"/>
<path class="st6" d="M528.2,51.1h32.6V18.5h-32.6V51.1z"/>
<path class="st1" d="M594.8,32.1h20v-7h-20V32.1z"/>
<path class="st3" d="M594.8,49.8h20v-7h-20V49.8z"/>
<path class="st4" d="M594.8,68.5h20v-7h-20V68.5z"/>
<path class="st5" d="M594.8,87.1h20v-7h-20V87.1z"/>
<path class="st6" d="M594.8,106.8h20v-7h-20V106.8z"/>
<text transform="matrix(1 0 0 1 624.6976 32.0985)" class="st7 st8 st9">India</text>
<text transform="matrix(1 0 0 1 624.2661 51.1023)" class="st10 st8 st9">China</text>
<text transform="matrix(1 0 0 1 625.8607 68.4547)" class="st11 st8 st9">Ireland</text>
<text transform="matrix(1 0 0 1 625.8607 87.1328)" class="st8 st9">Singapore</text>
<text transform="matrix(1 0 0 1 626.3168 106.3151)" class="st8 st9">Australia</text>
</svg>
